<svg width="156" height="36" viewBox="0 0 156 36" fill="none" xmlns="http://www.w3.org/2000/svg">
<path d="M0 0H5.05802L14.993 19.87L12.4161 24.9813L0 0Z" fill="#85A33D"/>
<path d="M19.9552 5.07932L22.5322 0L25.1091 5.07932L22.5322 10.1906L19.9552 5.07932Z" fill="#85A33D"/>
<path d="M14.993 30.0393L22.5322 14.9398L30.0393 30.0393L27.6008 35.1506L22.5109 25.0452L17.5593 35.1506L14.993 30.0393Z" fill="#85A33D"/>
<path d="M32.744 24.9813L44.9259 0H39.9317L30.0393 19.8807L32.744 24.9813Z" fill="#85A33D"/>
<path d="M59.2161 8.66785L59.9828 7.01733L60.7388 8.66785L65.2431 18.3367H63.7097L59.9828 10.3077L59.2161 8.66785ZM54.7331 18.3367L58.4601 10.3184L59.2161 11.9582L56.2665 18.3367H54.7331Z" fill="black"/>
<path d="M68.5335 9.14702V7.01733L75.2953 14.6203V7.00668H76.7435L76.7648 18.2834L68.5335 9.14702ZM68.5335 11.2767L69.9178 12.6504V18.3366H68.5335V11.2767Z" fill="black"/>
<path d="M88.2012 8.40163H80.6834V7.01733H88.2012V8.40163ZM85.1771 18.3473H83.7928V9.78593H85.1771V18.3473Z" fill="black"/>
<path d="M95.9533 8.66785L96.72 7.01733L97.476 8.66785L101.98 18.3367H100.447L96.72 10.3077L95.9533 8.66785ZM91.4703 18.3367L95.1973 10.3184L95.9533 11.9582L93.0037 18.3367H91.4703Z" fill="black"/>
<path d="M109.828 7.00668C110.669 7.00668 111.468 7.33679 112.064 7.94375C112.352 8.24191 112.576 8.58266 112.746 8.95535C112.916 9.3387 113.002 9.76464 113.002 10.1799V10.2119C113.002 10.6378 112.916 11.0531 112.746 11.4364C112.586 11.8091 112.352 12.1499 112.064 12.4374C111.777 12.7249 111.436 12.9485 111.063 13.1189C110.68 13.2893 110.254 13.3745 109.839 13.3745H107.4V18.3473H106.016V11.9795H109.85C110.084 11.9795 110.329 11.9369 110.542 11.8411C110.755 11.7559 110.946 11.6175 111.106 11.4577C111.266 11.298 111.394 11.1063 111.479 10.8934C111.575 10.6804 111.617 10.4461 111.617 10.2119V10.1799C111.617 9.94566 111.575 9.70074 111.479 9.48778C111.394 9.27481 111.266 9.08313 111.106 8.92341C110.946 8.76368 110.755 8.6359 110.542 8.54006C110.318 8.44423 110.084 8.40163 109.85 8.40163H106.016V7.01733H109.828V7.00668ZM110.872 14.7375L112.906 18.3366H111.298L109.285 14.7801L110.872 14.7375Z" fill="black"/>
<path d="M118.613 18.3367H117.218V9.41324L118.613 7.01733V18.3367Z" fill="black"/>
<path d="M138.079 8.40164C137.61 8.40164 137.152 8.58266 136.822 8.91276C136.662 9.07249 136.524 9.26416 136.439 9.47713C136.343 9.6901 136.3 9.93502 136.3 10.1693V10.2012C136.3 10.4355 136.343 10.6698 136.439 10.8827C136.535 11.0957 136.662 11.2874 136.822 11.4471C136.982 11.6068 137.173 11.7453 137.386 11.8304C137.61 11.9263 137.844 11.9689 138.089 11.9689H138.781C139.143 11.9689 139.506 12.0328 139.846 12.1605C140.176 12.2883 140.475 12.4587 140.762 12.661C141.124 12.9485 141.422 13.3212 141.625 13.7365C141.838 14.1625 141.944 14.6416 141.933 15.1208V15.1528C141.933 15.5787 141.848 16.0046 141.688 16.3986C141.529 16.7713 141.305 17.1227 141.018 17.4102C140.73 17.6977 140.389 17.932 140.006 18.0917C139.612 18.2621 139.186 18.3473 138.76 18.3367H134.905L136.503 16.9417H138.749C138.984 16.9417 139.229 16.8991 139.442 16.8033C139.857 16.6223 140.198 16.2922 140.379 15.8662C140.475 15.6426 140.517 15.4083 140.517 15.1741V15.1421C140.517 14.9079 140.475 14.6736 140.379 14.4606C140.283 14.2476 140.155 14.056 139.995 13.8962C139.665 13.5661 139.218 13.3745 138.749 13.3745H138.004C137.589 13.3638 137.173 13.2786 136.79 13.1083C136.045 12.7888 135.459 12.1818 135.14 11.4365C134.98 11.0531 134.895 10.6378 134.905 10.2225V10.2012C134.905 9.77529 134.991 9.36 135.15 8.97666C135.31 8.59331 135.544 8.25256 135.832 7.96505C136.119 7.67754 136.471 7.44328 136.843 7.28355C137.237 7.11317 137.663 7.03864 138.089 7.03864H141.933L140.336 8.41229H138.079V8.40164Z" fill="black"/>
<path d="M128.122 13.9175L127.153 15.0569L129.475 18.326H131.061L128.122 13.9175Z" fill="black"/>
<path d="M131.104 7.00668L124.331 16.6861V16.6968L123.224 18.3366H123.213V7.00668H124.608L124.672 13.7791L129.464 7.00668H131.104Z" fill="black"/>
<path d="M153.966 7.00668V18.326H152.582V13.4171H147.843V18.326H146.459V12.0328H152.593V7.00668H153.966ZM147.833 10.6272H146.448V7.00668H147.833V10.6272Z" fill="black"/>
<path d="M55.9577 32.0945L53.7641 25.8864H54.9035L56.6072 30.987H56.2984L58.0767 25.8864L58.8753 25.8971L60.6004 30.987H60.3022L62.0379 25.8864H63.1134L60.9198 32.0945H60.0041L58.3429 27.3346H58.5559L56.8734 32.0945H55.9577V32.0945Z" fill="#85A33D"/>
<path d="M65.1047 32.1584C64.7214 32.1584 64.3806 32.0625 64.0825 31.8815C63.7843 31.7005 63.5607 31.4343 63.401 31.0935C63.2412 30.7528 63.156 30.3588 63.156 29.8902C63.156 29.4217 63.2412 29.0171 63.401 28.6763C63.5607 28.3356 63.7949 28.0587 64.0825 27.867C64.3806 27.6754 64.7107 27.5795 65.0941 27.5795C65.4668 27.5795 65.7862 27.6754 66.0631 27.8564C66.3399 28.0374 66.5316 28.293 66.6274 28.6231L66.521 28.687V27.686H67.5964V32.0945H66.521V31.0935L66.6274 31.1255C66.5316 31.4556 66.3399 31.7005 66.0631 31.8815C65.8075 32.0625 65.4774 32.1584 65.1047 32.1584ZM65.4029 31.3171C65.7649 31.3171 66.0418 31.1894 66.2441 30.9444C66.4464 30.6995 66.5422 30.3375 66.5422 29.8796C66.5422 29.4111 66.4464 29.049 66.2441 28.8041C66.0418 28.5592 65.7649 28.4314 65.4029 28.4314C65.0408 28.4314 64.7533 28.5592 64.551 28.8148C64.3487 29.0703 64.2422 29.4324 64.2422 29.9009C64.2422 30.3588 64.3487 30.6995 64.551 30.9551C64.7533 31.2107 65.0408 31.3171 65.4029 31.3171Z" fill="#85A33D"/>
<path d="M70.4077 32.1584C69.609 32.1584 68.9701 31.9773 68.5016 31.6047L68.8104 30.838C69.0447 31.0083 69.3002 31.1468 69.5664 31.232C69.8433 31.3171 70.1201 31.3597 70.4183 31.3597C70.6845 31.3597 70.8868 31.3171 71.0253 31.232C71.1637 31.1468 71.2382 31.019 71.2382 30.8699C71.2382 30.7315 71.185 30.625 71.0892 30.5505C70.9933 30.4759 70.8229 30.4014 70.578 30.3481L69.8433 30.1778C69.4386 30.0926 69.1405 29.9435 68.9382 29.7412C68.7358 29.5388 68.64 29.2726 68.64 28.9532C68.64 28.687 68.7145 28.4527 68.8636 28.2397C69.0127 28.0268 69.2257 27.867 69.5025 27.7606C69.7794 27.6434 70.0882 27.5902 70.4503 27.5902C70.7591 27.5902 71.0679 27.6328 71.3554 27.7286C71.6429 27.8244 71.8984 27.9629 72.1114 28.1439L71.8026 28.8893C71.579 28.7189 71.3554 28.5911 71.1318 28.5166C70.8975 28.4314 70.6739 28.3995 70.4503 28.3995C70.2053 28.3995 70.003 28.4421 69.8646 28.5379C69.7262 28.6337 69.6516 28.7615 69.6516 28.9212C69.6516 29.049 69.6942 29.1555 69.7794 29.23C69.8646 29.3046 70.0137 29.3685 70.216 29.4111L70.9614 29.5921C71.398 29.6879 71.7174 29.837 71.9197 30.0393C72.1221 30.2416 72.2179 30.5185 72.2179 30.8593C72.2179 31.2639 72.0582 31.5834 71.7281 31.8176C71.398 32.0519 70.972 32.1584 70.4077 32.1584Z" fill="#85A33D"/>
<path d="M72.5693 28.506V27.686H75.6786V28.506H72.5693ZM75.6786 31.1894V32.0519C75.5615 32.0945 75.4444 32.1158 75.3379 32.1371C75.2314 32.1584 75.1036 32.1584 74.9758 32.1584C74.486 32.1584 74.1026 32.0199 73.8258 31.7431C73.5596 31.4662 73.4211 31.0616 73.4211 30.5398V26.6212L74.5073 26.2591V30.4866C74.5073 30.6889 74.5392 30.838 74.6031 30.9551C74.667 31.0722 74.7522 31.1468 74.8587 31.2C74.9652 31.2426 75.0823 31.2746 75.2207 31.2746C75.2953 31.2746 75.3698 31.2639 75.4443 31.2533C75.5082 31.2213 75.5934 31.2107 75.6786 31.1894Z" fill="#85A33D"/>
<path d="M80.2042 31.6046C79.9913 31.775 79.7357 31.9135 79.4375 32.0093C79.1287 32.1051 78.8199 32.1477 78.5111 32.1477C78.032 32.1477 77.6273 32.0625 77.2759 31.8815C76.9352 31.7005 76.6689 31.4449 76.4773 31.0935C76.2962 30.7528 76.2004 30.3481 76.2004 29.8689C76.2004 29.4111 76.2856 29.0171 76.4666 28.6657C76.6476 28.3249 76.8926 28.0481 77.212 27.8564C77.5315 27.6647 77.9042 27.5689 78.3195 27.5689C78.7241 27.5689 79.0755 27.6541 79.363 27.8351C79.6505 28.0161 79.8741 28.2717 80.0339 28.6018C80.1936 28.9319 80.2788 29.3259 80.2788 29.7838V29.9541H77.1481L77.1588 29.3685H79.6399L79.3417 29.6666C79.3524 29.2407 79.2672 28.9212 79.0968 28.6976C78.9264 28.474 78.6815 28.3675 78.3514 28.3675C78 28.3675 77.7338 28.4953 77.5421 28.7402C77.3504 28.9851 77.2546 29.3365 77.2546 29.7944C77.2546 30.3162 77.3611 30.6995 77.5741 30.9551C77.787 31.2 78.1171 31.3278 78.5537 31.3278C78.788 31.3278 79.0223 31.2852 79.2565 31.2107C79.4908 31.1361 79.7038 31.019 79.8954 30.8699L80.2042 31.6046Z" fill="#85A33D"/>
<path d="M85.6882 32.0945L82.9196 25.8864H84.1016L86.3377 31.1042H85.9757L88.2332 25.8864H89.3619L86.604 32.0945H85.6882Z" fill="#85A33D"/>
<path d="M93.1421 31.6046C92.9291 31.775 92.6736 31.9135 92.3754 32.0093C92.0666 32.1051 91.7578 32.1477 91.449 32.1477C90.9698 32.1477 90.5652 32.0625 90.2138 31.8815C89.873 31.7005 89.6068 31.4449 89.4152 31.0935C89.2341 30.7528 89.1383 30.3481 89.1383 29.8689C89.1383 29.4111 89.2235 29.0171 89.4045 28.6657C89.5855 28.3249 89.8304 28.0481 90.1499 27.8564C90.4694 27.6647 90.842 27.5689 91.2573 27.5689C91.662 27.5689 92.0134 27.6541 92.3009 27.8351C92.5884 28.0161 92.812 28.2717 92.9717 28.6018C93.1315 28.9319 93.2167 29.3259 93.2167 29.7838V29.9541H90.086L90.0967 29.3685H92.5777L92.2796 29.6666C92.2902 29.2407 92.205 28.9212 92.0347 28.6976C91.8643 28.474 91.6194 28.3675 91.2893 28.3675C90.9379 28.3675 90.6717 28.4953 90.48 28.7402C90.2883 28.9851 90.1925 29.3365 90.1925 29.7944C90.1925 30.3162 90.299 30.6995 90.5119 30.9551C90.7249 31.2 91.055 31.3278 91.4916 31.3278C91.7259 31.3278 91.9601 31.2852 92.1944 31.2107C92.4287 31.1361 92.6416 31.019 92.8333 30.8699L93.1421 31.6046Z" fill="#85A33D"/>
<path d="M94.1431 32.0945V28.9425C94.1431 28.7296 94.1431 28.5272 94.1324 28.3143C94.1218 28.1013 94.1005 27.899 94.0792 27.6967H95.1121L95.2079 28.5698L95.1121 28.5911C95.2505 28.261 95.4635 28.0055 95.7403 27.8351C96.0172 27.6647 96.3366 27.5795 96.6987 27.5795C97.7422 27.5795 98.264 28.1865 98.264 29.3898V32.0945H97.1779V29.4324C97.1779 29.0916 97.114 28.836 96.9756 28.6763C96.8371 28.5166 96.6348 28.4314 96.3579 28.4314C96.0172 28.4314 95.751 28.5379 95.5487 28.7509C95.3463 28.9638 95.2505 29.2407 95.2505 29.5921V32.0838H94.1431V32.0945Z" fill="#85A33D"/>
<path d="M98.8497 28.506V27.686H101.959V28.506H98.8497ZM101.948 31.1894V32.0519C101.831 32.0945 101.714 32.1158 101.608 32.1371C101.501 32.1584 101.373 32.1584 101.246 32.1584C100.756 32.1584 100.372 32.0199 100.096 31.7431C99.8293 31.4662 99.6909 31.0616 99.6909 30.5398V26.6212L100.777 26.2591V30.4866C100.777 30.6889 100.809 30.838 100.873 30.9551C100.937 31.0722 101.022 31.1468 101.128 31.2C101.235 31.2426 101.352 31.2746 101.491 31.2746C101.565 31.2746 101.64 31.2639 101.714 31.2533C101.789 31.2213 101.863 31.2107 101.948 31.1894Z" fill="#85A33D"/>
<path d="M104.291 32.1584C103.748 32.1584 103.343 32.0093 103.077 31.7111C102.811 31.413 102.672 30.9551 102.672 30.3588V27.686H103.759V30.3588C103.759 30.6782 103.823 30.9125 103.961 31.0616C104.099 31.2106 104.291 31.2852 104.568 31.2852C104.887 31.2852 105.143 31.1787 105.335 30.9764C105.526 30.7634 105.622 30.4865 105.622 30.1352V27.686H106.719V32.0945H105.654V31.1894L105.771 31.1787C105.643 31.4982 105.452 31.7431 105.196 31.9028C104.93 32.0732 104.632 32.1584 104.291 32.1584Z" fill="#85A33D"/>
<path d="M107.901 32.0945V28.9426C107.901 28.7402 107.901 28.5273 107.89 28.3143C107.88 28.1013 107.858 27.899 107.837 27.686H108.87L108.987 28.8148L108.87 28.7509C108.944 28.3569 109.115 28.0694 109.381 27.8671C109.647 27.6647 109.956 27.5689 110.286 27.5689C110.371 27.5689 110.456 27.5796 110.531 27.5902C110.606 27.6009 110.669 27.6222 110.733 27.6434L110.712 28.6338C110.531 28.5592 110.339 28.5166 110.137 28.5166C109.871 28.5166 109.658 28.5699 109.498 28.6763C109.328 28.7828 109.211 28.9213 109.125 29.1023C109.04 29.2833 108.998 29.475 108.998 29.6986V32.0839H107.901V32.0945Z" fill="#85A33D"/>
<path d="M115.014 31.6047C114.801 31.7751 114.546 31.9135 114.247 32.0093C113.939 32.1052 113.63 32.1477 113.321 32.1477C112.842 32.1477 112.437 32.0626 112.086 31.8815C111.745 31.7005 111.479 31.445 111.287 31.0936C111.106 30.7528 111.01 30.3482 111.01 29.869C111.01 29.4111 111.095 29.0171 111.276 28.6657C111.457 28.325 111.702 28.0481 112.022 27.8564C112.341 27.6647 112.714 27.5689 113.129 27.5689C113.534 27.5689 113.885 27.6541 114.173 27.8351C114.46 28.0161 114.684 28.2717 114.844 28.6018C115.003 28.9319 115.089 29.3259 115.089 29.7838V29.9542H111.958L111.969 29.3685H114.45L114.152 29.6667C114.162 29.2407 114.077 28.9213 113.907 28.6976C113.736 28.474 113.491 28.3675 113.161 28.3675C112.81 28.3675 112.544 28.4953 112.352 28.7402C112.16 28.9852 112.064 29.3366 112.064 29.7944C112.064 30.3162 112.171 30.6996 112.384 30.9551C112.597 31.2 112.927 31.3278 113.364 31.3278C113.598 31.3278 113.832 31.2852 114.066 31.2107C114.301 31.1361 114.514 31.019 114.705 30.8699L115.014 31.6047Z" fill="#85A33D"/>
<path d="M117.634 32.1584C116.835 32.1584 116.196 31.9773 115.727 31.6047L116.036 30.838C116.271 31.0083 116.526 31.1468 116.792 31.232C117.069 31.3171 117.346 31.3597 117.644 31.3597C117.91 31.3597 118.113 31.3171 118.251 31.232C118.39 31.1468 118.464 31.019 118.464 30.8699C118.464 30.7315 118.411 30.625 118.315 30.5505C118.219 30.4759 118.049 30.4014 117.804 30.3481L117.069 30.1778C116.665 30.0926 116.366 29.9435 116.164 29.7412C115.962 29.5388 115.866 29.2726 115.866 28.9532C115.866 28.687 115.94 28.4527 116.09 28.2397C116.239 28.0268 116.452 27.867 116.728 27.7606C117.005 27.6434 117.314 27.5902 117.676 27.5902C117.985 27.5902 118.294 27.6328 118.581 27.7286C118.869 27.8244 119.124 27.9629 119.337 28.1439L119.029 28.8893C118.805 28.7189 118.581 28.5911 118.358 28.5166C118.123 28.4314 117.9 28.3995 117.676 28.3995C117.431 28.3995 117.229 28.4421 117.09 28.5379C116.952 28.6337 116.878 28.7615 116.878 28.9212C116.878 29.049 116.92 29.1555 117.005 29.23C117.09 29.3046 117.24 29.3685 117.442 29.4111L118.187 29.5921C118.624 29.6879 118.943 29.837 119.146 30.0393C119.348 30.2416 119.444 30.5185 119.444 30.8593C119.444 31.2639 119.284 31.5834 118.954 31.8176C118.624 32.0519 118.198 32.1584 117.634 32.1584Z" fill="#85A33D"/>
<path d="M122.851 32.0945V25.8864H125.545C126.216 25.8864 126.738 26.0461 127.111 26.3656C127.483 26.685 127.664 27.1323 127.664 27.686C127.664 28.2397 127.473 28.6763 127.1 29.0064C126.727 29.3365 126.206 29.4962 125.545 29.4962H123.98V32.0945H122.851ZM123.98 28.6337H125.418C125.812 28.6337 126.11 28.5485 126.301 28.3888C126.493 28.2291 126.589 27.9948 126.589 27.6967C126.589 27.3985 126.493 27.1642 126.301 27.0045C126.11 26.8448 125.812 26.7596 125.407 26.7596H123.969V28.6337H123.98Z" fill="#85A33D"/>
<path d="M129.901 32.0945L127.995 27.6967H129.134L130.518 31.1361H130.273L131.69 27.6967H132.776L130.848 32.0945H129.901Z" fill="#85A33D"/>
<path d="M132.925 28.506V27.686H136.034V28.506H132.925ZM136.023 31.1894V32.0519C135.906 32.0945 135.789 32.1158 135.683 32.1371C135.576 32.1584 135.448 32.1584 135.321 32.1584C134.831 32.1584 134.448 32.0199 134.171 31.7431C133.904 31.4662 133.766 31.0616 133.766 30.5398V26.6212L134.852 26.2591V30.4866C134.852 30.6889 134.884 30.838 134.948 30.9551C135.012 31.0722 135.097 31.1468 135.204 31.2C135.31 31.2426 135.427 31.2746 135.566 31.2746C135.64 31.2746 135.715 31.2639 135.789 31.2533C135.853 31.2213 135.938 31.2107 136.023 31.1894Z" fill="#85A33D"/>
<path d="M136.843 30.8699H138.068V32.0945H136.843V30.8699Z" fill="#85A33D"/>
<path d="M141.614 32.0945V25.8864H142.743V31.1681H145.639V32.0945H141.614V32.0945Z" fill="#85A33D"/>
<path d="M145.628 28.506V27.686H148.738V28.506H145.628ZM148.738 31.1894V32.0519C148.621 32.0945 148.503 32.1158 148.397 32.1371C148.291 32.1584 148.163 32.1584 148.035 32.1584C147.545 32.1584 147.162 32.0199 146.885 31.7431C146.619 31.4662 146.48 31.0616 146.48 30.5398V26.6212L147.566 26.2591V30.4866C147.566 30.6889 147.598 30.838 147.662 30.9551C147.726 31.0722 147.811 31.1468 147.918 31.2C148.024 31.2426 148.141 31.2746 148.28 31.2746C148.354 31.2746 148.429 31.2639 148.503 31.2533C148.567 31.2213 148.653 31.2107 148.738 31.1894Z" fill="#85A33D"/>
<path d="M153.7 32.0945H152.624V30.9764L152.731 31.1361C152.635 31.4662 152.443 31.7111 152.167 31.8921C151.89 32.0732 151.57 32.1583 151.198 32.1583C150.814 32.1583 150.473 32.0625 150.186 31.8708C149.888 31.6792 149.664 31.413 149.504 31.0616C149.345 30.7102 149.26 30.3055 149.26 29.8476C149.26 29.3897 149.334 28.9851 149.504 28.6443C149.664 28.3036 149.888 28.0374 150.186 27.8457C150.484 27.6647 150.825 27.5689 151.208 27.5689C151.581 27.5689 151.9 27.6647 152.177 27.8457C152.454 28.0267 152.646 28.2823 152.742 28.5911L152.624 28.7189V25.6628H153.711V32.0945H153.7ZM151.496 31.3171C151.858 31.3171 152.135 31.1893 152.337 30.9444C152.539 30.6995 152.635 30.3375 152.635 29.8689C152.635 29.411 152.539 29.0596 152.337 28.8041C152.135 28.5592 151.858 28.4314 151.496 28.4314C151.134 28.4314 150.846 28.5592 150.644 28.8041C150.442 29.049 150.335 29.4004 150.335 29.8583C150.335 30.3268 150.442 30.6889 150.644 30.9444C150.846 31.1893 151.123 31.3171 151.496 31.3171Z" fill="#85A33D"/>
<path d="M154.775 30.8699H156V32.0945H154.775V30.8699Z" fill="#85A33D"/>
</svg>
