<svg width="156" height="40" viewBox="0 0 156 40" fill="none" xmlns="http://www.w3.org/2000/svg">
<path d="M33.9639 29.7188C33.0723 29.7188 32.4454 29.0501 32.4454 28.1864V14.0882C32.4454 13.1966 33.0723 12.5558 33.9639 12.5558H40.9294C44.1753 12.5558 45.9446 14.7569 45.9446 17.2923C45.9446 18.4068 45.6241 19.4934 44.5793 20.4129C46.5436 21.1791 47.4073 22.6976 47.4073 24.5365C47.4073 27.3923 45.4709 29.7188 41.7513 29.7188H33.9639ZM40.9294 15.5788H35.6913V19.2705H40.9294C42.0021 19.2705 42.6708 18.6018 42.6708 17.2923C42.6708 16.4704 42.0021 15.5788 40.9294 15.5788ZM35.7052 26.6818H41.7513C44.635 26.6818 44.635 22.2936 41.7513 22.2936C39.8706 22.2936 37.6556 22.2936 35.7052 22.2936V26.6818Z" fill="#3792E5"/>
<path d="M50.3467 14.0325C50.3467 13.2105 51.0433 12.514 51.907 12.514C52.7011 12.514 53.3698 13.2105 53.3698 14.0325V26.4589H60.1124C62.5364 26.4589 62.5921 29.7049 60.1124 29.7049H51.907C51.0433 29.7049 50.3467 29.078 50.3467 28.1864V14.0325V14.0325Z" fill="#3792E5"/>
<path d="M75.1997 14.1857C75.1997 11.9846 78.4456 11.8035 78.4456 14.1857V23.1712C78.4456 32.4493 63.4837 32.4493 63.4837 23.1712V14.1857C63.4837 11.9567 66.7296 11.8592 66.7296 14.1857V23.1712C66.7296 28.061 75.1858 28.3535 75.1858 23.1712V14.1857H75.1997Z" fill="#3792E5"/>
<path d="M83.4329 29.7188C82.5692 29.7188 81.9005 29.0501 81.9005 28.1864V14.0882C81.9005 13.1966 82.5692 12.5558 83.4329 12.5558H92.3349C94.6195 12.5558 94.5638 15.7738 92.3349 15.7738H85.1882V19.4934H91.4433C93.6444 19.4934 93.6444 22.7393 91.4433 22.7393H85.1882V26.4589H92.7528C95.0096 26.4589 95.1768 29.7049 92.7528 29.7049H83.4329V29.7188Z" fill="#3792E5"/>
<path d="M96.8764 16.2754C97.4476 11.4692 104.72 10.5915 108.133 13.2245C109.818 14.5897 108.035 16.749 106.545 15.6485C104.706 14.4783 100.54 13.935 100.025 16.5122C99.3562 20.5801 110.139 18.2536 109.972 24.843C109.804 31.1398 100.666 31.293 97.2526 28.465C96.4306 27.7964 96.4585 26.7097 96.9043 26.041C97.5451 25.4002 98.2695 25.1773 99.1054 25.8739C101.139 27.267 106.377 28.2979 106.74 24.7872C106.433 21.1095 96.1102 23.3106 96.8764 16.2754Z" fill="#3792E5"/>
<path d="M113.009 14.0325C113.009 11.9985 116.282 11.9289 116.282 14.0325V28.2003C116.282 30.2621 113.009 30.3039 113.009 28.2003V14.0325Z" fill="#3792E5"/>
<path d="M119.988 14.2832C119.988 13.3916 120.183 12.5279 121.479 12.5279C122.37 12.5279 122.565 12.7508 123.234 13.3916L131.439 23.6588V14.0324C131.439 13.2105 132.164 12.3189 133 12.3189C133.891 12.3189 134.755 13.2105 134.755 14.0324V27.9913C134.755 29.078 134.086 29.5098 133.445 29.7048C132.582 29.7048 132.15 29.5098 131.439 28.8411L123.234 18.4207V27.9913C123.234 29.078 122.565 29.7048 121.674 29.7048C120.782 29.7048 119.988 29.078 119.988 27.9913V14.2832V14.2832Z" fill="#3792E5"/>
<path d="M154.3 26.8908L154.69 27.3645C156.334 28.8551 154.189 31.2791 152.531 29.7188L151.681 29.0501C150.399 29.9417 148.881 30.3596 146.875 30.3596C142.514 30.3596 137.527 27.3645 137.527 21.2627C137.527 15.1609 142.487 12.0543 146.875 12.0543C151.486 12.0543 156 15.1609 156 21.2627C156.014 23.617 155.415 25.3445 154.3 26.8908ZM152.81 21.2487C152.81 17.3063 149.703 15.3002 146.875 15.3002C143.824 15.3002 140.815 17.3063 140.815 21.2487C140.815 24.2439 143.364 27.0998 146.875 27.0998C147.766 27.0998 148.63 26.8769 149.508 26.654L146.68 24.0489C145.37 22.4607 147.446 20.2039 149.104 21.6667L151.904 24.4668C152.545 23.617 152.81 22.5443 152.81 21.2487Z" fill="#3792E5"/>
<path d="M18.9601 13.9589V14.0982C17.1909 11.5488 14.3908 9.76566 11.0473 9.76566C7.70386 9.76566 4.90373 11.5488 3.13448 14.0982V0L0 3.14842L0.0417931 28.4054L3.14841 25.2988V25.0202C4.91766 27.5695 7.7178 29.3527 11.0612 29.3527C14.4047 29.3527 17.2188 27.5695 18.988 24.9923L19.0019 39.2159L22.1086 36.1093V10.8105L18.9601 13.9589ZM11.0612 26.2182C7.38345 26.2182 4.40221 23.237 4.40221 19.5592C4.40221 15.8814 7.38345 12.9001 11.0612 12.9001C14.739 12.9001 17.7203 15.8814 17.7203 19.5592C17.7064 23.237 14.739 26.2182 11.0612 26.2182Z" fill="url(#paint0_linear)"/>
<defs>
<linearGradient id="paint0_linear" x1="4.70659e-07" y1="3.48276" x2="22.2897" y2="36.2207" gradientUnits="userSpaceOnUse">
<stop stop-color="#3792E6"/>
<stop offset="1" stop-color="#1FF3A2"/>
</linearGradient>
</defs>
</svg>
