<svg width="32" height="32" viewBox="0 0 32 32" fill="none" xmlns="http://www.w3.org/2000/svg">
<path fill-rule="evenodd" clip-rule="evenodd" d="M16 2C8.27116 2 2 8.27116 2 16C2 23.7288 8.27116 30 16 30C23.7137 30 30 23.7288 30 16C30 8.27116 23.7137 2 16 2ZM25.2473 8.45336C26.9176 10.4881 27.9197 13.0846 27.9501 15.8937C27.5553 15.8178 23.6074 15.013 19.6291 15.5141C19.538 15.3167 19.462 15.1041 19.3709 14.8915C19.128 14.3145 18.8547 13.7223 18.5813 13.1605C22.9848 11.3688 24.9891 8.78742 25.2473 8.45336ZM16 4.06508C19.0369 4.06508 21.8156 5.2039 23.9262 7.07158C23.7137 7.37527 21.9067 9.7896 17.6551 11.3839C15.6963 7.78525 13.5249 4.83948 13.1909 4.38395C14.0868 4.17137 15.0282 4.06508 16 4.06508ZM10.9132 5.18872C11.2321 5.61388 13.3579 8.57485 15.3471 12.0976C9.75922 13.5857 4.8243 13.5553 4.29284 13.5553C5.06723 9.85033 7.57267 6.7679 10.9132 5.18872ZM4.03471 16.0152C4.03471 15.8937 4.03471 15.7722 4.03471 15.6508C4.55098 15.6659 10.3514 15.7419 16.3189 13.9501C16.6681 14.6182 16.987 15.3015 17.2907 15.9848C17.1388 16.0304 16.9718 16.0759 16.82 16.1215C10.6551 18.1106 7.37527 23.5466 7.10196 24.0022C5.2039 21.8915 4.03471 19.0824 4.03471 16.0152ZM16 27.9653C13.2365 27.9653 10.6855 27.0239 8.66593 25.4447C8.87854 25.0044 11.308 20.3275 18.0499 17.974C18.0803 17.9588 18.0954 17.9588 18.1258 17.9436C19.8113 22.3015 20.4946 25.9609 20.6768 27.0087C19.2343 27.6312 17.6551 27.9653 16 27.9653ZM22.666 25.9154C22.5445 25.1865 21.9067 21.6941 20.3427 17.397C24.0933 16.8048 27.3731 17.7766 27.7831 17.9132C27.2668 21.2386 25.3536 24.1085 22.666 25.9154Z" fill="#303030"/>
</svg>
