<svg width="200" height="64" viewBox="0 0 200 64" fill="none" xmlns="http://www.w3.org/2000/svg">
<rect x="1" y="1" width="198" height="62" rx="4" stroke="#4169E1" stroke-width="2"/>
<path d="M52.8125 37.7852C52.1953 38.5898 51.3398 39.1992 50.2461 39.6133C49.1523 40.0273 47.9102 40.2344 46.5195 40.2344C45.0898 40.2344 43.8242 39.9102 42.7227 39.2617C41.6211 38.6133 40.7695 37.6875 40.168 36.4844C39.5742 35.2734 39.2656 33.8633 39.2422 32.2539V30.918C39.2422 28.3398 39.8594 26.3281 41.0938 24.8828C42.3281 23.4297 44.0508 22.7031 46.2617 22.7031C48.1602 22.7031 49.668 23.1719 50.7852 24.1094C51.9023 25.0469 52.5742 26.3984 52.8008 28.1641H49.8945C49.5664 26.1094 48.375 25.082 46.3203 25.082C44.9922 25.082 43.9805 25.5625 43.2852 26.5234C42.5977 27.4766 42.2422 28.8789 42.2188 30.7305V32.043C42.2188 33.8867 42.6055 35.3203 43.3789 36.3438C44.1602 37.3594 45.2422 37.8672 46.625 37.8672C48.1406 37.8672 49.2188 37.5234 49.8594 36.8359V33.4961H46.3438V31.2461H52.8125V37.7852ZM61.3789 40.2344C59.5742 40.2344 58.1094 39.668 56.9844 38.5352C55.8672 37.3945 55.3086 35.8789 55.3086 33.9883V33.6367C55.3086 32.3711 55.5508 31.2422 56.0352 30.25C56.5273 29.25 57.2148 28.4727 58.0977 27.918C58.9805 27.3633 59.9648 27.0859 61.0508 27.0859C62.7773 27.0859 64.1094 27.6367 65.0469 28.7383C65.9922 29.8398 66.4648 31.3984 66.4648 33.4141V34.5625H58.1797C58.2656 35.6094 58.6133 36.4375 59.2227 37.0469C59.8398 37.6562 60.6133 37.9609 61.543 37.9609C62.8477 37.9609 63.9102 37.4336 64.7305 36.3789L66.2656 37.8438C65.7578 38.6016 65.0781 39.1914 64.2266 39.6133C63.3828 40.0273 62.4336 40.2344 61.3789 40.2344ZM61.0391 29.3711C60.2578 29.3711 59.625 29.6445 59.1406 30.1914C58.6641 30.7383 58.3594 31.5 58.2266 32.4766H63.6523V32.2656C63.5898 31.3125 63.3359 30.5938 62.8906 30.1094C62.4453 29.6172 61.8281 29.3711 61.0391 29.3711ZM72.2539 24.2383V27.3203H74.4922V29.4297H72.2539V36.5078C72.2539 36.9922 72.3477 37.3438 72.5352 37.5625C72.7305 37.7734 73.0742 37.8789 73.5664 37.8789C73.8945 37.8789 74.2266 37.8398 74.5625 37.7617V39.9648C73.9141 40.1445 73.2891 40.2344 72.6875 40.2344C70.5 40.2344 69.4062 39.0273 69.4062 36.6133V29.4297H67.3203V27.3203H69.4062V24.2383H72.2539ZM89.293 29.9219C88.918 29.8594 88.5312 29.8281 88.1328 29.8281C86.8281 29.8281 85.9492 30.3281 85.4961 31.3281V40H82.6484V27.3203H85.3672L85.4375 28.7383C86.125 27.6367 87.0781 27.0859 88.2969 27.0859C88.7031 27.0859 89.0391 27.1406 89.3047 27.25L89.293 29.9219ZM96.4414 40.2344C94.6367 40.2344 93.1719 39.668 92.0469 38.5352C90.9297 37.3945 90.3711 35.8789 90.3711 33.9883V33.6367C90.3711 32.3711 90.6133 31.2422 91.0977 30.25C91.5898 29.25 92.2773 28.4727 93.1602 27.918C94.043 27.3633 95.0273 27.0859 96.1133 27.0859C97.8398 27.0859 99.1719 27.6367 100.109 28.7383C101.055 29.8398 101.527 31.3984 101.527 33.4141V34.5625H93.2422C93.3281 35.6094 93.6758 36.4375 94.2852 37.0469C94.9023 37.6562 95.6758 37.9609 96.6055 37.9609C97.9102 37.9609 98.9727 37.4336 99.793 36.3789L101.328 37.8438C100.82 38.6016 100.141 39.1914 99.2891 39.6133C98.4453 40.0273 97.4961 40.2344 96.4414 40.2344ZM96.1016 29.3711C95.3203 29.3711 94.6875 29.6445 94.2031 30.1914C93.7266 30.7383 93.4219 31.5 93.2891 32.4766H98.7148V32.2656C98.6523 31.3125 98.3984 30.5938 97.9531 30.1094C97.5078 29.6172 96.8906 29.3711 96.1016 29.3711ZM110.855 36.5547C110.855 36.0469 110.645 35.6602 110.223 35.3945C109.809 35.1289 109.117 34.8945 108.148 34.6914C107.18 34.4883 106.371 34.2305 105.723 33.918C104.301 33.2305 103.59 32.2344 103.59 30.9297C103.59 29.8359 104.051 28.9219 104.973 28.1875C105.895 27.4531 107.066 27.0859 108.488 27.0859C110.004 27.0859 111.227 27.4609 112.156 28.2109C113.094 28.9609 113.562 29.9336 113.562 31.1289H110.715C110.715 30.582 110.512 30.1289 110.105 29.7695C109.699 29.4023 109.16 29.2188 108.488 29.2188C107.863 29.2188 107.352 29.3633 106.953 29.6523C106.562 29.9414 106.367 30.3281 106.367 30.8125C106.367 31.25 106.551 31.5898 106.918 31.832C107.285 32.0742 108.027 32.3203 109.145 32.5703C110.262 32.8125 111.137 33.1055 111.77 33.4492C112.41 33.7852 112.883 34.1914 113.188 34.668C113.5 35.1445 113.656 35.7227 113.656 36.4023C113.656 37.543 113.184 38.4688 112.238 39.1797C111.293 39.8828 110.055 40.2344 108.523 40.2344C107.484 40.2344 106.559 40.0469 105.746 39.6719C104.934 39.2969 104.301 38.7812 103.848 38.125C103.395 37.4688 103.168 36.7617 103.168 36.0039H105.934C105.973 36.6758 106.227 37.1953 106.695 37.5625C107.164 37.9219 107.785 38.1016 108.559 38.1016C109.309 38.1016 109.879 37.9609 110.27 37.6797C110.66 37.3906 110.855 37.0156 110.855 36.5547ZM123.828 38.7578C122.992 39.7422 121.805 40.2344 120.266 40.2344C118.891 40.2344 117.848 39.832 117.137 39.0273C116.434 38.2227 116.082 37.0586 116.082 35.5352V27.3203H118.93V35.5C118.93 37.1094 119.598 37.9141 120.934 37.9141C122.316 37.9141 123.25 37.418 123.734 36.4258V27.3203H126.582V40H123.898L123.828 38.7578ZM132.16 27.3203L132.242 28.6445C133.133 27.6055 134.352 27.0859 135.898 27.0859C137.594 27.0859 138.754 27.7344 139.379 29.0312C140.301 27.7344 141.598 27.0859 143.27 27.0859C144.668 27.0859 145.707 27.4727 146.387 28.2461C147.074 29.0195 147.426 30.1602 147.441 31.668V40H144.594V31.75C144.594 30.9453 144.418 30.3555 144.066 29.9805C143.715 29.6055 143.133 29.418 142.32 29.418C141.672 29.418 141.141 29.5938 140.727 29.9453C140.32 30.2891 140.035 30.7422 139.871 31.3047L139.883 40H137.035V31.6562C136.996 30.1641 136.234 29.418 134.75 29.418C133.609 29.418 132.801 29.8828 132.324 30.8125V40H129.477V27.3203H132.16ZM155.949 40.2344C154.145 40.2344 152.68 39.668 151.555 38.5352C150.438 37.3945 149.879 35.8789 149.879 33.9883V33.6367C149.879 32.3711 150.121 31.2422 150.605 30.25C151.098 29.25 151.785 28.4727 152.668 27.918C153.551 27.3633 154.535 27.0859 155.621 27.0859C157.348 27.0859 158.68 27.6367 159.617 28.7383C160.562 29.8398 161.035 31.3984 161.035 33.4141V34.5625H152.75C152.836 35.6094 153.184 36.4375 153.793 37.0469C154.41 37.6562 155.184 37.9609 156.113 37.9609C157.418 37.9609 158.48 37.4336 159.301 36.3789L160.836 37.8438C160.328 38.6016 159.648 39.1914 158.797 39.6133C157.953 40.0273 157.004 40.2344 155.949 40.2344ZM155.609 29.3711C154.828 29.3711 154.195 29.6445 153.711 30.1914C153.234 30.7383 152.93 31.5 152.797 32.4766H158.223V32.2656C158.16 31.3125 157.906 30.5938 157.461 30.1094C157.016 29.6172 156.398 29.3711 155.609 29.3711Z" fill="#4169E1"/>
</svg>
