<svg width="32" height="32" viewBox="0 0 32 32" fill="none" xmlns="http://www.w3.org/2000/svg">
<path d="M27.9273 2H4.06653C2.92632 2 2 2.90377 2 4.01811V27.9792C2 29.0945 2.92632 29.9996 4.06653 29.9996H27.9273C29.0694 29.9996 30 29.0945 30 27.9792V4.01811C30 2.90377 29.0694 2 27.9273 2Z" fill="#303030"/>
<path d="M8.22855 5.85481C9.55659 5.85481 10.6354 6.93377 10.6354 8.262C10.6354 9.5912 9.55659 10.6705 8.22855 10.6705C6.89779 10.6705 5.82039 9.5912 5.82039 8.262C5.82039 6.93377 6.89779 5.85481 8.22855 5.85481ZM6.15133 12.4971H10.3042V25.8594H6.15133V12.4971Z" fill="white"/>
<path d="M12.909 12.4971H16.8929V14.3228H16.9481C17.5023 13.2724 18.8571 12.1646 20.8774 12.1646C25.0828 12.1646 25.8592 14.9321 25.8592 18.5299V25.8594H21.7092V19.3613C21.7092 17.811 21.6806 15.818 19.5511 15.818C17.3899 15.818 17.0589 17.5062 17.0589 19.2491V25.8594H12.909V12.4971Z" fill="white"/>
</svg>
