<svg width="32" height="32" viewBox="0 0 32 32" fill="none" xmlns="http://www.w3.org/2000/svg">
<path d="M9.89087 30.9999C8.87273 30.9999 7.90471 30.5989 7.16538 29.8703C6.41352 29.1303 6 28.1498 6 27.1091V5.18425C6 2.87729 7.87714 1.00015 10.1841 1.00015H16.984C22.4588 1.00015 26.9129 5.45429 26.9129 10.9297C26.9129 13.5894 25.8823 16.0849 24.0108 17.9564C22.1393 19.8279 19.6437 20.8586 16.984 20.8586H13.7817V27.1091C13.7817 28.1529 13.3782 29.1309 12.6452 29.8634C11.9127 30.5964 10.9341 30.9999 9.89087 30.9999ZM10.1841 3.50635C9.25868 3.50635 8.5062 4.25883 8.5062 5.18425V27.1091C8.5062 27.8597 9.14026 28.4937 9.89087 28.4937C10.6678 28.4937 11.2755 27.8854 11.2755 27.1091V18.3524H16.984C21.0773 18.3524 24.4068 15.0223 24.4068 10.9297C24.4068 6.83645 21.0773 3.50635 16.984 3.50635H10.1841Z" fill="#4169E1"/>
<path d="M26.9129 10.9295H24.4067C24.4067 6.8363 21.0772 3.5062 16.984 3.5062V1C22.4587 1 26.9129 5.45414 26.9129 10.9295Z" fill="#0352CC"/>
<path d="M9.89087 30.9997C8.87273 30.9997 7.90471 30.5987 7.16538 29.8701C6.41352 29.1301 6 28.1496 6 27.1089V19.6053H8.5062V27.1089C8.5062 27.8595 9.14026 28.4935 9.89087 28.4935V30.9997Z" fill="#0352CC"/>
<path d="M13.9069 16.2359C15.4018 16.2359 16.6136 15.0241 16.6136 13.5292C16.6136 12.0344 15.4018 10.8225 13.9069 10.8225C12.4121 10.8225 11.2002 12.0344 11.2002 13.5292C11.2002 15.0241 12.4121 16.2359 13.9069 16.2359Z" fill="#0352CC"/>
<path d="M19.5706 11.7251C20.7457 11.7251 21.6984 10.7725 21.6984 9.59734C21.6984 8.42221 20.7457 7.46958 19.5706 7.46958C18.3955 7.46958 17.4429 8.42221 17.4429 9.59734C17.4429 10.7725 18.3955 11.7251 19.5706 11.7251Z" fill="#4169E1"/>
<path d="M13.9069 8.89119C14.7775 8.89119 15.4833 8.18541 15.4833 7.31479C15.4833 6.44417 14.7775 5.7384 13.9069 5.7384C13.0363 5.7384 12.3305 6.44417 12.3305 7.31479C12.3305 8.18541 13.0363 8.89119 13.9069 8.89119Z" fill="#4169E1"/>
</svg>
