<svg width="28" height="28" viewBox="0 0 28 28" fill="none" xmlns="http://www.w3.org/2000/svg">
<path d="M5.10014 8.51555C5.12913 8.22912 5.0199 7.94602 4.80602 7.75324L2.62737 5.12871V4.73666H9.39208L14.6208 16.204L19.2178 4.73666H25.6666V5.12871L23.8038 6.9147C23.6433 7.03711 23.5636 7.2383 23.5969 7.43743V20.5601C23.5636 20.7592 23.6433 20.9604 23.8038 21.0828L25.623 22.8688V23.2608H16.4727V22.8688L18.3572 21.0392C18.5424 20.8541 18.5424 20.7997 18.5424 20.5165V9.90949L13.3028 23.2173H12.5947L6.49447 9.90949V18.8285C6.44361 19.2035 6.56815 19.581 6.83216 19.8522L9.28314 22.8252V23.2173H2.33325V22.8252L4.78423 19.8522C5.04632 19.5806 5.1636 19.2006 5.10014 18.8285V8.51555Z" fill="#2E3A59"/>
</svg>
