<svg width="32" height="32" viewBox="0 0 32 32" fill="none" xmlns="http://www.w3.org/2000/svg">
<path d="M5.32026 9.53467C5.35505 9.19095 5.22398 8.85122 4.96732 8.61989L2.35294 5.47046V5H10.4706L16.7451 18.7608L22.2614 5H30V5.47046L27.7647 7.61364C27.572 7.76053 27.4764 8.00196 27.5163 8.24091V23.9881C27.4764 24.227 27.572 24.4685 27.7647 24.6154L29.9477 26.7586V27.229H18.9673V26.7586L21.2288 24.5631C21.451 24.3409 21.451 24.2756 21.451 23.9358V11.2074L15.1634 27.1767H14.3137L6.99346 11.2074V21.9103C6.93243 22.3602 7.08188 22.8133 7.39869 23.1387L10.3399 26.7063V27.1767H2V26.7063L4.94118 23.1387C5.25569 22.8127 5.39642 22.3567 5.32026 21.9103V9.53467Z" fill="#00AB6C"/>
</svg>
