<svg width="320" height="64" viewBox="0 0 320 64" fill="none" xmlns="http://www.w3.org/2000/svg">
<rect x="1" y="1" width="318" height="62" rx="4" stroke="#4169E1" stroke-width="2"/>
<path d="M51.6523 35.6055C51.6523 34.8555 51.3867 34.2773 50.8555 33.8711C50.332 33.4648 49.3828 33.0547 48.0078 32.6406C46.6328 32.2266 45.5391 31.7656 44.7266 31.2578C43.1719 30.2812 42.3945 29.0078 42.3945 27.4375C42.3945 26.0625 42.9531 24.9297 44.0703 24.0391C45.1953 23.1484 46.6523 22.7031 48.4414 22.7031C49.6289 22.7031 50.6875 22.9219 51.6172 23.3594C52.5469 23.7969 53.2773 24.4219 53.8086 25.2344C54.3398 26.0391 54.6055 26.9336 54.6055 27.918H51.6523C51.6523 27.0273 51.3711 26.332 50.8086 25.832C50.2539 25.3242 49.457 25.0703 48.418 25.0703C47.4492 25.0703 46.6953 25.2773 46.1562 25.6914C45.625 26.1055 45.3594 26.6836 45.3594 27.4258C45.3594 28.0508 45.6484 28.5742 46.2266 28.9961C46.8047 29.4102 47.7578 29.8164 49.0859 30.2148C50.4141 30.6055 51.4805 31.0547 52.2852 31.5625C53.0898 32.0625 53.6797 32.6406 54.0547 33.2969C54.4297 33.9453 54.6172 34.707 54.6172 35.582C54.6172 37.0039 54.0703 38.1367 52.9766 38.9805C51.8906 39.8164 50.4141 40.2344 48.5469 40.2344C47.3125 40.2344 46.1758 40.0078 45.1367 39.5547C44.1055 39.0938 43.3008 38.4609 42.7227 37.6562C42.1523 36.8516 41.8672 35.9141 41.8672 34.8438H44.832C44.832 35.8125 45.1523 36.5625 45.793 37.0938C46.4336 37.625 47.3516 37.8906 48.5469 37.8906C49.5781 37.8906 50.3516 37.6836 50.8672 37.2695C51.3906 36.8477 51.6523 36.293 51.6523 35.6055ZM62.5273 40.2344C60.7227 40.2344 59.2578 39.668 58.1328 38.5352C57.0156 37.3945 56.457 35.8789 56.457 33.9883V33.6367C56.457 32.3711 56.6992 31.2422 57.1836 30.25C57.6758 29.25 58.3633 28.4727 59.2461 27.918C60.1289 27.3633 61.1133 27.0859 62.1992 27.0859C63.9258 27.0859 65.2578 27.6367 66.1953 28.7383C67.1406 29.8398 67.6133 31.3984 67.6133 33.4141V34.5625H59.3281C59.4141 35.6094 59.7617 36.4375 60.3711 37.0469C60.9883 37.6562 61.7617 37.9609 62.6914 37.9609C63.9961 37.9609 65.0586 37.4336 65.8789 36.3789L67.4141 37.8438C66.9062 38.6016 66.2266 39.1914 65.375 39.6133C64.5312 40.0273 63.582 40.2344 62.5273 40.2344ZM62.1875 29.3711C61.4062 29.3711 60.7734 29.6445 60.2891 30.1914C59.8125 30.7383 59.5078 31.5 59.375 32.4766H64.8008V32.2656C64.7383 31.3125 64.4844 30.5938 64.0391 30.1094C63.5938 29.6172 62.9766 29.3711 62.1875 29.3711ZM75.418 40.2344C73.6133 40.2344 72.1484 39.668 71.0234 38.5352C69.9062 37.3945 69.3477 35.8789 69.3477 33.9883V33.6367C69.3477 32.3711 69.5898 31.2422 70.0742 30.25C70.5664 29.25 71.2539 28.4727 72.1367 27.918C73.0195 27.3633 74.0039 27.0859 75.0898 27.0859C76.8164 27.0859 78.1484 27.6367 79.0859 28.7383C80.0312 29.8398 80.5039 31.3984 80.5039 33.4141V34.5625H72.2188C72.3047 35.6094 72.6523 36.4375 73.2617 37.0469C73.8789 37.6562 74.6523 37.9609 75.582 37.9609C76.8867 37.9609 77.9492 37.4336 78.7695 36.3789L80.3047 37.8438C79.7969 38.6016 79.1172 39.1914 78.2656 39.6133C77.4219 40.0273 76.4727 40.2344 75.418 40.2344ZM75.0781 29.3711C74.2969 29.3711 73.6641 29.6445 73.1797 30.1914C72.7031 30.7383 72.3984 31.5 72.2656 32.4766H77.6914V32.2656C77.6289 31.3125 77.375 30.5938 76.9297 30.1094C76.4844 29.6172 75.8672 29.3711 75.0781 29.3711ZM91.3789 27.3203L91.4609 28.6445C92.3516 27.6055 93.5703 27.0859 95.1172 27.0859C96.8125 27.0859 97.9727 27.7344 98.5977 29.0312C99.5195 27.7344 100.816 27.0859 102.488 27.0859C103.887 27.0859 104.926 27.4727 105.605 28.2461C106.293 29.0195 106.645 30.1602 106.66 31.668V40H103.812V31.75C103.812 30.9453 103.637 30.3555 103.285 29.9805C102.934 29.6055 102.352 29.418 101.539 29.418C100.891 29.418 100.359 29.5938 99.9453 29.9453C99.5391 30.2891 99.2539 30.7422 99.0898 31.3047L99.1016 40H96.2539V31.6562C96.2148 30.1641 95.4531 29.418 93.9688 29.418C92.8281 29.418 92.0195 29.8828 91.543 30.8125V40H88.6953V27.3203H91.3789ZM114.02 35.9219L116.598 27.3203H119.633L114.594 41.9219C113.82 44.0547 112.508 45.1211 110.656 45.1211C110.242 45.1211 109.785 45.0508 109.285 44.9102V42.707L109.824 42.7422C110.543 42.7422 111.082 42.6094 111.441 42.3438C111.809 42.0859 112.098 41.6484 112.309 41.0312L112.719 39.9414L108.266 27.3203H111.336L114.02 35.9219ZM126.723 33.543C126.723 32.3008 126.969 31.1836 127.461 30.1914C127.953 29.1914 128.645 28.4258 129.535 27.8945C130.426 27.3555 131.449 27.0859 132.605 27.0859C134.316 27.0859 135.703 27.6367 136.766 28.7383C137.836 29.8398 138.414 31.3008 138.5 33.1211L138.512 33.7891C138.512 35.0391 138.27 36.1562 137.785 37.1406C137.309 38.125 136.621 38.8867 135.723 39.4258C134.832 39.9648 133.801 40.2344 132.629 40.2344C130.84 40.2344 129.406 39.6406 128.328 38.4531C127.258 37.2578 126.723 35.668 126.723 33.6836V33.543ZM129.57 33.7891C129.57 35.0938 129.84 36.1172 130.379 36.8594C130.918 37.5938 131.668 37.9609 132.629 37.9609C133.59 37.9609 134.336 37.5859 134.867 36.8359C135.406 36.0859 135.676 34.9883 135.676 33.543C135.676 32.2617 135.398 31.2461 134.844 30.4961C134.297 29.7461 133.551 29.3711 132.605 29.3711C131.676 29.3711 130.938 29.7422 130.391 30.4844C129.844 31.2188 129.57 32.3203 129.57 33.7891ZM144.488 24.2383V27.3203H146.727V29.4297H144.488V36.5078C144.488 36.9922 144.582 37.3438 144.77 37.5625C144.965 37.7734 145.309 37.8789 145.801 37.8789C146.129 37.8789 146.461 37.8398 146.797 37.7617V39.9648C146.148 40.1445 145.523 40.2344 144.922 40.2344C142.734 40.2344 141.641 39.0273 141.641 36.6133V29.4297H139.555V27.3203H141.641V24.2383H144.488ZM151.719 28.7031C152.648 27.625 153.824 27.0859 155.246 27.0859C157.949 27.0859 159.32 28.6289 159.359 31.7148V40H156.512V31.8203C156.512 30.9453 156.32 30.3281 155.938 29.9688C155.562 29.6016 155.008 29.418 154.273 29.418C153.133 29.418 152.281 29.9258 151.719 30.9414V40H148.871V22H151.719V28.7031ZM167.832 40.2344C166.027 40.2344 164.562 39.668 163.438 38.5352C162.32 37.3945 161.762 35.8789 161.762 33.9883V33.6367C161.762 32.3711 162.004 31.2422 162.488 30.25C162.98 29.25 163.668 28.4727 164.551 27.918C165.434 27.3633 166.418 27.0859 167.504 27.0859C169.23 27.0859 170.562 27.6367 171.5 28.7383C172.445 29.8398 172.918 31.3984 172.918 33.4141V34.5625H164.633C164.719 35.6094 165.066 36.4375 165.676 37.0469C166.293 37.6562 167.066 37.9609 167.996 37.9609C169.301 37.9609 170.363 37.4336 171.184 36.3789L172.719 37.8438C172.211 38.6016 171.531 39.1914 170.68 39.6133C169.836 40.0273 168.887 40.2344 167.832 40.2344ZM167.492 29.3711C166.711 29.3711 166.078 29.6445 165.594 30.1914C165.117 30.7383 164.812 31.5 164.68 32.4766H170.105V32.2656C170.043 31.3125 169.789 30.5938 169.344 30.1094C168.898 29.6172 168.281 29.3711 167.492 29.3711ZM181.777 29.9219C181.402 29.8594 181.016 29.8281 180.617 29.8281C179.312 29.8281 178.434 30.3281 177.98 31.3281V40H175.133V27.3203H177.852L177.922 28.7383C178.609 27.6367 179.562 27.0859 180.781 27.0859C181.188 27.0859 181.523 27.1406 181.789 27.25L181.777 29.9219ZM200.656 33.7891C200.656 35.75 200.211 37.3164 199.32 38.4883C198.43 39.6523 197.234 40.2344 195.734 40.2344C194.344 40.2344 193.23 39.7773 192.395 38.8633V44.875H189.547V27.3203H192.172L192.289 28.6094C193.125 27.5938 194.262 27.0859 195.699 27.0859C197.246 27.0859 198.457 27.6641 199.332 28.8203C200.215 29.9688 200.656 31.5664 200.656 33.6133V33.7891ZM197.82 33.543C197.82 32.2773 197.566 31.2734 197.059 30.5312C196.559 29.7891 195.84 29.418 194.902 29.418C193.738 29.418 192.902 29.8984 192.395 30.8594V36.4844C192.91 37.4688 193.754 37.9609 194.926 37.9609C195.832 37.9609 196.539 37.5977 197.047 36.8711C197.562 36.1367 197.82 35.0273 197.82 33.543ZM209.715 29.9219C209.34 29.8594 208.953 29.8281 208.555 29.8281C207.25 29.8281 206.371 30.3281 205.918 31.3281V40H203.07V27.3203H205.789L205.859 28.7383C206.547 27.6367 207.5 27.0859 208.719 27.0859C209.125 27.0859 209.461 27.1406 209.727 27.25L209.715 29.9219ZM210.559 33.543C210.559 32.3008 210.805 31.1836 211.297 30.1914C211.789 29.1914 212.48 28.4258 213.371 27.8945C214.262 27.3555 215.285 27.0859 216.441 27.0859C218.152 27.0859 219.539 27.6367 220.602 28.7383C221.672 29.8398 222.25 31.3008 222.336 33.1211L222.348 33.7891C222.348 35.0391 222.105 36.1562 221.621 37.1406C221.145 38.125 220.457 38.8867 219.559 39.4258C218.668 39.9648 217.637 40.2344 216.465 40.2344C214.676 40.2344 213.242 39.6406 212.164 38.4531C211.094 37.2578 210.559 35.668 210.559 33.6836V33.543ZM213.406 33.7891C213.406 35.0938 213.676 36.1172 214.215 36.8594C214.754 37.5938 215.504 37.9609 216.465 37.9609C217.426 37.9609 218.172 37.5859 218.703 36.8359C219.242 36.0859 219.512 34.9883 219.512 33.543C219.512 32.2617 219.234 31.2461 218.68 30.4961C218.133 29.7461 217.387 29.3711 216.441 29.3711C215.512 29.3711 214.773 29.7422 214.227 30.4844C213.68 31.2188 213.406 32.3203 213.406 33.7891ZM227.727 27.3203V41.125C227.727 42.4219 227.402 43.4102 226.754 44.0898C226.113 44.7773 225.172 45.1211 223.93 45.1211C223.406 45.1211 222.902 45.0547 222.418 44.9219V42.6719C222.715 42.7422 223.051 42.7773 223.426 42.7773C224.371 42.7773 224.855 42.2617 224.879 41.2305V27.3203H227.727ZM224.633 24.0273C224.633 23.5898 224.77 23.2266 225.043 22.9375C225.324 22.6484 225.723 22.5039 226.238 22.5039C226.754 22.5039 227.152 22.6484 227.434 22.9375C227.715 23.2266 227.855 23.5898 227.855 24.0273C227.855 24.457 227.715 24.8164 227.434 25.1055C227.152 25.3867 226.754 25.5273 226.238 25.5273C225.723 25.5273 225.324 25.3867 225.043 25.1055C224.77 24.8164 224.633 24.457 224.633 24.0273ZM236.363 40.2344C234.559 40.2344 233.094 39.668 231.969 38.5352C230.852 37.3945 230.293 35.8789 230.293 33.9883V33.6367C230.293 32.3711 230.535 31.2422 231.02 30.25C231.512 29.25 232.199 28.4727 233.082 27.918C233.965 27.3633 234.949 27.0859 236.035 27.0859C237.762 27.0859 239.094 27.6367 240.031 28.7383C240.977 29.8398 241.449 31.3984 241.449 33.4141V34.5625H233.164C233.25 35.6094 233.598 36.4375 234.207 37.0469C234.824 37.6562 235.598 37.9609 236.527 37.9609C237.832 37.9609 238.895 37.4336 239.715 36.3789L241.25 37.8438C240.742 38.6016 240.062 39.1914 239.211 39.6133C238.367 40.0273 237.418 40.2344 236.363 40.2344ZM236.023 29.3711C235.242 29.3711 234.609 29.6445 234.125 30.1914C233.648 30.7383 233.344 31.5 233.211 32.4766H238.637V32.2656C238.574 31.3125 238.32 30.5938 237.875 30.1094C237.43 29.6172 236.812 29.3711 236.023 29.3711ZM248.879 37.9609C249.59 37.9609 250.18 37.7539 250.648 37.3398C251.117 36.9258 251.367 36.4141 251.398 35.8047H254.082C254.051 36.5938 253.805 37.332 253.344 38.0195C252.883 38.6992 252.258 39.2383 251.469 39.6367C250.68 40.0352 249.828 40.2344 248.914 40.2344C247.141 40.2344 245.734 39.6602 244.695 38.5117C243.656 37.3633 243.137 35.7773 243.137 33.7539V33.4609C243.137 31.5312 243.652 29.9883 244.684 28.832C245.715 27.668 247.121 27.0859 248.902 27.0859C250.41 27.0859 251.637 27.5273 252.582 28.4102C253.535 29.2852 254.035 30.4375 254.082 31.8672H251.398C251.367 31.1406 251.117 30.543 250.648 30.0742C250.188 29.6055 249.598 29.3711 248.879 29.3711C247.957 29.3711 247.246 29.707 246.746 30.3789C246.246 31.043 245.992 32.0547 245.984 33.4141V33.8711C245.984 35.2461 246.23 36.2734 246.723 36.9531C247.223 37.625 247.941 37.9609 248.879 37.9609ZM259.801 24.2383V27.3203H262.039V29.4297H259.801V36.5078C259.801 36.9922 259.895 37.3438 260.082 37.5625C260.277 37.7734 260.621 37.8789 261.113 37.8789C261.441 37.8789 261.773 37.8398 262.109 37.7617V39.9648C261.461 40.1445 260.836 40.2344 260.234 40.2344C258.047 40.2344 256.953 39.0273 256.953 36.6133V29.4297H254.867V27.3203H256.953V24.2383H259.801ZM271.332 36.5547C271.332 36.0469 271.121 35.6602 270.699 35.3945C270.285 35.1289 269.594 34.8945 268.625 34.6914C267.656 34.4883 266.848 34.2305 266.199 33.918C264.777 33.2305 264.066 32.2344 264.066 30.9297C264.066 29.8359 264.527 28.9219 265.449 28.1875C266.371 27.4531 267.543 27.0859 268.965 27.0859C270.48 27.0859 271.703 27.4609 272.633 28.2109C273.57 28.9609 274.039 29.9336 274.039 31.1289H271.191C271.191 30.582 270.988 30.1289 270.582 29.7695C270.176 29.4023 269.637 29.2188 268.965 29.2188C268.34 29.2188 267.828 29.3633 267.43 29.6523C267.039 29.9414 266.844 30.3281 266.844 30.8125C266.844 31.25 267.027 31.5898 267.395 31.832C267.762 32.0742 268.504 32.3203 269.621 32.5703C270.738 32.8125 271.613 33.1055 272.246 33.4492C272.887 33.7852 273.359 34.1914 273.664 34.668C273.977 35.1445 274.133 35.7227 274.133 36.4023C274.133 37.543 273.66 38.4688 272.715 39.1797C271.77 39.8828 270.531 40.2344 269 40.2344C267.961 40.2344 267.035 40.0469 266.223 39.6719C265.41 39.2969 264.777 38.7812 264.324 38.125C263.871 37.4688 263.645 36.7617 263.645 36.0039H266.41C266.449 36.6758 266.703 37.1953 267.172 37.5625C267.641 37.9219 268.262 38.1016 269.035 38.1016C269.785 38.1016 270.355 37.9609 270.746 37.6797C271.137 37.3906 271.332 37.0156 271.332 36.5547Z" fill="#4169E1"/>
</svg>
