<svg width="320" height="64" viewBox="0 0 320 64" fill="none" xmlns="http://www.w3.org/2000/svg">
<rect width="320" height="64" rx="5" fill="#4169E1"/>
<path d="M52.6523 35.6055C52.6523 34.8555 52.3867 34.2773 51.8555 33.8711C51.332 33.4648 50.3828 33.0547 49.0078 32.6406C47.6328 32.2266 46.5391 31.7656 45.7266 31.2578C44.1719 30.2812 43.3945 29.0078 43.3945 27.4375C43.3945 26.0625 43.9531 24.9297 45.0703 24.0391C46.1953 23.1484 47.6523 22.7031 49.4414 22.7031C50.6289 22.7031 51.6875 22.9219 52.6172 23.3594C53.5469 23.7969 54.2773 24.4219 54.8086 25.2344C55.3398 26.0391 55.6055 26.9336 55.6055 27.918H52.6523C52.6523 27.0273 52.3711 26.332 51.8086 25.832C51.2539 25.3242 50.457 25.0703 49.418 25.0703C48.4492 25.0703 47.6953 25.2773 47.1562 25.6914C46.625 26.1055 46.3594 26.6836 46.3594 27.4258C46.3594 28.0508 46.6484 28.5742 47.2266 28.9961C47.8047 29.4102 48.7578 29.8164 50.0859 30.2148C51.4141 30.6055 52.4805 31.0547 53.2852 31.5625C54.0898 32.0625 54.6797 32.6406 55.0547 33.2969C55.4297 33.9453 55.6172 34.707 55.6172 35.582C55.6172 37.0039 55.0703 38.1367 53.9766 38.9805C52.8906 39.8164 51.4141 40.2344 49.5469 40.2344C48.3125 40.2344 47.1758 40.0078 46.1367 39.5547C45.1055 39.0938 44.3008 38.4609 43.7227 37.6562C43.1523 36.8516 42.8672 35.9141 42.8672 34.8438H45.832C45.832 35.8125 46.1523 36.5625 46.793 37.0938C47.4336 37.625 48.3516 37.8906 49.5469 37.8906C50.5781 37.8906 51.3516 37.6836 51.8672 37.2695C52.3906 36.8477 52.6523 36.293 52.6523 35.6055ZM63.5273 40.2344C61.7227 40.2344 60.2578 39.668 59.1328 38.5352C58.0156 37.3945 57.457 35.8789 57.457 33.9883V33.6367C57.457 32.3711 57.6992 31.2422 58.1836 30.25C58.6758 29.25 59.3633 28.4727 60.2461 27.918C61.1289 27.3633 62.1133 27.0859 63.1992 27.0859C64.9258 27.0859 66.2578 27.6367 67.1953 28.7383C68.1406 29.8398 68.6133 31.3984 68.6133 33.4141V34.5625H60.3281C60.4141 35.6094 60.7617 36.4375 61.3711 37.0469C61.9883 37.6562 62.7617 37.9609 63.6914 37.9609C64.9961 37.9609 66.0586 37.4336 66.8789 36.3789L68.4141 37.8438C67.9062 38.6016 67.2266 39.1914 66.375 39.6133C65.5312 40.0273 64.582 40.2344 63.5273 40.2344ZM63.1875 29.3711C62.4062 29.3711 61.7734 29.6445 61.2891 30.1914C60.8125 30.7383 60.5078 31.5 60.375 32.4766H65.8008V32.2656C65.7383 31.3125 65.4844 30.5938 65.0391 30.1094C64.5938 29.6172 63.9766 29.3711 63.1875 29.3711ZM76.418 40.2344C74.6133 40.2344 73.1484 39.668 72.0234 38.5352C70.9062 37.3945 70.3477 35.8789 70.3477 33.9883V33.6367C70.3477 32.3711 70.5898 31.2422 71.0742 30.25C71.5664 29.25 72.2539 28.4727 73.1367 27.918C74.0195 27.3633 75.0039 27.0859 76.0898 27.0859C77.8164 27.0859 79.1484 27.6367 80.0859 28.7383C81.0312 29.8398 81.5039 31.3984 81.5039 33.4141V34.5625H73.2188C73.3047 35.6094 73.6523 36.4375 74.2617 37.0469C74.8789 37.6562 75.6523 37.9609 76.582 37.9609C77.8867 37.9609 78.9492 37.4336 79.7695 36.3789L81.3047 37.8438C80.7969 38.6016 80.1172 39.1914 79.2656 39.6133C78.4219 40.0273 77.4727 40.2344 76.418 40.2344ZM76.0781 29.3711C75.2969 29.3711 74.6641 29.6445 74.1797 30.1914C73.7031 30.7383 73.3984 31.5 73.2656 32.4766H78.6914V32.2656C78.6289 31.3125 78.375 30.5938 77.9297 30.1094C77.4844 29.6172 76.8672 29.3711 76.0781 29.3711ZM92.3789 27.3203L92.4609 28.6445C93.3516 27.6055 94.5703 27.0859 96.1172 27.0859C97.8125 27.0859 98.9727 27.7344 99.5977 29.0312C100.52 27.7344 101.816 27.0859 103.488 27.0859C104.887 27.0859 105.926 27.4727 106.605 28.2461C107.293 29.0195 107.645 30.1602 107.66 31.668V40H104.812V31.75C104.812 30.9453 104.637 30.3555 104.285 29.9805C103.934 29.6055 103.352 29.418 102.539 29.418C101.891 29.418 101.359 29.5938 100.945 29.9453C100.539 30.2891 100.254 30.7422 100.09 31.3047L100.102 40H97.2539V31.6562C97.2148 30.1641 96.4531 29.418 94.9688 29.418C93.8281 29.418 93.0195 29.8828 92.543 30.8125V40H89.6953V27.3203H92.3789ZM115.02 35.9219L117.598 27.3203H120.633L115.594 41.9219C114.82 44.0547 113.508 45.1211 111.656 45.1211C111.242 45.1211 110.785 45.0508 110.285 44.9102V42.707L110.824 42.7422C111.543 42.7422 112.082 42.6094 112.441 42.3438C112.809 42.0859 113.098 41.6484 113.309 41.0312L113.719 39.9414L109.266 27.3203H112.336L115.02 35.9219ZM127.723 33.543C127.723 32.3008 127.969 31.1836 128.461 30.1914C128.953 29.1914 129.645 28.4258 130.535 27.8945C131.426 27.3555 132.449 27.0859 133.605 27.0859C135.316 27.0859 136.703 27.6367 137.766 28.7383C138.836 29.8398 139.414 31.3008 139.5 33.1211L139.512 33.7891C139.512 35.0391 139.27 36.1562 138.785 37.1406C138.309 38.125 137.621 38.8867 136.723 39.4258C135.832 39.9648 134.801 40.2344 133.629 40.2344C131.84 40.2344 130.406 39.6406 129.328 38.4531C128.258 37.2578 127.723 35.668 127.723 33.6836V33.543ZM130.57 33.7891C130.57 35.0938 130.84 36.1172 131.379 36.8594C131.918 37.5938 132.668 37.9609 133.629 37.9609C134.59 37.9609 135.336 37.5859 135.867 36.8359C136.406 36.0859 136.676 34.9883 136.676 33.543C136.676 32.2617 136.398 31.2461 135.844 30.4961C135.297 29.7461 134.551 29.3711 133.605 29.3711C132.676 29.3711 131.938 29.7422 131.391 30.4844C130.844 31.2188 130.57 32.3203 130.57 33.7891ZM145.488 24.2383V27.3203H147.727V29.4297H145.488V36.5078C145.488 36.9922 145.582 37.3438 145.77 37.5625C145.965 37.7734 146.309 37.8789 146.801 37.8789C147.129 37.8789 147.461 37.8398 147.797 37.7617V39.9648C147.148 40.1445 146.523 40.2344 145.922 40.2344C143.734 40.2344 142.641 39.0273 142.641 36.6133V29.4297H140.555V27.3203H142.641V24.2383H145.488ZM152.719 28.7031C153.648 27.625 154.824 27.0859 156.246 27.0859C158.949 27.0859 160.32 28.6289 160.359 31.7148V40H157.512V31.8203C157.512 30.9453 157.32 30.3281 156.938 29.9688C156.562 29.6016 156.008 29.418 155.273 29.418C154.133 29.418 153.281 29.9258 152.719 30.9414V40H149.871V22H152.719V28.7031ZM168.832 40.2344C167.027 40.2344 165.562 39.668 164.438 38.5352C163.32 37.3945 162.762 35.8789 162.762 33.9883V33.6367C162.762 32.3711 163.004 31.2422 163.488 30.25C163.98 29.25 164.668 28.4727 165.551 27.918C166.434 27.3633 167.418 27.0859 168.504 27.0859C170.23 27.0859 171.562 27.6367 172.5 28.7383C173.445 29.8398 173.918 31.3984 173.918 33.4141V34.5625H165.633C165.719 35.6094 166.066 36.4375 166.676 37.0469C167.293 37.6562 168.066 37.9609 168.996 37.9609C170.301 37.9609 171.363 37.4336 172.184 36.3789L173.719 37.8438C173.211 38.6016 172.531 39.1914 171.68 39.6133C170.836 40.0273 169.887 40.2344 168.832 40.2344ZM168.492 29.3711C167.711 29.3711 167.078 29.6445 166.594 30.1914C166.117 30.7383 165.812 31.5 165.68 32.4766H171.105V32.2656C171.043 31.3125 170.789 30.5938 170.344 30.1094C169.898 29.6172 169.281 29.3711 168.492 29.3711ZM182.777 29.9219C182.402 29.8594 182.016 29.8281 181.617 29.8281C180.312 29.8281 179.434 30.3281 178.98 31.3281V40H176.133V27.3203H178.852L178.922 28.7383C179.609 27.6367 180.562 27.0859 181.781 27.0859C182.188 27.0859 182.523 27.1406 182.789 27.25L182.777 29.9219ZM201.656 33.7891C201.656 35.75 201.211 37.3164 200.32 38.4883C199.43 39.6523 198.234 40.2344 196.734 40.2344C195.344 40.2344 194.23 39.7773 193.395 38.8633V44.875H190.547V27.3203H193.172L193.289 28.6094C194.125 27.5938 195.262 27.0859 196.699 27.0859C198.246 27.0859 199.457 27.6641 200.332 28.8203C201.215 29.9688 201.656 31.5664 201.656 33.6133V33.7891ZM198.82 33.543C198.82 32.2773 198.566 31.2734 198.059 30.5312C197.559 29.7891 196.84 29.418 195.902 29.418C194.738 29.418 193.902 29.8984 193.395 30.8594V36.4844C193.91 37.4688 194.754 37.9609 195.926 37.9609C196.832 37.9609 197.539 37.5977 198.047 36.8711C198.562 36.1367 198.82 35.0273 198.82 33.543ZM210.715 29.9219C210.34 29.8594 209.953 29.8281 209.555 29.8281C208.25 29.8281 207.371 30.3281 206.918 31.3281V40H204.07V27.3203H206.789L206.859 28.7383C207.547 27.6367 208.5 27.0859 209.719 27.0859C210.125 27.0859 210.461 27.1406 210.727 27.25L210.715 29.9219ZM211.559 33.543C211.559 32.3008 211.805 31.1836 212.297 30.1914C212.789 29.1914 213.48 28.4258 214.371 27.8945C215.262 27.3555 216.285 27.0859 217.441 27.0859C219.152 27.0859 220.539 27.6367 221.602 28.7383C222.672 29.8398 223.25 31.3008 223.336 33.1211L223.348 33.7891C223.348 35.0391 223.105 36.1562 222.621 37.1406C222.145 38.125 221.457 38.8867 220.559 39.4258C219.668 39.9648 218.637 40.2344 217.465 40.2344C215.676 40.2344 214.242 39.6406 213.164 38.4531C212.094 37.2578 211.559 35.668 211.559 33.6836V33.543ZM214.406 33.7891C214.406 35.0938 214.676 36.1172 215.215 36.8594C215.754 37.5938 216.504 37.9609 217.465 37.9609C218.426 37.9609 219.172 37.5859 219.703 36.8359C220.242 36.0859 220.512 34.9883 220.512 33.543C220.512 32.2617 220.234 31.2461 219.68 30.4961C219.133 29.7461 218.387 29.3711 217.441 29.3711C216.512 29.3711 215.773 29.7422 215.227 30.4844C214.68 31.2188 214.406 32.3203 214.406 33.7891ZM228.727 27.3203V41.125C228.727 42.4219 228.402 43.4102 227.754 44.0898C227.113 44.7773 226.172 45.1211 224.93 45.1211C224.406 45.1211 223.902 45.0547 223.418 44.9219V42.6719C223.715 42.7422 224.051 42.7773 224.426 42.7773C225.371 42.7773 225.855 42.2617 225.879 41.2305V27.3203H228.727ZM225.633 24.0273C225.633 23.5898 225.77 23.2266 226.043 22.9375C226.324 22.6484 226.723 22.5039 227.238 22.5039C227.754 22.5039 228.152 22.6484 228.434 22.9375C228.715 23.2266 228.855 23.5898 228.855 24.0273C228.855 24.457 228.715 24.8164 228.434 25.1055C228.152 25.3867 227.754 25.5273 227.238 25.5273C226.723 25.5273 226.324 25.3867 226.043 25.1055C225.77 24.8164 225.633 24.457 225.633 24.0273ZM237.363 40.2344C235.559 40.2344 234.094 39.668 232.969 38.5352C231.852 37.3945 231.293 35.8789 231.293 33.9883V33.6367C231.293 32.3711 231.535 31.2422 232.02 30.25C232.512 29.25 233.199 28.4727 234.082 27.918C234.965 27.3633 235.949 27.0859 237.035 27.0859C238.762 27.0859 240.094 27.6367 241.031 28.7383C241.977 29.8398 242.449 31.3984 242.449 33.4141V34.5625H234.164C234.25 35.6094 234.598 36.4375 235.207 37.0469C235.824 37.6562 236.598 37.9609 237.527 37.9609C238.832 37.9609 239.895 37.4336 240.715 36.3789L242.25 37.8438C241.742 38.6016 241.062 39.1914 240.211 39.6133C239.367 40.0273 238.418 40.2344 237.363 40.2344ZM237.023 29.3711C236.242 29.3711 235.609 29.6445 235.125 30.1914C234.648 30.7383 234.344 31.5 234.211 32.4766H239.637V32.2656C239.574 31.3125 239.32 30.5938 238.875 30.1094C238.43 29.6172 237.812 29.3711 237.023 29.3711ZM249.879 37.9609C250.59 37.9609 251.18 37.7539 251.648 37.3398C252.117 36.9258 252.367 36.4141 252.398 35.8047H255.082C255.051 36.5938 254.805 37.332 254.344 38.0195C253.883 38.6992 253.258 39.2383 252.469 39.6367C251.68 40.0352 250.828 40.2344 249.914 40.2344C248.141 40.2344 246.734 39.6602 245.695 38.5117C244.656 37.3633 244.137 35.7773 244.137 33.7539V33.4609C244.137 31.5312 244.652 29.9883 245.684 28.832C246.715 27.668 248.121 27.0859 249.902 27.0859C251.41 27.0859 252.637 27.5273 253.582 28.4102C254.535 29.2852 255.035 30.4375 255.082 31.8672H252.398C252.367 31.1406 252.117 30.543 251.648 30.0742C251.188 29.6055 250.598 29.3711 249.879 29.3711C248.957 29.3711 248.246 29.707 247.746 30.3789C247.246 31.043 246.992 32.0547 246.984 33.4141V33.8711C246.984 35.2461 247.23 36.2734 247.723 36.9531C248.223 37.625 248.941 37.9609 249.879 37.9609ZM260.801 24.2383V27.3203H263.039V29.4297H260.801V36.5078C260.801 36.9922 260.895 37.3438 261.082 37.5625C261.277 37.7734 261.621 37.8789 262.113 37.8789C262.441 37.8789 262.773 37.8398 263.109 37.7617V39.9648C262.461 40.1445 261.836 40.2344 261.234 40.2344C259.047 40.2344 257.953 39.0273 257.953 36.6133V29.4297H255.867V27.3203H257.953V24.2383H260.801ZM272.332 36.5547C272.332 36.0469 272.121 35.6602 271.699 35.3945C271.285 35.1289 270.594 34.8945 269.625 34.6914C268.656 34.4883 267.848 34.2305 267.199 33.918C265.777 33.2305 265.066 32.2344 265.066 30.9297C265.066 29.8359 265.527 28.9219 266.449 28.1875C267.371 27.4531 268.543 27.0859 269.965 27.0859C271.48 27.0859 272.703 27.4609 273.633 28.2109C274.57 28.9609 275.039 29.9336 275.039 31.1289H272.191C272.191 30.582 271.988 30.1289 271.582 29.7695C271.176 29.4023 270.637 29.2188 269.965 29.2188C269.34 29.2188 268.828 29.3633 268.43 29.6523C268.039 29.9414 267.844 30.3281 267.844 30.8125C267.844 31.25 268.027 31.5898 268.395 31.832C268.762 32.0742 269.504 32.3203 270.621 32.5703C271.738 32.8125 272.613 33.1055 273.246 33.4492C273.887 33.7852 274.359 34.1914 274.664 34.668C274.977 35.1445 275.133 35.7227 275.133 36.4023C275.133 37.543 274.66 38.4688 273.715 39.1797C272.77 39.8828 271.531 40.2344 270 40.2344C268.961 40.2344 268.035 40.0469 267.223 39.6719C266.41 39.2969 265.777 38.7812 265.324 38.125C264.871 37.4688 264.645 36.7617 264.645 36.0039H267.41C267.449 36.6758 267.703 37.1953 268.172 37.5625C268.641 37.9219 269.262 38.1016 270.035 38.1016C270.785 38.1016 271.355 37.9609 271.746 37.6797C272.137 37.3906 272.332 37.0156 272.332 36.5547Z" fill="white"/>
</svg>
