<svg width="156" height="54" viewBox="0 0 156 54" fill="none" xmlns="http://www.w3.org/2000/svg">
<path opacity="0.3" d="M93.4787 31.7393C93.4787 31.7393 93.2741 32.12 93.158 32.2073C93.0394 32.2947 92.9808 32.236 92.8947 32.4706C92.8061 32.7053 92.836 32.7627 92.8061 32.9099C92.7774 33.0559 92.8947 33.1445 92.8947 33.2319C92.8947 33.3193 92.8947 33.6138 92.8947 33.6138L92.9808 33.7586C92.9808 33.7586 93.0981 33.8172 93.1867 33.7873C93.2728 33.7586 93.5661 33.7286 93.5661 33.7286C93.5661 33.7286 93.5948 33.7873 93.6846 33.6425C93.7708 33.4952 93.8594 33.3792 93.8594 33.3792C93.8594 33.3792 94.0054 33.3193 94.0353 33.1732C94.0653 33.0272 94.1227 32.8226 94.1227 32.8226C94.1227 32.8226 94.2987 32.8812 94.27 32.5879C94.2412 32.2959 94.2412 32.2959 94.1826 32.1786C94.1227 32.0613 94.1826 31.944 93.9779 31.9153C93.772 31.8866 93.6859 31.8566 93.6859 31.8566L93.4787 31.7393Z" fill="#015D5C"/>
<path opacity="0.3" d="M95.0299 30.716C95.0299 30.716 95.0299 30.7746 94.9413 31.0966C94.8552 31.4186 94.7679 31.6233 94.7679 31.7406C94.7679 31.8579 94.9114 32.0626 94.9114 32.0626C94.9114 32.0626 94.8827 32.0351 95.0873 32.0351C95.2933 32.0351 95.2933 32.3845 95.5566 32.0351C95.8187 31.6832 95.906 31.6245 95.906 31.6245C95.906 31.6245 95.9934 31.0692 95.9934 30.9531C95.9934 30.8346 96.1132 30.7759 95.9934 30.6299C95.8773 30.4839 95.8773 30.4252 95.7588 30.4252C95.6414 30.4252 95.584 30.3379 95.4667 30.4539C95.3519 30.57 95.0299 30.716 95.0299 30.716Z" fill="#015D5C"/>
<path opacity="0.3" d="M96.8133 28.7267L96.5787 29.3993L96.7546 29.78C96.7546 29.78 96.7833 29.8673 96.8732 29.8673C96.9606 29.8673 97.2239 29.9547 97.2239 29.9547C97.2239 29.9547 97.31 30.0133 97.3986 29.9834C97.4872 29.9547 97.6332 30.0708 97.7218 29.8661C97.8079 29.6614 97.8666 29.6901 97.8666 29.5741C97.8666 29.458 97.8953 29.7201 97.8953 29.3694C97.8953 29.0187 97.8953 28.9888 97.8953 28.8727C97.8953 28.7566 97.924 28.7267 97.8666 28.6381C97.8092 28.5495 97.8666 28.4921 97.7505 28.4621C97.632 28.4334 97.6906 28.3448 97.3399 28.4621C96.9893 28.5794 96.8133 28.7267 96.8133 28.7267Z" fill="#015D5C"/>
<path opacity="0.3" d="M98.8625 27.1767C98.8625 27.2641 98.8051 27.4987 98.7739 27.586C98.7452 27.6734 98.6279 27.8494 98.5705 28.0253C98.5106 28.2013 98.3071 28.3174 98.5418 28.4646C98.7751 28.6106 98.9798 28.6406 99.1271 28.6693C99.2718 28.698 99.3904 28.8452 99.5065 28.6106C99.625 28.376 99.6537 28.2887 99.6837 28.1713C99.7111 28.054 99.7698 28.084 99.7698 27.8793C99.7698 27.6746 99.7698 27.6746 99.7411 27.5573C99.7124 27.44 99.7411 27.3814 99.655 27.2653C99.5664 27.148 99.5077 27.0606 99.3916 27.0307C99.2731 27.002 99.2731 27.002 99.2731 27.002L98.8625 27.1767Z" fill="#015D5C"/>
<path opacity="0.3" d="M100.851 25.1288C100.851 25.1288 100.939 25.1575 100.792 25.3921C100.646 25.6267 100.676 25.5968 100.616 25.7727C100.557 25.9487 100.499 26.1234 100.471 26.212C100.442 26.3006 100.383 26.4467 100.499 26.5627C100.615 26.6788 100.822 26.7973 100.822 26.7973C100.822 26.7973 100.879 26.8847 101.084 26.7387C101.29 26.5927 101.202 26.71 101.376 26.5627C101.553 26.4167 101.465 26.5914 101.639 26.3281C101.816 26.0648 101.903 26.0061 101.845 25.8314C101.787 25.6554 101.816 25.7727 101.787 25.5094C101.757 25.2461 101.758 25.1001 101.758 25.1001C101.758 25.1001 101.903 24.9541 101.669 24.9241C101.436 24.8942 100.851 25.1288 100.851 25.1288Z" fill="#015D5C"/>
<path opacity="0.3" d="M102.722 22.7888C102.722 22.7888 102.722 22.9348 102.636 23.1108C102.549 23.2867 102.459 23.4914 102.459 23.6075C102.459 23.7235 102.578 23.9295 102.578 23.9295C102.578 23.9295 102.43 24.1341 102.811 24.0168C103.193 23.8995 103.074 24.0755 103.193 23.8995C103.309 23.7235 103.338 23.7235 103.428 23.6362C103.514 23.5488 103.542 23.4602 103.571 23.2555C103.6 23.0509 103.69 23.0209 103.6 22.9049C103.514 22.7876 103.514 22.7876 103.514 22.7876C103.514 22.7876 103.718 22.7589 103.396 22.7289C103.073 22.7002 103.015 22.7002 102.9 22.7002C102.78 22.7014 102.722 22.7888 102.722 22.7888Z" fill="#015D5C"/>
<path opacity="0.3" d="M104.418 20.9468C104.244 21.1515 104.274 21.1228 104.215 21.4148C104.156 21.7068 104.156 21.9115 104.156 21.9115C104.156 21.9115 104.038 22.1162 104.301 22.0575C104.564 21.9989 104.593 21.9701 104.682 21.9115C104.772 21.8528 104.859 21.9402 104.886 21.7942C104.915 21.6482 104.945 21.5596 104.945 21.4435C104.945 21.3274 105.15 21.3561 104.975 21.1515C104.799 20.9468 104.652 20.9468 104.652 20.9468H104.418V20.9468Z" fill="#015D5C"/>
<path opacity="0.3" d="M106.554 18.4895C106.438 18.5768 106.35 18.8115 106.146 19.0748C105.94 19.3381 105.795 19.4255 105.648 19.6301C105.503 19.8348 105.472 19.9222 105.503 20.0694C105.532 20.2154 105.59 20.4501 105.59 20.4501C105.59 20.4501 105.648 20.7134 105.795 20.7421C105.94 20.7708 106.203 20.8294 106.203 20.8294C106.203 20.8294 106.466 20.9755 106.614 20.8007C106.758 20.6248 106.817 20.6547 106.906 20.4788C106.992 20.3028 107.256 20.0694 107.256 20.0694C107.256 20.0694 107.169 19.8648 107.547 20.1281C107.929 20.3914 108.046 20.4788 108.046 20.4788C108.102 20.3328 108.132 19.9521 108.132 19.9521L108.25 19.8061C108.25 19.8061 108.278 19.6601 108.221 19.5727C108.161 19.4854 107.929 19.2795 107.869 19.1621C107.81 19.0448 107.84 18.9575 107.753 18.7528C107.666 18.5481 107.724 18.5481 107.634 18.4308C107.547 18.3135 107.461 18.2549 107.461 18.2549C107.461 18.2549 107.341 18.0789 107.078 18.1962C106.815 18.3135 106.554 18.4895 106.554 18.4895Z" fill="#015D5C"/>
<path opacity="0.3" d="M111.088 23.6087C111.206 23.8433 111.44 24.164 111.584 24.3987C111.732 24.6333 111.966 24.838 112.084 25.0426C112.198 25.2473 112.374 25.452 112.462 25.5106C112.55 25.5693 112.696 25.5393 112.785 25.5106C112.872 25.4819 113.018 25.5106 113.018 25.2473C113.018 24.984 113.078 25.0713 113.018 24.808C112.96 24.5447 113.137 24.662 112.932 24.3987C112.726 24.1353 112.757 24.1066 112.523 23.872C112.288 23.6374 112.288 23.55 112.141 23.4327C111.996 23.3154 111.966 23.2281 111.82 23.2281C111.673 23.2281 111.733 23.1694 111.586 23.2281C111.44 23.2867 111.088 23.6087 111.088 23.6087Z" fill="#015D5C"/>
<path opacity="0.3" d="M113.37 26.5041C113.399 26.68 113.37 26.8547 113.516 27.0594C113.662 27.2641 113.807 27.4687 113.838 27.5561C113.867 27.6447 113.926 27.7907 114.042 27.8481C114.16 27.9068 114.452 27.9068 114.627 27.6722C114.804 27.4375 114.775 27.4375 114.92 27.2628C115.066 27.0869 114.92 27.2042 115.301 26.9995C115.68 26.7948 115.828 26.7948 115.972 26.7362C116.121 26.6775 116.15 26.6775 116.266 26.4729C116.382 26.2682 116.442 26.2981 116.469 26.0635C116.498 25.8289 116.529 25.8289 116.588 25.7128C116.646 25.5968 116.88 25.7128 116.616 25.2448C116.353 24.7768 116.558 24.8355 116.353 24.7768C116.148 24.7182 116.207 24.5422 115.856 24.8055C115.506 25.0689 115.622 25.0402 115.361 25.2149C115.096 25.3909 114.979 25.4196 114.89 25.5069C114.804 25.5943 114.804 25.5943 114.804 25.5943L114.777 26.0036C114.777 26.0036 114.717 26.0323 114.598 26.0623C114.482 26.091 114.278 26.2083 114.132 26.2083C113.986 26.2083 113.897 26.2669 113.75 26.237C113.605 26.2083 113.575 26.1496 113.459 26.2083C113.343 26.2669 113.37 26.5041 113.37 26.5041Z" fill="#015D5C"/>
<path opacity="0.3" d="M117.143 23.9881C117.143 23.9881 117.172 24.0468 117.143 24.2227C117.114 24.3987 117.056 24.5148 117.143 24.6907C117.23 24.8667 117.348 25.13 117.466 25.1587C117.581 25.1874 117.494 25.4807 117.904 25.2461C118.315 25.0114 118.313 25.1001 118.607 24.7781C118.9 24.4561 119.075 24.3388 119.075 24.0468C119.075 23.7547 118.87 23.7248 118.957 23.6661C119.045 23.6075 118.957 23.6374 119.133 23.5488C119.309 23.4602 119.251 23.4902 119.454 23.4028C119.66 23.3154 119.601 23.4315 119.865 23.2568C120.128 23.0821 120.158 23.1395 120.187 22.9935C120.215 22.8475 120.215 23.0521 120.273 22.7301C120.333 22.4082 120.333 22.2035 120.333 22.2035C120.333 22.2035 120.333 22.0275 120.187 21.9988C120.041 21.9701 119.952 21.9115 119.69 21.9402C119.428 21.9689 119.339 21.9988 119.105 22.1161C118.87 22.2334 118.841 21.9402 118.608 22.4668C118.373 22.9935 118.373 23.3441 118.373 23.3441C118.373 23.3441 118.402 23.3441 118.11 23.4028C117.818 23.4615 117.409 23.5488 117.409 23.5488L117.143 23.9881Z" fill="#015D5C"/>
<path opacity="0.3" d="M121.325 20.0694C121.325 20.0694 121.091 20.2454 120.945 20.4788C120.798 20.7134 120.449 20.9468 120.711 21.0928C120.973 21.2388 121.003 21.3848 121.384 21.2687C121.764 21.1527 121.879 21.3274 121.969 21.0641C122.056 20.8007 122.115 20.772 122.115 20.5674C122.115 20.3627 122.261 20.304 122.056 20.1867C121.852 20.0694 121.325 20.0694 121.325 20.0694Z" fill="#015D5C"/>
<path opacity="0.3" d="M122.73 18.4308C122.467 18.6355 122.349 18.6355 122.321 19.0448C122.292 19.4542 122.321 19.6588 122.467 19.7475C122.613 19.8361 122.789 20.1281 123.022 20.0395C123.256 19.9509 123.226 20.2154 123.636 19.7175C124.045 19.2208 124.075 19.3082 124.163 19.0448C124.25 18.7815 124.397 18.7815 124.397 18.6355C124.397 18.4895 124.485 18.4595 124.426 18.2549C124.367 18.0502 124.367 17.9628 124.308 17.8156C124.25 17.6696 124.485 17.3476 124.193 17.581C123.899 17.8156 123.782 17.8156 123.606 18.0202C123.431 18.2249 123.314 18.4009 123.314 18.4009C123.314 18.4009 123.46 18.6642 123.226 18.4296C122.993 18.1975 122.73 18.4308 122.73 18.4308Z" fill="#015D5C"/>
<path opacity="0.3" d="M124.953 16.7636C124.953 16.7636 124.894 17.0269 124.867 17.2603C124.837 17.4949 124.837 17.7282 124.924 17.9329C125.011 18.1376 125.07 18.2836 125.246 18.2836C125.422 18.2836 125.509 18.2836 125.627 18.1076C125.744 17.9317 125.714 17.873 125.803 17.6109C125.891 17.3489 125.715 17.2016 126.066 17.1716C126.417 17.1417 126.505 17.1716 126.593 17.1716C126.68 17.1716 126.505 17.2303 126.798 17.1716C127.089 17.113 126.943 17.259 127.207 17.0843C127.471 16.9083 127.353 17.0256 127.557 16.821C127.762 16.6163 127.733 16.821 127.821 16.5289C127.908 16.2369 127.997 16.2656 127.938 16.0322C127.879 15.7989 127.879 15.7976 127.733 15.5355C127.587 15.2735 127.821 15.2136 127.471 15.2136C127.119 15.2136 127.353 14.4236 126.886 15.3309C126.417 16.2382 126.388 16.3842 126.388 16.3842C126.126 16.2968 126.153 16.2382 125.949 16.2382C125.744 16.2382 125.305 16.0921 125.305 16.0921C125.305 16.0921 125.246 16.0921 125.159 16.3555C125.071 16.6188 124.953 16.7636 124.953 16.7636Z" fill="#015D5C"/>
<path opacity="0.3" d="M128.551 14.5995L128.287 15.4768L128.638 15.8874C128.638 15.8874 128.843 15.9748 128.989 15.8288C129.135 15.6828 129.311 15.6528 129.428 15.4768C129.545 15.3021 129.574 15.3308 129.72 15.1561C129.866 14.9814 129.896 15.0388 129.985 14.9215C130.072 14.8042 130.129 14.8042 130.188 14.6869C130.247 14.5696 130.275 14.1902 130.217 14.0429C130.159 13.8969 130.393 13.5749 130.129 13.5749C129.866 13.5749 129.779 13.5749 129.574 13.6922C129.369 13.8095 129.282 13.8969 129.077 14.0142C128.873 14.1303 128.551 14.5995 128.551 14.5995Z" fill="#015D5C"/>
<path opacity="0.3" d="M130.715 12.639C130.627 13.0782 130.597 13.1943 130.715 13.3703C130.832 13.5462 130.861 13.8969 131.037 13.8383C131.213 13.7796 131.387 13.8383 131.533 13.6923C131.679 13.5462 131.621 13.6923 131.825 13.4576C132.03 13.2243 132.09 13.4289 132.206 13.1069C132.323 12.785 132.645 13.0782 132.352 12.5216C132.059 11.965 132.06 11.9363 131.913 11.849C131.766 11.7616 131.767 11.527 131.503 11.673C131.241 11.8203 130.715 12.639 130.715 12.639Z" fill="#015D5C"/>
<path opacity="0.3" d="M132.617 11.4983C132.944 11.7167 133.494 12.2296 133.553 12.463C133.611 12.6964 133.581 12.7837 133.699 12.8436C133.816 12.9023 134.167 13.1656 134.167 13.1656C134.167 13.1656 134.43 12.931 134.489 12.8436C134.547 12.7563 134.576 12.8723 134.723 12.609C134.87 12.3457 135.074 12.2583 134.987 12.141C134.899 12.0237 134.958 12.1997 134.723 11.819C134.489 11.4384 134.255 10.737 134.227 10.621C134.198 10.5049 134.168 10.2403 134.08 10.2116C133.993 10.1829 133.993 10.0357 133.817 10.1829C133.641 10.3302 133.7 10.3876 133.438 10.5636C133.173 10.7395 133.262 10.6809 132.969 10.8855C132.677 11.089 132.528 11.4397 132.617 11.4983Z" fill="#015D5C"/>
<path opacity="0.3" d="M134.898 13.7809C134.928 13.9244 135.455 15.0089 135.455 15.0089L135.745 15.1549L136.096 15.3596C136.096 15.3596 136.155 15.3883 136.272 15.4182C136.389 15.4482 136.477 15.4469 136.564 15.3895C136.651 15.3321 136.799 15.3895 136.799 15.2135C136.799 15.0376 136.739 15.0089 136.711 14.7168C136.681 14.4248 136.711 14.4822 136.681 14.1902C136.653 13.8982 136.857 13.8982 136.594 13.6935C136.331 13.4888 136.359 13.5475 136.155 13.3428C135.951 13.1381 135.774 12.9622 135.715 12.8748C135.657 12.7862 135.744 12.6702 135.539 12.7862C135.336 12.9023 134.752 13.0782 134.898 13.7809Z" fill="#015D5C"/>
<path opacity="0.3" d="M137.092 16.5888C137.209 16.9395 137.501 17.4075 137.501 17.4075C137.501 17.4075 137.823 17.7295 137.911 17.8755C137.998 18.0215 138.028 18.1975 138.115 18.1388C138.203 18.0802 138.203 18.0802 138.203 18.0802C138.203 18.0802 138.349 17.9928 138.379 17.8455C138.408 17.6983 138.701 17.7869 138.701 17.6109C138.701 17.4349 138.554 16.967 138.554 16.8209C138.554 16.6749 138.526 16.3817 138.526 16.2943C138.526 16.2069 138.672 16.2943 138.408 16.0597C138.146 15.8251 138.028 15.709 137.94 15.679C137.853 15.6491 137.765 15.6503 137.765 15.6503C137.765 15.6503 137.53 15.7676 137.443 15.8263C137.355 15.885 137.325 15.7389 137.267 15.9723C137.208 16.2057 137.092 16.5888 137.092 16.5888Z" fill="#015D5C"/>
<path opacity="0.3" d="M138.847 18.8115C139.2 19.0648 138.993 19.3668 139.11 19.5428C139.227 19.7187 139.432 20.0395 139.492 20.1568C139.549 20.2741 139.666 20.6535 139.783 20.5961C139.899 20.5387 140.164 20.5674 140.251 20.3327C140.338 20.0981 140.309 19.9521 140.455 19.7774C140.601 19.6027 140.806 19.4267 140.865 19.3381C140.923 19.2495 141.128 19.1921 140.982 18.9874C140.837 18.7828 140.777 18.6068 140.601 18.4608C140.425 18.3148 140.661 18.2262 140.309 18.2561C139.958 18.2848 140.104 18.4321 139.812 18.3435C139.52 18.2549 139.432 18.2848 139.344 18.2262C139.257 18.1675 138.643 18.6654 138.847 18.8115Z" fill="#015D5C"/>
<path opacity="0.3" d="M141.334 17.4662C141.274 17.7295 141.246 17.9342 141.421 18.3148C141.596 18.6954 141.859 19.0174 141.859 19.0174C141.859 19.0174 142.21 19.2807 142.356 18.93C142.502 18.5794 142.59 18.4334 142.59 18.1987C142.59 17.9641 142.443 17.9354 142.618 17.8181C142.793 17.7008 142.383 17.7307 142.91 17.6721C143.438 17.6134 143.465 17.5847 143.554 17.5847C143.643 17.5847 143.613 17.5847 143.817 17.5261C144.023 17.4674 144.111 17.4974 144.257 17.4387C144.403 17.3801 144.666 17.5261 144.637 17.234C144.61 16.942 144.637 16.942 144.55 16.7948C144.462 16.6475 144.345 17.1754 144.404 16.5027C144.462 15.8301 144.58 15.9174 144.462 15.8301C144.345 15.7427 143.937 15.5667 143.818 15.5954C143.701 15.6241 143.439 15.8001 143.233 15.9761C143.029 16.1508 143.087 16.1508 142.854 16.4154C142.619 16.6787 142.413 17.0007 142.326 17.0007C142.239 17.0007 142.413 17.1467 142.15 17.0007C141.887 16.8547 141.741 17.0593 141.653 17.1467C141.566 17.234 141.334 17.4662 141.334 17.4662Z" fill="#015D5C"/>
<path opacity="0.3" d="M145.135 15.0376C145.135 15.2135 145.222 15.3296 145.222 15.7102C145.222 16.0909 145.076 16.2069 145.194 16.3242C145.311 16.4415 145.311 16.5289 145.458 16.5289C145.603 16.5289 145.603 16.5876 145.838 16.3829C146.072 16.1782 146.101 16.0909 146.101 16.0909C146.101 16.0909 146.247 16.1483 146.336 15.8275C146.423 15.5056 146.482 15.4756 146.512 15.3308C146.54 15.1848 146.57 15.0388 146.599 14.8341C146.629 14.6295 146.658 14.6582 146.599 14.5421C146.54 14.426 146.423 14.1028 146.19 14.1315C145.956 14.1615 146.014 14.1028 145.78 14.2201C145.547 14.3374 145.43 14.4548 145.312 14.5421C145.195 14.6295 145.135 15.0376 145.135 15.0376Z" fill="#015D5C"/>
<path d="M15.1904 39.7102C14.9421 39.8549 14.6563 40.1357 14.333 40.5513C14.0323 40.3766 13.6978 40.0534 13.3247 39.5816C13.2748 39.6303 13.2486 39.7663 13.2486 39.9922C12.848 39.5929 12.5709 38.9601 12.4174 38.0903C11.5538 37.1219 11.1208 36.0137 11.1208 34.7707C10.951 34.6234 10.6715 34.3488 10.2846 33.952C10.0675 33.6774 9.88525 33.5776 9.73924 33.6525C9.71303 33.2069 9.7642 32.9074 9.88775 32.7577C9.71303 32.6329 9.61444 32.573 9.59073 32.573C9.24129 32.573 9.03038 32.6092 8.9555 32.6828C8.9555 32.5592 8.9293 32.075 8.88063 31.2289C8.85567 31.2289 8.64476 31.0804 8.2454 30.7821C8.2454 30.2617 8.2454 29.7513 8.2454 29.2533C8.22044 28.8303 8.08441 28.4696 7.83482 28.1726C7.68506 28.1726 7.61143 28.2712 7.61143 28.4696C7.46167 28.1726 7.27448 28.0228 7.05109 28.0228C6.77653 28.0728 6.57685 28.1851 6.4533 28.3585C6.32975 28.5345 6.25488 28.6206 6.22992 28.6206C6.10387 28.6206 6.02275 28.5719 5.98656 28.4721C5.94912 28.3723 5.90544 28.3224 5.85552 28.3224C5.58221 28.6468 5.22155 29.1173 4.77352 29.7401C4.72236 29.7401 4.66745 29.6764 4.60505 29.5529C4.54265 29.4293 4.49897 29.342 4.47526 29.2933C4.3255 29.4181 4.15702 29.6228 3.97107 29.9073C3.78512 30.1931 3.6154 30.4115 3.46689 30.56C3.44193 30.3603 3.35457 30.087 3.20606 29.7401L2.70936 30.2642C2.45353 30.5151 2.315 30.9643 2.28755 31.6133C2.37366 31.6894 2.5334 31.7268 2.76802 31.7268C2.81669 32.1761 2.75554 32.402 2.58082 32.402L2.51468 34.3139C2.51468 34.2889 2.69813 34.2765 3.06629 34.2765C3.16488 35.1001 3.40199 36.3868 3.77514 38.1377C3.50058 38.4622 3.25224 38.6257 3.02885 38.6257C2.87784 38.6257 2.76178 38.577 2.67567 38.4784C2.59081 38.3823 2.5359 38.3336 2.51468 38.3336C2.36367 38.5783 2.36367 38.8453 2.51468 39.1398C2.02672 39.0413 1.62612 38.6806 1.30913 38.0591C1.06453 37.5624 0.943473 37.0769 0.943473 36.6039C0.943473 36.3556 1.04456 36.2321 1.24299 36.2321L1.46638 35.9325C1.46638 35.7354 1.34158 35.6368 1.09323 35.6368C1.09323 35.6605 1.13067 35.4358 1.20555 34.9641C1.25547 34.7145 1.19182 34.4662 1.0196 34.2166C1.0196 34.2428 1.05579 34.2939 1.13067 34.3663C1.17934 34.3164 1.21678 34.2615 1.24299 34.1978C1.26795 34.1354 1.29291 34.0805 1.31662 34.0306C0.990896 33.8559 0.827411 33.7074 0.827411 33.5838C0.98216 33.0871 1.06078 32.6641 1.06078 32.3146C1.06078 31.2701 0.954705 30.5625 0.740052 30.1893C0.524152 29.8162 0.418073 29.6178 0.418073 29.5916C0.418073 29.493 0.4942 29.2259 0.645206 28.7891C0.797459 28.3548 0.89605 28.1114 0.943473 28.0615C0.943473 27.8881 0.87109 27.8768 0.725076 28.0253C0.701365 27.9505 0.712597 27.6397 0.762516 27.0931C0.786227 26.7699 0.628982 26.5964 0.289531 26.5702C0.803699 26.4741 1.06078 26.0485 1.06078 25.3022C1.06078 25.1774 0.934737 24.6683 0.681397 23.7735C0.428057 22.8787 0.299515 22.377 0.299515 22.2759C0.299515 22.0275 0.467993 21.7293 0.806195 21.3811C0.681397 21.2076 0.567831 21.1203 0.46924 21.1203C0.354426 21.1203 0.298267 21.134 0.298267 21.1565C0.336955 21.2076 0.355674 21.2575 0.355674 21.3062C0.380634 21.0092 0.418073 20.6984 0.466745 20.374C0.515416 20.0507 0.626486 19.8523 0.798707 19.7774C0.702613 19.6526 0.535383 19.5902 0.298267 19.5902C0.0985904 18.2249 0 17.4287 0 17.2053C0 16.9832 0.11107 16.6463 0.334459 16.1982C0.453017 16.2481 0.585303 16.3105 0.726324 16.3842C0.869842 16.4353 0.940977 16.3729 0.940977 16.1982C0.940977 16.0734 0.866098 15.7515 0.716341 15.2285C0.540375 14.6071 0.439289 14.1965 0.415577 13.998C0.490456 13.998 0.715093 13.9119 1.09073 13.7372C1.11569 13.5637 1.09697 13.3965 1.03458 13.2343C0.973424 13.0733 0.940977 12.9797 0.940977 12.9535C0.940977 12.805 1.07825 12.6814 1.35281 12.5816V12.2459C1.37777 12.2708 1.25297 12.2821 0.979664 12.2821C0.807443 12.2821 0.625238 12.0587 0.431801 11.6107H0.983408C1.03333 11.5333 0.972176 11.406 0.799955 11.2275C0.897298 11.1252 1.06827 10.9205 1.31412 10.6123C1.24174 10.485 1.2043 10.3826 1.2043 10.3053C1.22801 10.3053 1.27668 10.3752 1.35156 10.5137C1.42519 10.6535 1.53502 10.7221 1.68352 10.7221C1.80583 10.7221 1.83079 10.6722 1.7584 10.5723C1.68353 10.4725 1.70848 10.4226 1.83079 10.4226C2.18022 10.5012 2.40486 10.5399 2.50719 10.5399C2.60703 10.5399 2.66818 10.5012 2.69439 10.4226C2.71935 10.3452 2.78175 10.3053 2.88159 10.3053C3.03134 10.3053 3.18734 10.3801 3.34958 10.5274C3.51306 10.6759 3.64285 10.7483 3.74394 10.7483C3.86874 10.7483 4.00477 10.7233 4.15577 10.6734C4.30553 10.6235 4.39289 10.5973 4.41785 10.5973C4.59257 10.4488 4.74232 10.636 4.86837 11.1601C4.89208 11.1102 4.92952 11.0303 4.98069 10.9168C5.03061 10.8045 5.08053 10.7471 5.13045 10.7471C5.30516 10.923 5.42996 11.0104 5.50484 11.0104C5.62964 11.0104 5.69204 10.9667 5.69204 10.8793C5.69204 10.792 5.75444 10.7483 5.88048 10.7483C6.00528 10.7483 6.331 10.8681 6.85515 11.1052C7.37931 11.3436 7.69879 11.4621 7.81236 11.4621C7.92467 11.4621 8.02451 11.5058 8.11312 11.5919C8.20048 11.6793 8.29408 11.723 8.39516 11.723C8.59359 11.723 8.69468 11.6369 8.69468 11.4621C9.0179 11.7105 9.50337 12.01 10.1511 12.3569C9.9751 12.3569 9.82784 12.4069 9.70304 12.5067C9.85155 12.7064 10.1111 13.0046 10.4818 13.4028L10.7052 13.1419C10.8524 13.117 10.951 13.1656 10.9997 13.2904C11.0983 13.565 11.1944 13.7522 11.2942 13.8508C11.4415 13.8258 11.6274 13.726 11.8483 13.5513C11.8483 13.9244 12.033 14.1104 12.4062 14.1104C12.4062 14.31 12.2814 14.471 12.033 14.5946L12.2577 14.818C12.3325 14.818 12.3825 14.8691 12.4074 14.969C12.4324 15.0688 12.5185 15.1175 12.6682 15.1175C12.7681 15.1175 12.8193 15.0301 12.8193 14.8567C12.8193 15.2298 12.7993 15.4657 12.7606 15.5643C12.848 15.6404 12.9802 15.8762 13.1537 16.2731C13.3272 16.6712 13.4145 16.9445 13.4145 17.093C12.9777 17.8393 12.7593 18.2249 12.7593 18.2487C12.7593 18.7216 12.9328 19.0574 13.2823 19.2558C13.2061 19.3319 13.0139 19.3931 12.7007 19.443C12.7007 20.6111 12.7007 21.2089 12.7007 21.2326C12.6757 21.2326 12.5659 21.0716 12.3675 20.7471C12.1715 20.9218 12.1466 21.0841 12.2951 21.2326C12.1965 21.1577 12.0992 21.1203 12.0006 21.1203C11.9507 21.3948 11.8895 21.6669 11.8159 21.9402C11.741 22.2647 11.741 22.5879 11.8159 22.9099C11.595 23.1844 11.3678 23.4814 11.1345 23.8059C10.9011 24.1291 10.785 24.4648 10.785 24.813L10.4481 24.5148C10.4231 24.5148 10.3857 24.541 10.3358 24.5896C10.2859 24.6396 10.211 24.6645 10.1111 24.6645C10.0113 24.6645 9.96262 24.7644 9.96262 24.9628L9.66311 24.6258C9.61319 24.974 9.47591 25.447 9.25252 26.0435L8.99045 25.7827C8.84069 25.9075 8.76706 26.0573 8.76706 26.2295C8.76706 26.3056 9.00168 26.8036 9.47591 27.7208C9.94765 28.6418 10.1598 29.3232 10.1099 29.7725C10.2347 29.9485 10.3345 30.2455 10.4094 30.6673C10.483 31.164 10.5579 31.501 10.6328 31.6757C10.7825 31.6757 10.8562 31.5396 10.8562 31.2651C11.0309 31.6894 11.4515 32.558 12.1229 33.8759C12.5447 34.697 12.7569 35.2948 12.7569 35.6667C12.9091 35.7915 13.1475 35.9413 13.4707 36.1135C13.4707 36.1397 13.4957 36.2333 13.5443 36.3943C13.5942 36.5565 13.6442 36.6351 13.6953 36.6351C13.5443 36.8111 13.3721 36.8972 13.1724 36.8972C13.1724 36.8473 13.1911 36.7674 13.2286 36.6551C13.266 36.544 13.2847 36.4629 13.2847 36.413L13.0988 36.1896L12.8742 36.4504V37.0844L13.0988 37.3091C13.2473 37.1356 13.3721 37.047 13.4719 37.047C13.4208 37.354 13.3222 37.661 13.1724 37.9667C13.1974 38.0192 13.2473 38.1078 13.3222 38.2376C13.3983 38.3648 13.447 38.4547 13.4719 38.5046C13.8438 37.958 14.0323 37.4863 14.0323 37.0869C14.1309 37.1618 14.1558 37.4476 14.1059 37.9455C14.1808 38.0204 14.2557 38.0329 14.3318 37.9817C14.4054 37.933 14.4429 37.8706 14.4429 37.797C14.9658 38.1702 15.2266 38.7105 15.2266 39.4206C15.2279 39.538 15.2154 39.6365 15.1904 39.7102ZM0.472984 26.348V25.9375H0.182205V26.348H0.472984ZM1.19057 22.3158C1.04082 21.9914 0.879826 21.8291 0.706357 21.8291C0.680149 21.8553 0.668917 22.0413 0.668917 22.3895C1.01586 22.3907 1.19057 22.3657 1.19057 22.3158ZM1.29291 14.6682C1.22552 14.6682 1.12568 14.6183 0.992144 14.5184L0.824915 14.8554C0.824915 15.0052 0.874834 15.1674 0.977168 15.3409C1.0795 15.5156 1.13067 15.6267 1.13067 15.6766C1.238 15.3783 1.29291 15.0414 1.29291 14.6682ZM1.41521 22.2409V21.456C1.34033 21.456 1.21428 21.5059 1.04082 21.6057C1.24049 22.03 1.36404 22.2409 1.41521 22.2409ZM1.4539 33.6887H1.11819L1.09448 33.4653H1.4539V33.6887ZM2.1615 16.0485C1.94061 15.7502 1.82954 15.4395 1.82954 15.1162C1.70474 15.2909 1.64359 15.5019 1.64359 15.7502C1.64484 15.9499 1.81706 16.0485 2.1615 16.0485ZM2.20144 23.7685L2.01424 23.6562L1.71597 24.1416L1.90192 24.2914L2.20144 23.7685ZM11.6162 17.6896V17.2428C11.5912 17.2428 11.56 17.2628 11.5226 17.2989C11.4839 17.3364 11.404 17.3539 11.2842 17.3539C11.2143 17.3539 11.1807 16.8572 11.1807 15.8625C9.87027 14.7443 9.10401 13.7871 8.88063 12.9922L8.43385 13.4015C8.43385 12.6053 8.45881 12.2321 8.50873 12.2821C8.40889 12.4805 8.25913 12.7176 8.05946 12.9922C7.98458 12.9422 7.94714 12.8175 7.94714 12.6178L7.7225 12.8798C7.69629 12.805 7.67258 12.7051 7.64762 12.5816C7.62141 12.4568 7.58522 12.3707 7.5353 12.3208C7.5353 12.1473 7.42423 12.1847 7.19835 12.4331L6.90133 12.171C6.90133 12.3956 6.85141 12.5691 6.75282 12.6939C6.60306 12.6939 6.4533 12.619 6.3048 12.4693C6.37967 12.3195 6.46578 12.1211 6.56562 11.8727C5.84429 12.2471 5.37131 12.4331 5.14667 12.4331C4.99691 12.4331 4.89083 12.3395 4.82968 12.1535C4.76728 11.9663 4.7236 11.8727 4.69864 11.8727C4.69864 12.0712 4.66121 12.2084 4.58508 12.2821C4.55887 12.2571 4.57135 12.1835 4.62252 12.0587C4.64873 12.01 4.59631 11.9838 4.46902 11.9838C4.29056 11.9838 3.60167 12.1336 2.40361 12.4318C2.37865 12.9784 2.29254 13.3266 2.14278 13.4751C2.49097 13.8483 2.66444 14.1852 2.66444 14.4835C2.66444 15.6017 2.48972 16.2856 2.14278 16.5339C2.09286 16.8322 2.0055 17.0306 1.88195 17.1317C2.23014 17.4799 2.40361 17.8031 2.40361 18.1002C2.40361 18.3997 2.34246 18.6231 2.21891 18.7728C2.16774 18.7229 2.11657 18.6231 2.0679 18.4733C2.01798 18.3248 1.96806 18.2249 1.91939 18.175C1.91939 18.2749 1.88819 18.4296 1.82579 18.6418C1.76464 18.8539 1.7322 18.9712 1.7322 18.9962C2.10534 19.1959 2.32998 19.4193 2.40361 19.6676C2.40361 21.3836 2.38364 22.7751 2.3462 23.8446C2.29504 24.5909 2.23388 25.145 2.15776 25.5044C2.08288 25.8638 2.04669 26.0074 2.04669 25.9325C2.04669 25.8089 2.21267 26.1084 2.54588 26.8285C2.40985 26.8547 2.24387 26.9408 2.04794 27.0906V28.3199C2.14777 28.3199 2.31375 28.4322 2.54588 28.6556C2.38739 28.8303 2.31001 28.9551 2.31001 29.0287H2.91154C3.69152 28.4322 4.84591 27.5885 6.37843 26.4928C6.52818 26.6675 6.59058 26.7549 6.56562 26.7549C6.56562 26.4566 6.59058 26.2819 6.64175 26.232C6.79151 26.3817 6.94002 26.4566 7.08977 26.4566C6.96373 26.2582 6.90258 26.096 6.90258 25.9699C6.90258 25.8464 6.98869 25.6841 7.1634 25.4857C7.33812 25.2873 7.43671 25.15 7.46292 25.0751C7.66135 25.4732 7.74871 25.8975 7.72375 26.3456C7.74871 26.3206 7.7849 26.0847 7.83482 25.6367C7.88474 25.2636 8.01078 25.0277 8.20921 24.9279C8.18425 24.7057 8.25164 24.3937 8.41513 23.9956C8.57612 23.5987 8.76956 23.3978 8.99419 23.3978C9.09278 23.3978 9.13022 23.424 9.10651 23.474C9.0803 23.5239 9.13022 23.5501 9.25627 23.5501C9.80288 22.4806 10.3495 21.3112 10.8974 20.0433C11.132 20.2679 11.2855 20.3677 11.3566 20.3415C11.3092 19.9933 11.3404 19.5029 11.4515 18.8689C11.5613 18.2312 11.6162 17.8393 11.6162 17.6896ZM2.17149 31.0779H1.97805V30.5937H2.19894L2.17149 31.0779ZM2.70063 29.2509L2.51343 29.1385L2.21516 29.6252L2.40111 29.7738L2.70063 29.2509ZM9.06782 27.908L8.99294 27.7221L8.65724 27.8718V28.0565L9.06782 27.908ZM9.47841 24.2539H9.25502L9.17889 24.7382H9.40353L9.47841 24.2539ZM9.89024 31.9477L9.66685 31.7992L9.36734 32.2847L9.55329 32.4344L9.89024 31.9477ZM10.0388 32.6953H9.73924V32.2847H10.0388V32.6953ZM10.5991 23.5064H10.3745L10.2247 22.8724H10.4493L10.5991 23.5064ZM10.5991 23.6936H10.3745L10.2247 24.3663H10.4493L10.5991 23.6936ZM10.5991 33.0547H10.4119L10.2247 32.7564L10.4119 32.6803L10.5991 33.0547ZM11.9968 15.3409C11.9968 15.1424 11.8458 14.8804 11.5438 14.5571C11.5688 14.6807 11.4789 14.9053 11.273 15.2285C11.0933 15.1786 11.0047 14.9552 11.0047 14.5571C10.8799 14.5571 10.7189 14.657 10.518 14.8554C10.5442 14.9303 10.6053 15.0414 10.7052 15.1911C10.805 15.3409 10.8799 15.4282 10.9298 15.4519C10.9298 15.4033 11.0434 15.3783 11.273 15.3783C11.4015 15.3783 11.5563 15.4769 11.736 15.6766C11.736 15.4532 11.8234 15.3409 11.9968 15.3409ZM11.0084 13.8483H10.7863L10.6378 14.3337L10.8225 14.4086L11.0084 13.8483ZM11.0846 35.5918C11.0097 35.5918 10.8961 35.6542 10.7476 35.7778C10.6727 35.6293 10.6365 35.4533 10.6365 35.2549C10.6365 35.0802 10.6727 34.9304 10.7476 34.8069C10.8237 34.9579 10.9348 35.2187 11.0846 35.5918ZM11.2718 22.0525L11.0484 21.9402L10.8612 22.352L11.0484 22.4269L11.2718 22.0525ZM12.3288 37.1568H12.1079V36.6339H12.33V37.1568H12.3288ZM12.9241 16.2357H12.7007L12.5147 16.7211L12.7381 16.796L12.9241 16.2357Z" fill="#015D5C"/>
<path d="M29.2851 30.1931C29.0592 30.1931 28.8983 30.1569 28.7984 30.082L28.6861 30.5787C28.6349 30.7921 28.5488 30.897 28.4228 30.897C28.2992 30.897 28.1931 30.8795 28.1058 30.8445C28.0184 30.8084 27.9123 30.7896 27.7875 30.7896C27.6628 30.7896 27.5642 30.8371 27.488 30.9319C27.4119 31.0255 27.3121 31.0729 27.1885 31.0729C27.065 31.0729 27.0375 31.0255 27.1136 30.9319C27.1885 30.8371 27.1636 30.7896 27.0388 30.7896C26.9127 30.7896 26.7767 30.8683 26.6269 31.0205C26.4759 31.174 26.3524 31.2489 26.2525 31.2489C26.1265 31.2489 26.0154 31.1902 25.9143 31.0742C25.8145 30.9556 25.7022 30.897 25.5774 30.897C25.4513 30.897 25.3153 30.9756 25.1655 31.1316C25.0145 31.2876 24.8785 31.3662 24.7537 31.3662C24.6539 31.3662 24.5041 31.3175 24.3044 31.2189C24.106 31.1228 23.9425 31.0742 23.819 31.0742C23.6929 31.0742 23.5931 31.1228 23.5195 31.2189C23.4446 31.3175 23.3447 31.3662 23.2212 31.3662C23.1201 31.3662 23.1026 31.3175 23.1638 31.2189C23.2262 31.1228 23.195 31.0742 23.0714 31.0742C22.9479 31.0742 22.697 31.199 22.3226 31.4486C21.8497 31.7992 21.5377 31.9989 21.3879 32.0488C21.5115 32.6491 21.6837 32.9374 21.9071 32.9112C21.9071 32.9861 21.937 33.1795 21.9994 33.4915C22.0606 33.8048 22.0918 34.0494 22.0918 34.2241C22.9317 35.351 23.7728 36.5004 24.6139 37.676C24.6376 37.8769 24.7 37.9755 24.7986 37.9755C24.9209 37.9755 25.1992 37.9256 25.6323 37.8232C26.0653 37.7222 26.3499 37.671 26.4859 37.671C26.6207 37.671 26.6768 37.6198 26.6519 37.5175V37.213C26.7667 37.3652 26.9152 37.379 27.0999 37.2504C27.075 37.505 27.1224 37.7471 27.2384 37.9755C27.3071 37.9755 27.4107 37.8994 27.5492 37.7484C27.4968 37.7222 27.4319 37.7159 27.3533 37.7297C27.2746 37.7421 27.2372 37.671 27.2372 37.5187C27.2372 37.3939 27.3657 37.2043 27.6228 36.9497C27.6091 37.9193 27.6091 38.4061 27.6228 38.4061C27.951 38.1814 28.1145 37.9331 28.1145 37.6585C28.1145 37.5612 28.0247 37.2242 27.8475 36.6501C27.971 36.6501 28.2543 36.8473 28.6998 37.2417V37.7596C28.1769 37.9318 27.83 38.2763 27.6565 38.7929C27.5055 38.7929 27.3445 38.7018 27.1723 38.5171C27.0725 38.6107 26.8865 38.8004 26.6132 39.0862H26.0915C26.1415 38.8466 26.104 38.607 25.9805 38.3674C25.8307 38.5583 25.5449 38.7992 25.1231 39.0862L24.8248 38.7929C24.8748 38.9115 24.7862 38.9701 24.5628 38.9701C24.438 38.9701 24.3881 38.9202 24.4143 38.8241C24.438 38.7255 24.3881 38.6781 24.2645 38.6781C24.1147 38.6781 24.0523 38.7143 24.0786 38.7867L24.1534 38.9701C24.1272 38.9701 24.0786 38.8928 24.0037 38.743C23.9275 38.5933 23.8177 38.5171 23.668 38.5171C23.5432 38.5171 23.4932 38.5433 23.5182 38.5957C23.5432 38.6494 23.4932 38.6756 23.3685 38.6756C23.2936 38.6756 23.0577 38.3249 22.6596 37.6223L22.3601 37.9568C22.2103 37.5574 22.0618 37.359 21.9121 37.359C21.7373 37.359 21.6512 37.4464 21.6512 37.6236C21.6013 37.4289 21.3779 37.1731 20.9786 36.8561C21.0772 36.76 21.1283 36.614 21.1283 36.418L20.7539 36.0549C20.6791 36.1547 20.6416 36.2545 20.6416 36.3544C20.5418 36.1797 20.3546 35.9675 20.0825 35.7192C20.231 35.5457 20.3072 35.346 20.3072 35.1214C20.3072 34.7732 20.12 34.3014 19.7468 33.7024C19.149 32.7078 18.8383 32.1849 18.8133 32.1337C18.9381 32.1337 19.0492 32.1711 19.149 32.246C19.1989 32.1 19.4223 31.8404 19.8217 31.471L19.5971 31.2476C19.5471 31.2963 19.4598 31.345 19.335 31.3924C19.2102 31.4411 19.149 31.4885 19.149 31.5359C19.1989 31.4373 19.174 31.2951 19.0742 31.1079C18.9731 30.9219 18.9244 30.7659 18.9244 30.6399C18.9244 30.54 19.0043 30.3416 19.1653 30.0421C19.3262 29.7451 19.4061 29.5067 19.4061 29.3332L19.7393 29.6315C19.8629 29.483 19.924 29.3345 19.924 29.1835C19.924 29.0599 19.7493 28.7979 19.3974 28.3985V27.7683C19.5721 27.6198 19.7331 27.314 19.8816 26.8535C20.0314 26.393 20.1175 26.1559 20.1424 26.1447C20.1674 26.1322 20.1911 26.076 20.2173 25.9762C20.2423 25.8776 20.3284 25.8277 20.4781 25.8277C20.5031 25.8277 20.5767 25.6467 20.7015 25.286C20.8263 24.9254 20.8875 24.6695 20.8875 24.5198L21.1857 24.818C21.3842 24.3925 21.7436 23.8671 22.2665 23.2406C23.0103 22.3396 23.6305 21.889 24.1272 21.889C26.2613 21.889 27.7264 22.7164 28.5214 24.3688C28.4702 24.2939 28.3953 24.2939 28.2967 24.3688C28.1719 24.4699 28.1108 24.5809 28.1108 24.7057C28.1857 24.7819 28.2593 24.7918 28.3342 24.7432C28.409 24.667 28.4465 24.5934 28.4465 24.5185C28.6699 24.7182 28.8571 25.004 29.0068 25.3771C28.6337 25.3771 28.4465 25.3272 28.4465 25.2274L28.2593 25.4895C28.4115 25.4895 28.6262 25.764 28.9057 26.3094C28.9569 26.3855 29.083 26.4217 29.2864 26.4217V30.1931H29.2851ZM20.1574 28.2525L19.9328 28.1764L19.7468 28.5495L19.9714 28.6256L20.1574 28.2525ZM20.4182 34.1517V33.7399H20.1936V34.1517H20.4182ZM21.7623 34.5261L21.5377 34.45L21.3505 34.8231L21.5739 34.8992L21.7623 34.5261ZM26.6519 29.5591C26.6519 29.4593 26.602 29.1922 26.5059 28.7554C26.4073 28.3199 26.3599 28.0016 26.3599 27.802C26.3087 26.0598 26.2101 24.8405 26.0603 24.1429C26.0341 23.9944 25.9106 23.8259 25.686 23.64C25.4601 23.454 25.2853 23.3592 25.1618 23.3592C24.287 24.0568 23.6505 24.7407 23.2499 25.4133C23.2 25.3647 23.1251 25.3135 23.0253 25.2648C22.9242 25.2149 22.8493 25.165 22.7994 25.1151C22.8256 25.8127 22.6371 26.5839 22.2378 27.4301C22.2378 27.4563 22.0755 27.4663 21.7511 27.4663C21.7511 27.9143 21.6874 28.4135 21.5639 28.9601C21.5639 29.0849 21.645 29.3083 21.806 29.6315C21.9657 29.956 22.0468 30.1919 22.0468 30.3404C24.0286 30.3404 25.5137 30.2418 26.5046 30.0421C26.5046 30.0171 26.5296 29.9672 26.5783 29.8936C26.6269 29.82 26.6519 29.7076 26.6519 29.5591ZM22.0244 34.0019L21.6338 33.816L21.5614 34.0406L21.9171 34.2253L22.0244 34.0019ZM22.0244 36.5041H21.8384L21.6512 36.9896L21.8746 37.1019L22.0244 36.5041Z" fill="#015D5C"/>
<path d="M45.7572 29.2184C45.7572 29.5666 45.6636 30.082 45.4776 30.7671C45.2904 31.4523 45.1981 32.1312 45.1981 32.8026C44.5529 32.8775 44.2172 33.1495 44.1922 33.6237C44.166 33.9233 44.1548 34.2215 44.1548 34.5198C43.8815 34.7444 43.26 35.1425 42.2915 35.7129C42.465 35.8639 42.5873 35.9001 42.6634 35.8264C42.2129 36.1247 41.5764 36.6476 40.7528 37.3964C40.8027 37.3452 40.8276 37.2891 40.8276 37.2279C40.8276 37.1643 40.8526 37.1081 40.9025 37.0594C40.8514 37.0083 40.764 36.9821 40.6404 36.9821C40.3409 36.9821 40.2398 37.1568 40.3409 37.505C40.2161 37.4563 40.0539 37.3689 39.8542 37.2441C39.8031 37.2441 39.7781 37.3702 39.7781 37.6185C39.7032 37.6185 39.5784 37.6435 39.4037 37.6934C39.2265 37.7433 39.078 37.7683 38.9532 37.7683C38.7785 37.7683 38.6599 37.7121 38.5963 37.5998C38.5339 37.4875 38.4914 37.3689 38.4665 37.2454C38.3167 37.2454 38.2418 37.3327 38.2418 37.5062H37.7551C37.7551 37.3078 37.6678 37.1343 37.493 36.9833C37.543 36.9833 37.4306 37.1094 37.1561 37.3577C37.055 37.4064 37.0063 37.5574 37.0063 37.8057C37.0063 37.9043 37.0188 38.0803 37.0438 38.3286C37.0438 38.577 37.0438 38.7754 37.0438 38.9252C37.0438 39.7463 36.8566 40.3316 36.4834 40.6811C36.5321 40.7297 36.6195 40.7297 36.7443 40.6811L37.0051 40.6049C37.0051 40.6299 37.03 40.716 37.0787 40.8658C37.1274 41.0155 37.1536 41.1516 37.1536 41.2776C37.1536 41.3762 37.0662 41.6183 36.894 42.0052C36.7205 42.3908 36.6332 42.6329 36.6332 42.7328C36.6332 42.6828 36.6831 42.9249 36.7817 43.4616C36.8803 43.9957 36.9052 44.5361 36.8566 45.0852C36.9065 45.3335 36.894 45.7067 36.8191 46.2059C36.7929 46.3294 36.8441 46.5091 36.9689 46.7475C37.0937 46.9821 37.1548 47.1506 37.1548 47.2504C37.1548 47.7471 37.03 48.2338 36.7817 48.7068C36.8803 48.9053 36.9552 49.1424 37.0063 49.4169C37.055 49.7639 36.9814 49.9873 36.7817 50.0883C36.9814 50.5102 36.9315 50.8209 36.6332 51.0206C36.6831 51.0693 36.8054 51.0967 37.0051 51.0967C37.1037 51.3937 37.0538 51.9666 36.8553 52.8139C36.7567 52.7128 36.6207 52.6642 36.4497 52.6642V53.1871H35.6785C35.6785 53.1372 35.7321 53.086 35.8432 53.0386C35.953 52.9874 36.0329 52.9375 36.0828 52.8876C35.9605 52.8876 35.691 52.8639 35.2741 52.8139C35.1032 52.8139 34.8336 52.6143 34.4667 52.2162V50.5364C34.6327 50.5364 34.7525 50.5102 34.8286 50.4602C34.7038 50.162 34.6414 49.9136 34.6414 49.7127C34.6414 49.538 34.6901 49.3757 34.7874 49.2272C34.8848 49.0787 34.9334 48.9789 34.9334 48.9302C34.9334 48.8042 34.8486 48.6432 34.6801 48.4448C34.5104 48.2438 34.4268 48.0953 34.4268 47.9967L34.6127 47.847C34.7862 47.0757 34.8748 46.4155 34.8748 45.8677C34.921 45.8677 35.0033 45.8415 35.1219 45.794C35.2392 45.7429 35.3203 45.7179 35.369 45.7179C35.2691 46.0649 35.2567 46.277 35.3315 46.3531C35.4301 46.2533 35.505 46.116 35.5562 45.9426C35.6048 45.5931 35.6423 45.4059 35.6672 45.3822C35.5425 45.2574 35.3178 45.2699 34.9971 45.4197C35.047 44.8468 34.9472 44.4862 34.7001 44.3377V40.2306C34.8985 40.2306 35.0857 40.1432 35.2604 39.9685C35.2604 39.8936 35.1855 39.7938 35.0358 39.6702L34.7001 39.8948C35.0083 39.4718 35.1643 39.1099 35.1643 38.8116C35.1406 38.7617 35.0458 38.7118 34.8798 38.6631C34.8798 38.6369 35.0345 37.7433 35.344 35.9749C35.344 35.9263 35.344 35.5294 35.344 34.7806C35.344 34.1828 35.2754 33.8846 35.1394 33.8846C35.0021 33.8846 34.9334 33.7723 34.9334 33.5476C35.0108 33.3742 35.0882 33.1994 35.1643 33.0247C35.344 32.6778 35.5474 32.4407 35.7771 32.3159C35.827 32.2909 35.8158 32.241 35.7396 32.1674C35.5287 32.3421 35.3103 32.3159 35.0882 32.0912C35.1618 30.4239 35.2866 29.4655 35.4601 29.2171C35.4601 29.4917 35.5162 29.6639 35.6286 29.7388C35.7022 29.5404 35.7134 29.3282 35.6648 29.1048C35.5275 28.8303 35.4588 28.6817 35.4588 28.6568C35.4588 28.4334 35.5587 28.3585 35.7584 28.4322C35.832 28.2824 35.8445 28.1588 35.7958 28.059C35.7696 28.059 35.8819 27.9716 36.1315 27.7969C35.6448 27.3502 35.3914 27.1068 35.3727 27.0694C35.3528 27.0332 35.3428 26.8884 35.3428 26.6401C35.3428 26.3418 35.4189 26.1171 35.5724 25.9686C35.5724 26.0186 35.6248 26.1171 35.7272 26.2669C35.8794 26.2669 36.0454 26.1795 36.2238 26.0048C36.2987 25.7303 36.1452 25.5942 35.7646 25.5942C35.6361 25.5942 35.5474 25.6067 35.4963 25.6304C35.4439 25.6566 35.3952 25.6679 35.3428 25.6679C35.4201 25.593 35.7134 25.4445 36.2238 25.2211C36.0666 25.0476 35.8707 24.7506 35.6361 24.33V23.5875C35.7097 23.5875 35.8208 23.6249 35.9718 23.6998C36.0217 23.6499 36.1015 23.595 36.2126 23.5326C36.3237 23.4702 36.4048 23.414 36.4547 23.3654C36.3549 23.0172 36.1689 22.5005 35.8969 21.8066V20.2479C36.5171 20.0545 36.9514 19.9559 37.1998 19.9559C37.2984 19.9559 37.4469 20.0545 37.6453 20.2479C37.7701 20.1992 37.8562 20.2117 37.9061 20.2853C37.7314 21.1252 37.6565 22.4955 37.6827 24.3987C37.7401 24.3987 37.8837 24.3001 38.117 24.1004C38.3155 24.4985 38.4028 24.8093 38.3779 25.0339C38.2531 24.8854 38.1407 24.8592 38.0422 24.9578C38.1407 25.0339 38.2893 25.1437 38.4889 25.2935C38.7123 24.9715 38.8359 24.6857 38.8621 24.4349C38.912 24.0879 38.9719 23.8021 39.048 23.5763L39.3837 23.8371C39.4586 23.8371 39.5335 23.8733 39.6071 23.9494L39.9428 23.7248C39.868 23.7759 39.868 23.8508 39.9428 23.9494C40.0427 24.048 40.155 24.0979 40.2785 24.0979C40.4033 23.9731 40.452 23.7997 40.4283 23.5763L40.6891 23.8383C40.8875 23.4639 41.1234 23.2792 41.3967 23.2792C41.5215 23.2792 41.6888 23.3479 41.9009 23.4839C42.1118 23.6212 42.2666 23.6898 42.3677 23.6898C42.5162 23.6898 42.6534 23.6262 42.7782 23.5026C42.7034 23.5788 42.752 23.6898 42.9267 23.8396C43.0016 23.7397 43.0391 23.6536 43.0391 23.5788C43.7105 23.7522 44.2571 24.2751 44.6789 25.1462C45.0021 25.8176 45.3129 26.4903 45.6112 27.1617C45.5113 27.1367 45.4252 27.1867 45.3503 27.3102C45.2006 27.5086 45.102 27.6222 45.0521 27.6472C45.1956 27.6734 45.379 27.7832 45.5974 27.9841C45.4502 27.9841 45.3428 27.9467 45.2705 27.8718C45.1257 27.9966 45.0533 28.0964 45.0533 28.1701C45.1968 28.3198 45.3179 28.3935 45.4152 28.3935C45.4876 28.3935 45.5238 28.3074 45.5238 28.1326C45.6785 28.4084 45.7572 28.7691 45.7572 29.2184ZM35.2954 51.6558L35.1082 51.5809L34.921 51.9541L35.1082 52.029L35.2954 51.6558ZM35.2854 28.5133H35.0233V28.1401H35.2854V28.5133ZM35.2854 37.6223V37.1368H35.0233V37.6223H35.2854ZM35.7384 37.5486C35.6885 37.5486 35.6024 37.5674 35.4776 37.6036C35.354 37.641 35.2666 37.6597 35.2167 37.6597C35.2167 37.8344 35.2479 37.9967 35.3091 38.1452C35.3715 38.2949 35.4027 38.3823 35.4027 38.4073C35.4027 38.2825 35.515 37.9967 35.7384 37.5486ZM35.7771 50.0509C35.5262 50.0509 35.4014 49.9623 35.4014 49.7888C35.4014 49.8388 35.3765 49.9136 35.329 50.0135C35.2804 50.1121 35.2567 50.1869 35.2567 50.2369C35.4813 50.2356 35.6535 50.1745 35.7771 50.0509ZM35.52 43.6675V43.1808H35.2854V43.6675H35.52ZM35.52 50.9083V50.5351H35.2854V50.9083H35.52ZM35.9643 31.7193L35.7771 31.5696L35.4788 32.055L35.6298 32.1686L35.9643 31.7193ZM36.154 38.5196L35.6323 38.3698C35.6822 38.4197 35.6822 38.4946 35.6323 38.5945C35.5574 38.743 35.5212 38.8291 35.5212 38.8553C35.5674 38.8054 35.681 38.7492 35.8544 38.688C36.0292 38.6244 36.1278 38.5695 36.154 38.5196ZM36.7829 47.9593L36.6332 47.8095L36.2975 48.1465L36.4472 48.295L36.7829 47.9593ZM36.8815 30.379C36.8815 30.2542 36.7817 30.082 36.5833 29.8573C36.4572 29.9821 36.3961 30.2055 36.3961 30.5288C36.446 30.5288 36.5333 30.5038 36.6569 30.4539C36.7804 30.404 36.8566 30.379 36.8815 30.379ZM36.9302 49.4906H36.7443L36.5583 49.9373L36.7817 50.0135L36.9302 49.4906ZM43.8615 29.1984C43.7991 29.136 43.7679 29.0936 43.7679 29.0686C43.693 29.1672 43.6568 29.2745 43.6568 29.3856C43.6568 29.4992 43.5557 29.6165 43.3586 29.74C43.3136 29.2433 43.2737 28.527 43.2412 27.5935C43.2075 26.66 43.1676 25.9449 43.1239 25.447L42.7845 25.5955C42.6834 25.5955 42.5948 25.5019 42.5199 25.3147C42.4438 25.1287 42.3439 25.0351 42.2179 25.0351C40.5069 25.0351 39.0593 25.5581 37.8774 26.6026C37.7763 27.5735 37.5742 28.1838 37.2734 28.4334V29.8511C37.2734 30.0508 37.3495 30.1506 37.5018 30.1506C37.4519 30.2005 37.4331 30.2866 37.4456 30.4114C37.4581 30.5362 37.4394 30.6236 37.3907 30.6735C37.2622 30.5974 37.1361 30.5612 37.0126 30.5612V31.9789C37.2647 32.1299 37.3907 32.3283 37.3907 32.5767C37.3907 32.7265 37.3383 32.9374 37.2372 33.2119C37.1349 33.187 37.0388 33.1196 36.9514 33.0072C36.8628 32.8949 36.8054 32.8375 36.7792 32.8375C36.9028 33.0859 36.9402 33.3355 36.8915 33.5851C37.1885 33.5851 37.3745 33.635 37.4494 33.7348C37.4494 34.4312 37.4294 34.9653 37.3907 35.3397C37.3508 35.7116 37.3308 35.8501 37.3308 35.7491C37.4831 35.7004 37.7476 35.7116 38.127 35.7865C38.5064 35.8626 38.7198 35.8988 38.771 35.8988C38.9707 35.8988 39.2502 35.7253 39.6034 35.3747C39.7806 35.5269 39.8692 35.6617 39.8692 35.7865C40.1912 35.2648 40.5269 34.8168 40.8763 34.4437C41.0498 34.6196 41.1484 34.7057 41.1746 34.7057C41.4454 33.9832 41.841 33.3342 42.3589 32.7626C42.5561 31.6182 42.8893 30.7721 43.3586 30.2243L43.9551 29.4767C43.9551 29.3544 43.9239 29.2608 43.8615 29.1984ZM37.9074 36.2732V35.7877H37.684V36.2732H37.9074ZM40.2798 25.0364V24.5135H40.0564V25.0364H40.2798ZM41.8073 24.3999L41.6576 23.58H41.4342L41.5452 24.3999H41.8073ZM43.4122 33.8097C43.2874 33.761 43.1139 33.6612 42.8906 33.5114V34.1467C43.0154 34.098 43.1888 33.9844 43.4122 33.8097ZM43.7517 31.2002V30.3054H43.4908V31.2002H43.7517ZM44.9822 32.5779L44.498 32.1299L44.3482 32.2422L44.8337 32.7277L44.9822 32.5779Z" fill="#015D5C"/>
<path d="M50.2848 32.135H50.0602V31.7643H50.2848V32.135ZM60.718 30.4801C60.718 30.7559 60.668 31.179 60.5695 31.7506C60.4209 32.4482 60.2724 32.7951 60.1239 32.7951H59.6385L59.4151 33.0198C59.44 33.1209 59.5149 33.2694 59.6385 33.4691C59.6634 33.4691 59.737 33.4129 59.8618 33.3006C59.9866 33.1883 60.0865 33.1196 60.1614 33.0947C59.9617 34.0157 59.6497 35.2973 59.2279 36.9397C59.2279 36.8411 59.1767 36.7413 59.0781 36.6414C59.0032 36.891 58.967 37.2517 58.967 37.7234C58.9159 37.6485 58.8535 37.5637 58.7798 37.4626C58.6051 37.4888 58.4554 37.6248 58.3318 37.8732C58.1571 38.2975 58.046 38.5446 57.9961 38.6207C57.4982 38.6719 57.0863 38.8666 56.7631 39.206C56.7631 39.0787 56.8006 38.9677 56.8754 38.8678L56.6895 38.6806C56.4149 38.8491 56.0043 39.1024 55.4577 39.4406C55.3828 39.246 55.1457 39.1486 54.7476 39.1486C54.9473 38.7181 55.6811 37.6835 56.9516 36.0399C57.0514 35.2949 57.2636 34.0993 57.5868 32.4569C57.6367 32.2323 57.8726 31.9465 58.2969 31.5983C58.6438 31.2739 58.7686 30.9144 58.67 30.5163C58.67 30.7397 58.71 30.877 58.7911 30.9257V30.1394C58.6625 30.2143 58.4853 30.389 58.2557 30.6623C58.4142 30.2143 58.4953 29.7913 58.4953 29.3919C58.4953 29.0188 58.3817 28.2849 58.1571 27.1892C57.9063 25.8701 57.6567 25.2112 57.4058 25.2112C57.3047 25.2112 57.2685 25.2299 57.2935 25.2661C57.3185 25.3035 57.2685 25.3222 57.1437 25.3222C57.0165 25.3222 56.8305 25.1974 56.5797 24.9491C56.3288 24.702 56.1791 24.4761 56.1291 24.2777C55.147 24.8243 54.2821 26.0373 53.5333 27.9168C52.7846 29.7963 52.4114 31.5072 52.4114 33.0497C52.4114 35.1164 53.2026 36.7101 54.7876 37.8295C54.9361 37.9044 55.011 38.129 55.011 38.5009C54.7127 38.5009 54.5629 38.5795 54.5629 38.7355C54.5629 38.5795 54.5005 38.5009 54.377 38.5009L54.0038 38.8004C53.9539 38.6557 53.8541 38.4323 53.7068 38.1328C53.3611 38.1827 53.1627 38.1402 53.1128 38.003C53.0641 37.8657 53.0129 37.7234 52.9643 37.5724C52.8894 37.6723 52.8532 37.7584 52.8532 37.8332C52.7296 37.7584 52.5687 37.5425 52.3715 37.1805C52.1718 36.8199 52.0121 36.6389 51.8897 36.6389C51.765 36.6389 51.6913 36.6651 51.6664 36.7138C51.6414 36.765 51.6164 36.7899 51.5927 36.7899C51.5678 36.2433 51.6052 35.8315 51.705 35.5582L51.5179 35.3335C51.4916 35.3835 51.3931 35.6455 51.2196 36.1173C51.0199 35.6705 50.7454 34.9866 50.3972 34.0631V33.6163C50.497 33.6912 50.6343 33.7274 50.809 33.7274C50.8839 33.6787 50.9213 33.5664 50.9213 33.3917C50.9213 33.167 50.7454 32.7939 50.3984 32.2722C50.4483 32.3484 50.5232 32.3484 50.6231 32.2722C50.7229 32.2236 50.7728 32.1599 50.7728 32.085C50.6717 31.5384 50.7341 30.4939 50.9588 28.9489C51.0087 28.9489 51.1073 28.9863 51.257 29.0612C51.5054 29.0125 51.6177 28.6643 51.5927 28.0154C51.9122 28.0154 52.0607 28.0154 52.0358 28.0154C52.2342 27.8669 52.3191 27.6684 52.2953 27.4188C52.2454 27.0195 52.2217 26.7961 52.2217 26.7449C52.4426 26.4729 52.8382 26.0623 53.406 25.5144C53.406 25.2162 53.3312 25.1538 53.1814 25.3285C53.8042 24.1342 54.1898 23.449 54.3395 23.2743C54.7127 22.8762 55.298 22.6765 56.0942 22.6765C56.194 22.6765 56.2752 22.7202 56.3376 22.8076C56.4 22.8949 56.4936 22.9374 56.6171 22.9374C56.7906 22.9374 57.0402 22.85 57.3646 22.6753C57.3646 22.5517 57.3397 22.664 57.2898 23.0122C57.2898 23.1383 57.3522 23.1994 57.4757 23.1994C57.5993 23.1994 57.6741 23.1807 57.6991 23.1433C57.7241 23.1071 57.749 23.0871 57.7752 23.0871C57.7752 23.137 57.7553 23.2119 57.7178 23.3117C57.6816 23.4116 57.6629 23.4865 57.6629 23.5351L57.8863 23.761C58.1359 23.5127 58.2607 23.3367 58.2607 23.2381C59.1293 24.058 59.7358 24.9553 60.0852 25.925C60.5071 27.0457 60.718 28.5645 60.718 30.4801ZM51.2183 30.7896L51.0324 30.4177L50.8452 30.4926L51.0324 30.7896H51.2183ZM51.4168 31.9116C51.3282 31.9116 51.2283 31.954 51.116 32.0414C51.0037 32.1287 50.9475 32.2098 50.9475 32.2835C50.9725 32.2348 51.0099 32.2086 51.0598 32.2086C51.297 32.2086 51.3968 32.407 51.3581 32.8051C51.3968 32.7078 51.4168 32.4083 51.4168 31.9116ZM51.4754 30.5288V30.0434H51.2421V30.5288H51.4754ZM52.2941 34.7857V34.3002H52.0657V34.7857H52.2941ZM56.3912 23.0247L56.204 22.9498L56.0181 23.2868L56.204 23.3617L56.3912 23.0247ZM57.8451 24.5185L57.6966 24.1441L57.5094 24.2203L57.6592 24.5185H57.8451ZM58.554 32.135V31.7643H58.3193V32.135H58.554ZM59.274 25.1163L59.2366 24.9304L58.7911 25.0789V25.2661L59.274 25.1163Z" fill="#015D5C"/>
<path d="M75.6538 28.1738C75.6538 28.3236 75.4554 28.5345 75.0573 28.809C74.8826 28.6356 74.7703 28.547 74.7203 28.547C74.6704 28.7728 74.5706 29.0848 74.4208 29.4829C74.4208 29.433 74.3834 29.3457 74.3097 29.2209L73.974 29.4455C74.0988 29.3207 74.1101 29.1959 74.0115 29.0711C73.9616 29.1472 73.8255 29.1822 73.6021 29.1822C73.7332 29.0087 73.7993 28.8203 73.7993 28.6218C73.7993 28.497 73.7332 28.3361 73.6059 28.1364C73.4761 27.9367 73.3887 27.7757 73.3426 27.6497C73.516 27.8244 73.6533 27.9105 73.7519 27.9105C73.9004 27.762 73.9753 27.6497 73.9753 27.5748C73.9753 27.2503 73.8642 26.977 73.6396 26.7524C73.3912 27.002 73.2914 27.1268 73.3413 27.1268C73.3663 26.7536 73.2802 26.5165 73.0817 26.4167C73.3064 26.217 73.4437 25.8938 73.4923 25.4457C73.2939 25.4457 73.1941 25.4719 73.1941 25.5206C73.1192 25.2972 72.9457 25.1849 72.6736 25.1849C72.5738 25.1849 72.5127 25.2099 72.4877 25.2598C72.4615 25.3085 72.4003 25.3347 72.3018 25.3347C72.152 25.3347 71.991 25.1599 71.8175 24.8118C71.6678 24.8617 71.518 25.0738 71.3708 25.447C71.3445 25.447 71.246 25.3609 71.0725 25.1862C70.899 25.3609 70.8117 25.5343 70.8117 25.7091C70.8366 25.5343 70.763 25.4095 70.5895 25.3347C70.4897 25.5094 70.4398 25.759 70.4398 26.0822C70.3137 25.9087 70.0991 25.8214 69.7958 25.8214L69.5312 26.0822C69.5312 26.2582 69.5312 26.5065 69.5312 26.831C69.1968 27.1055 68.9172 27.8169 68.6888 28.9613C68.5091 29.7837 68.4205 30.3703 68.4205 30.7184C68.4205 31.0167 68.5054 31.1665 68.6776 31.1665C68.7999 31.1665 68.8623 31.1041 68.8623 30.9805C68.8623 31.2551 68.7088 31.4672 68.4043 31.6157L68.6539 31.8404V32.6628C68.5566 32.7876 68.3332 33.0871 67.985 33.5601L68.0973 34.269C68.1722 34.2203 68.2583 34.0892 68.3569 33.8783C68.458 33.6662 68.5441 33.5489 68.619 33.5239C68.5703 33.6225 68.5703 33.7361 68.619 33.8596C68.6814 34.0356 68.7126 34.1342 68.7126 34.1591C68.7126 34.259 68.6502 34.3588 68.5254 34.4586L68.75 34.6446C68.8748 34.5947 68.9746 34.5685 69.0495 34.5685C68.8998 34.6446 68.8498 34.843 68.8998 35.1662C69.0483 35.0165 69.1244 34.9179 69.1244 34.868C69.1244 35.1675 69.1818 35.6105 69.2991 36.1946C69.4152 36.7799 69.4738 37.1094 69.4738 37.1842C69.4738 37.8332 69.2729 38.3311 68.8723 38.6806L68.609 38.4185C68.5828 38.4447 68.5765 38.4934 68.589 38.5682C68.6015 38.6431 68.5453 38.6806 68.4205 38.6806C67.7416 38.6806 67.2649 38.1439 66.9891 37.0719C66.8144 36.4242 66.7258 35.7516 66.7258 35.0539C66.7258 34.7057 66.9367 34.3813 67.361 34.0818L67.1364 33.8571L66.616 34.0069C66.4937 33.8322 66.4337 33.6587 66.4337 33.484C66.4337 33.3592 66.4961 33.1345 66.6222 32.8113C66.7482 32.4868 66.8231 32.1873 66.8493 31.9128C66.8231 31.8391 66.7744 31.8017 66.6996 31.8017C66.5997 31.9015 66.5498 32.05 66.5498 32.2485C66.5498 30.8046 66.5698 29.8311 66.6085 29.3332C66.5074 29.4081 66.4213 29.4443 66.3476 29.4443C66.2466 29.1472 66.1979 28.7591 66.1979 28.2861C65.9994 28.3111 65.9009 28.4833 65.9009 28.809C65.8247 28.7841 65.7511 28.7466 65.675 28.698C65.6001 28.6481 65.5639 28.5607 65.5639 28.4346C65.5639 28.2362 65.6637 27.9367 65.8634 27.5386C65.9371 27.6135 66.0132 27.6497 66.0868 27.6497C66.1367 27.601 66.1242 27.4874 66.0494 27.3127C66.0232 27.1879 66.0743 27.1268 66.1979 27.1268C66.3214 27.1268 66.3788 27.1642 66.3664 27.2391C66.3539 27.314 66.3601 27.3639 66.3863 27.3876C66.6135 27.1642 66.727 26.7037 66.727 26.0061V25.8189C66.727 25.3946 66.7507 25.0713 66.7982 24.8467C67.1014 24.6732 67.2549 24.4736 67.2549 24.2489L67.039 24.0243L66.7869 24.2864C66.7869 24.1616 66.8294 24.0255 66.913 23.8758C66.9966 23.726 67.039 23.6399 67.039 23.6137C67.039 23.5376 66.9791 23.4889 66.8593 23.4652C66.9067 23.4153 66.9666 23.4277 67.039 23.5014C67.1825 23.4028 67.2549 23.2268 67.2549 22.9785C67.2549 22.7538 67.1376 22.5666 66.903 22.4169C66.9292 22.1935 67.0066 21.7442 67.1376 21.0716C68.0349 21.1227 68.4829 21.3711 68.4829 21.8203C68.4829 21.8952 68.463 22.045 68.4255 22.2684C68.3756 22.4443 68.3756 22.5666 68.4255 22.6428C68.4255 22.7676 68.3843 22.9473 68.3057 23.1856C68.2258 23.4228 68.1996 23.6162 68.2246 23.7647L68.4842 23.5026C68.5341 23.6025 68.5341 23.7273 68.4842 23.877C68.4455 24.0767 68.4268 24.214 68.4268 24.2889C68.4268 24.4137 68.6127 24.6745 68.9859 25.0726C69.208 24.7993 69.4326 24.5385 69.6573 24.2889C69.9555 23.9394 70.1665 23.7647 70.29 23.7647C70.4148 23.7647 70.4635 23.7909 70.4398 23.8408C70.3898 23.9394 70.3898 24.0018 70.4398 24.0255L70.7767 23.6524C70.9502 23.6524 71.0375 23.5663 71.0375 23.3903C71.211 23.4165 71.4481 23.5413 71.7464 23.7647C71.7963 23.7647 71.8699 23.6961 71.9698 23.56C72.0696 23.4228 72.1445 23.3416 72.1932 23.3179C72.4415 23.268 72.9257 23.2418 73.6483 23.2418C73.7232 23.2418 73.984 23.3791 74.4308 23.6524C74.779 24.4249 74.9537 24.9241 74.9537 25.1475C74.9537 25.1974 74.9412 25.4095 74.9163 25.7839C74.8663 26.0585 74.8663 26.2694 74.9163 26.4192C74.9662 26.5689 75.1022 26.8672 75.3269 27.3165C75.5415 27.7632 75.6538 28.049 75.6538 28.1738ZM66.8618 28.0665C66.8119 28.0665 66.7245 28.0915 66.601 28.1414C66.4762 28.19 66.3888 28.215 66.3401 28.215C66.4387 28.2911 66.5511 28.366 66.6771 28.4396C66.7495 28.3648 66.8119 28.2387 66.8618 28.0665ZM67.376 33.7049C67.2512 33.132 67.1888 32.7589 67.1888 32.5854C67.0652 32.9586 66.9142 33.333 66.7407 33.7049C66.7657 33.7049 66.9766 33.7049 67.376 33.7049ZM67.1301 26.1908V25.8551H66.9167L66.8967 26.1908H67.1301ZM67.7329 31.1652C67.4084 31.2414 67.2474 31.4523 67.2474 31.8004C67.2474 31.9265 67.3597 32.1 67.5844 32.3234C67.6817 31.9989 67.7329 31.6133 67.7329 31.1652ZM67.7329 22.2284H67.2474C67.2474 22.2784 67.3473 22.4032 67.5457 22.6028C67.6206 22.528 67.6817 22.4032 67.7329 22.2284ZM68.0686 21.7055H67.844L67.6942 22.1536L67.8814 22.2284L68.0686 21.7055ZM70.1402 26.4541H69.9169V26.1171H70.1402V26.4541ZM71.9648 24.6583V24.3213H71.7402V24.6583H71.9648ZM72.9332 24.174C72.8321 24.174 72.7086 24.2364 72.5588 24.3587C72.8321 24.4848 72.932 24.7219 72.8583 25.0688C72.907 24.9703 72.9332 24.6707 72.9332 24.174ZM74.0327 26.6014V26.0048H73.7993V26.6014H74.0327ZM74.432 26.7524H74.2087L74.1338 27.5012H74.3584L74.432 26.7524ZM74.6642 25.8176L74.5157 25.4432L74.3297 25.5194L74.4782 25.8176H74.6642Z" fill="#015D5C"/>
<path d="M78.5017 24.7806V24.1441H78.7625V24.7806H78.5017ZM90.0967 35.0877C90.0705 35.2624 89.6861 35.7104 88.9386 36.4305C88.1411 37.228 87.5695 37.6261 87.2213 37.6261C86.4002 37.6261 85.7163 37.1281 85.1672 36.131C84.9188 35.5332 84.6705 34.9354 84.4234 34.3364C84.497 34.2877 84.5569 34.274 84.6068 34.2989C84.7304 34.3501 84.8415 34.3751 84.9438 34.3751C84.6443 33.9008 84.4596 33.5402 84.3884 33.2906C84.4608 32.9436 84.3772 32.0588 84.1438 30.6386C84.2437 30.5138 84.356 30.389 84.4808 30.2642C84.4309 30.1881 84.3522 30.102 84.2462 30.0034C84.1401 29.9036 84.0864 29.7663 84.0864 29.5916C84.0864 29.5167 84.1239 29.4605 84.2037 29.4231C84.2824 29.3857 84.321 29.317 84.321 29.2172C84.321 29.0687 84.2462 28.7941 84.0977 28.3948C84.1214 28.2213 84.1663 28.0715 84.2274 27.948C84.2898 27.8219 84.3198 27.7233 84.3198 27.6485C84.3198 27.7483 84.2699 27.8357 84.1713 27.9105C84.0714 27.9605 83.9853 27.948 83.9105 27.8731V27.0519C84.0465 26.7025 84.1838 26.4916 84.3198 26.4167C84.2948 25.769 84.2337 25.2711 84.1338 24.9216C84.2337 24.873 84.3385 24.7794 84.4496 24.6421C84.5607 24.5048 84.628 24.4362 84.653 24.4362C84.8989 24.6845 85.0224 24.8343 85.0224 24.8829C85.0224 24.5859 85.1846 24.4362 85.5091 24.4362C85.5578 24.5123 85.6189 24.4624 85.6938 24.2877C85.7687 24.1142 85.8186 24.0019 85.8436 23.9507C86.1406 24.2739 86.3902 24.4861 86.5911 24.5859C86.666 24.8854 86.7147 25.1213 86.7396 25.2935C86.9381 24.5248 86.9518 23.8047 86.7771 23.1358C85.8298 23.1844 85.0935 23.1358 84.5681 22.986C84.5681 22.7888 84.5182 22.5405 84.4196 22.241C84.2199 21.8204 84.1076 21.5845 84.0827 21.5346L84.4196 21.2376C84.5444 21.1128 84.7054 21.0629 84.9051 21.0878V18.4446C84.5519 18.024 84.3497 17.7008 84.2998 17.4774C84.326 17.4525 84.4072 17.3976 84.5457 17.3102C84.6842 17.2228 84.7541 17.143 84.7541 17.0681C84.4259 17.0681 84.2599 16.9445 84.2599 16.6962C84.336 16.6475 84.3972 16.6213 84.4471 16.6213C84.5956 16.5976 84.6705 16.6588 84.6705 16.8073C84.6705 15.89 84.5532 15.2448 84.3198 14.8716C84.3198 15.3184 84.2212 15.5431 84.0253 15.5431C83.8518 15.145 83.7407 14.8629 83.6921 14.6957C82.8759 14.9702 82.5427 15.4045 82.6912 16.0011C82.8409 16.0011 82.9171 16.1383 82.9171 16.4117C82.5789 16.6113 82.3817 16.9096 82.3305 17.3077C82.3305 17.606 82.3305 17.9055 82.3305 18.2038C82.3305 18.1052 82.3829 17.9928 82.4878 17.868C82.7735 18.3161 82.9171 18.8502 82.9171 19.4729C82.9171 19.7213 82.8097 19.9597 82.5988 20.1818C82.9957 20.3316 83.2677 20.4314 83.4163 20.4801C83.1929 20.6548 82.9957 21.0404 82.821 21.6382C82.6962 22.1336 82.5739 22.6328 82.4491 23.1295C81.7539 23.1295 81.0226 23.2418 80.2539 23.4665C79.3366 23.7647 78.8773 24.1267 78.8773 24.5485C78.8773 24.8967 78.9635 25.1463 79.1357 25.2948C79.6536 25.0215 79.9731 24.9104 80.0966 24.9591C80.3924 25.4321 80.8853 25.7303 81.5755 25.8551C82.1171 25.93 82.3879 26.1921 82.3879 26.6388C82.3879 26.8635 82.2968 27.1867 82.1134 27.6098C82.5302 27.6098 82.7386 27.8219 82.7386 28.2438C82.7386 28.4185 82.6737 28.5807 82.5452 28.7292C82.3879 28.9551 82.2968 29.0899 82.2706 29.1398C82.192 29.3145 82.1533 29.6003 82.1533 29.9984C82.1533 30.6948 82.1283 31.1428 82.0784 31.3437C82.5589 31.3437 82.8359 31.4785 82.9146 31.7518C82.7186 31.9515 82.5364 32.0501 82.3667 32.0501L81.9649 31.7131C81.9898 32.4607 82.0023 33.0198 82.0023 33.3929C82.0023 32.87 82.0747 32.4732 82.2157 32.1986C82.65 32.1736 82.9283 32.2123 83.0543 32.3097C82.9046 32.4607 82.7161 32.734 82.4865 33.1321C82.2581 33.5302 82.0722 33.8172 81.9274 33.9919C82.2394 34.2403 82.4903 34.4287 82.6812 34.5523C82.6812 34.4549 82.7361 34.3401 82.8447 34.2153L83.0905 34.5136V36.3094L82.6051 36.8336C82.7299 36.9596 82.952 37.2953 83.274 37.8445C83.4961 38.2438 83.6933 38.4435 83.8668 38.4435C83.9891 38.4435 84.039 38.4148 84.014 38.3561C83.9878 38.2975 84.0502 38.2675 84.1987 38.2675C84.371 38.2675 84.4571 38.4447 84.4571 38.7942C84.9039 38.5608 85.2034 38.4447 85.3531 38.4447C85.5029 38.4447 85.6576 38.5508 85.8199 38.7655C85.9821 38.9801 86.1368 39.0887 86.2866 39.0887C86.4351 39.0887 86.4913 39.0675 86.4551 39.0288C86.4189 38.9914 86.4738 38.9714 86.6236 38.9714C86.7983 38.9714 86.8782 39.0425 86.8669 39.1873C86.8519 39.3308 86.8719 39.4157 86.9218 39.4394C86.9218 39.2235 87.0204 39.0088 87.2201 38.7942C87.3936 38.9614 87.3686 39.1761 87.1452 39.4394H87.743C88.1898 38.9452 88.5392 38.7118 88.7888 38.7368C88.7626 38.6694 88.7514 38.592 88.7514 38.5021C88.7514 38.2738 88.8874 38.0192 89.162 37.7396C89.4103 37.54 89.6586 37.3278 89.9082 37.1032C90.1079 37.3028 90.2452 37.4014 90.3201 37.4014C90.0954 36.7038 90.1566 36.1335 90.506 35.6842C90.234 35.4109 90.0967 35.2112 90.0967 35.0877ZM82.3318 26.2719V25.6742H82.6238V26.2719H82.3318ZM82.7099 20.5911L82.5239 21.3761H82.7848L83.0094 20.5911H82.7099ZM82.8272 31.164L82.6238 30.0446H82.9483L83.1504 31.164H82.8272ZM83.3264 28.2512L82.8796 28.0266L82.9919 27.7658L83.4387 27.9904L83.3264 28.2512ZM83.4549 18.7242L83.1929 18.7978L83.4175 19.3581H83.6421L83.4549 18.7242ZM83.3638 26.6089V26.0124H83.6259V26.6089H83.3638ZM83.7382 21.9053L83.5136 22.352L83.7744 22.4644L83.9604 22.0163L83.7382 21.9053ZM83.8867 30.0059L83.7008 30.4539L83.9254 30.5662L84.1501 30.1182L83.8867 30.0059ZM84.4471 18.9188L84.185 18.8065L84.4096 18.3959L84.633 18.4708L84.4471 18.9188ZM87.0604 38.3861L86.6498 38.5795V38.8541L87.1365 38.6195L87.0604 38.3861ZM87.5071 23.137H87.2089V23.7735H87.5071V23.137ZM87.8066 23.5102V23.2106H88.2921V23.5102H87.8066Z" fill="#015D5C"/>
<path d="M124.07 13.6162C123.971 13.9157 123.796 14.3625 123.548 14.9615C123.323 15.0364 123.081 15.1175 122.82 15.2036C122.558 15.2922 122.391 15.4956 122.316 15.8201L121.83 15.3346C121.482 15.8575 121.072 16.5926 120.6 17.5386C120.35 17.5885 119.745 17.9179 118.788 18.5282C117.831 19.1385 117.363 19.443 117.389 19.443C117.214 19.443 117.128 19.5428 117.128 19.7425C117.051 19.7425 116.915 19.8049 116.716 19.9284C116.716 19.7038 116.68 19.5416 116.604 19.443C116.405 19.6427 116.106 19.9546 115.708 20.3777C115.708 20.7259 115.871 20.9006 116.194 20.9006C116.318 20.9006 116.379 20.8694 116.379 20.807C116.379 20.7446 116.455 20.7134 116.604 20.7134C116.754 20.7134 116.908 20.7883 117.07 20.9381C117.231 21.0878 117.339 21.1752 117.389 21.2001H117.762C117.91 21.2001 118.016 21.1752 118.079 21.1253C118.143 21.0753 118.185 21.0491 118.209 21.0491C118.209 21.0753 118.084 21.3349 117.836 21.8341C117.836 21.7842 117.773 21.6731 117.65 21.4972C117.375 21.4722 117.239 21.6594 117.239 22.0562C117.239 21.9077 117.125 21.8329 116.902 21.8329C116.754 21.8329 116.654 21.8578 116.604 21.9077C116.654 21.8329 116.591 21.6968 116.418 21.4972C116.268 21.4972 116.182 21.7093 116.157 22.1324C116.007 22.1324 115.77 22.1324 115.449 22.1324C115.124 22.1324 114.902 22.1324 114.777 22.1324C114.627 22.1324 114.552 22.2447 114.552 22.4693C114.451 22.3208 114.24 22.1087 113.916 21.8341C113.889 21.8591 113.853 21.9701 113.803 22.1711C113.755 22.3695 113.655 22.4693 113.505 22.4693C113.357 22.4693 113.288 22.4257 113.3 22.3395C113.313 22.2522 113.293 22.1835 113.244 22.1336C113.096 22.3083 112.834 22.5205 112.459 22.7688L112.162 22.4706C112.112 22.4968 112.099 22.5829 112.125 22.7327C112.15 22.8812 112.09 22.956 111.938 22.956C111.987 22.956 111.727 22.9311 111.155 22.8812C110.781 22.8312 110.442 22.845 110.137 22.9174C110.036 23.5663 109.987 24.7357 109.987 26.4279C109.961 27.8481 109.821 28.9301 109.568 29.6777L109.605 30.0508C109.63 30.2505 109.63 30.4115 109.605 30.5375C109.579 30.7122 109.503 30.8121 109.375 30.8358C109.375 30.8108 109.375 30.7934 109.375 30.7796C109.375 30.7672 109.375 30.7734 109.375 30.7983C109.375 30.8246 109.375 30.8982 109.375 31.023C109.375 31.149 109.434 31.2601 109.551 31.3599C109.8 31.5584 109.95 31.6844 109.999 31.7331C109.901 31.9827 109.714 32.3933 109.447 32.9661C109.516 32.84 109.551 32.6553 109.551 32.4045H109.202C109.202 32.5555 109.096 32.7427 108.886 32.9661C108.677 33.1907 108.572 33.3629 108.572 33.489C108.572 33.615 108.633 33.7511 108.756 33.8996C108.708 33.8247 108.62 33.8247 108.498 33.8996C108.422 33.9994 108.387 34.0855 108.387 34.1604C108.434 34.0119 108.398 33.7885 108.275 33.489C108.149 33.1907 108.089 33.0023 108.089 32.9287C108.089 32.7789 108.175 32.5805 108.351 32.3309C108.599 31.9577 108.727 31.758 108.727 31.7331C108.799 31.6844 108.725 31.6582 108.501 31.6582C108.351 31.6582 108.275 31.7081 108.275 31.808C108.275 31.9078 108.212 31.9452 108.089 31.9203H107.638C108.095 31.622 108.323 31.2351 108.323 30.7609C108.323 30.5375 108.261 30.258 108.14 29.921C108.013 29.5841 107.952 29.3919 107.952 29.342C107.952 29.1672 108.014 28.8141 108.14 28.2774C108.262 27.742 108.323 27.3502 108.323 27.1006C108.323 26.8048 108.268 26.5652 108.161 26.3917C108.139 26.2669 108.281 26.0435 108.585 25.7203C108.536 25.6716 108.492 25.578 108.454 25.4408C108.418 25.3035 108.375 25.2086 108.325 25.1587C108.281 25.2086 108.234 25.3147 108.179 25.477C108.125 25.6392 108.076 25.744 108.033 25.7939C108.046 25.5693 108.164 25.145 108.391 24.5223C108.614 23.9756 108.729 23.6262 108.729 23.4765C108.729 23.3517 108.62 23.2094 108.408 23.0471C108.197 22.8849 108.091 22.7913 108.091 22.7651L108.201 22.3183C108.201 22.543 108.337 22.654 108.612 22.654C108.712 22.2073 108.441 21.8703 107.799 21.6469L107.827 21.0491C107.949 21.149 108.059 21.1976 108.159 21.1976C108.231 21.099 108.267 21.0005 108.267 20.9006C108.267 20.8245 108.239 20.7147 108.18 20.5637C108.121 20.4152 108.093 20.3016 108.093 20.2267C108.093 20.0021 108.322 19.8161 108.78 19.6664C108.63 18.4458 108.519 17.2128 108.443 15.9686L108.006 16.2669C108.006 16.192 108.049 16.006 108.137 15.7065C108.224 15.4083 108.267 15.1961 108.267 15.0713V13.2418C108.071 13.0421 107.889 13.0309 107.717 13.2043C107.89 13.0546 107.978 12.8686 107.978 12.644C107.978 12.4955 107.85 12.2222 107.601 11.8228C107.351 11.4235 107.211 11.1502 107.188 11.0004C107.213 10.9268 107.3 10.7895 107.449 10.5898V11.1127C107.548 11.1626 107.697 11.25 107.895 11.3735C108.144 11.2487 108.267 10.9505 108.267 10.4762C108.498 10.2029 108.702 10.3028 108.88 10.7758C109.133 10.7758 109.262 10.6148 109.262 10.289C109.312 10.289 109.435 10.3889 109.633 10.5886C109.731 10.4887 109.78 10.2766 109.78 9.95334C110.053 10.0182 110.425 10.1867 110.897 10.46C111.171 10.1231 111.407 9.97331 111.606 10.012C111.606 10.5386 111.68 10.8893 111.83 11.0615C111.905 10.938 111.941 10.6272 111.941 10.1293C112.167 10.0794 112.577 10.1293 113.174 10.2791C113.423 10.2791 113.572 10.2291 113.622 10.1293C113.772 10.5274 113.908 10.7882 114.032 10.913C114.032 10.8631 114.063 10.7446 114.125 10.5586C114.188 10.3714 114.205 10.2291 114.181 10.1293C114.879 10.3552 115.424 10.4064 115.824 10.2803C115.972 10.5823 116.259 10.9592 116.682 11.411C116.234 11.5108 115.835 11.3985 115.487 11.0753C115.412 11.1751 115.374 11.2749 115.374 11.3735C115.076 11.3735 114.621 11.4047 114.012 11.4671C113.403 11.5295 113.048 11.5607 112.947 11.5607C112.822 11.5607 112.699 11.4609 112.574 11.2612C112.374 10.963 112.25 10.7895 112.2 10.7383C112.2 11.1863 111.901 11.4996 111.304 11.6731C110.435 11.8977 109.951 12.0462 109.852 12.1211C110.198 13.4914 110.37 15.1474 110.37 17.0893C110.37 18.5831 110.254 19.7051 110.024 20.4513C110.074 20.5262 110.118 20.6061 110.157 20.6922C110.194 20.7796 110.24 20.8495 110.291 20.8981C110.318 20.8981 110.386 20.8183 110.5 20.656C110.612 20.495 110.743 20.4139 110.892 20.4139C111.017 20.4139 111.066 20.4401 111.042 20.4888C111.015 20.5387 111.078 20.5637 111.227 20.5637C111.351 20.5637 111.415 20.5137 111.415 20.4152C111.415 20.3153 111.476 20.2654 111.599 20.2654C111.75 20.2654 111.86 20.3216 111.935 20.4339C112.011 20.5462 112.072 20.6024 112.122 20.6024C112.197 20.2292 112.183 19.9172 112.087 19.6689L112.495 19.2957C112.346 19.5204 112.396 19.6314 112.645 19.6314C112.795 19.6314 112.87 19.6065 112.87 19.5578C112.82 19.3831 112.795 19.3219 112.795 19.3706C112.795 19.6701 112.906 20.0183 113.132 20.4164C113.38 20.1681 113.554 19.8798 113.654 19.5578C113.604 19.4829 113.504 19.4704 113.355 19.5191L113.02 19.594C113.218 19.3469 113.466 19.1472 113.767 18.9962C113.891 19.1709 113.952 19.3207 113.952 19.4455C113.952 19.4941 113.939 19.5453 113.914 19.594C113.914 19.6701 113.914 19.72 113.914 19.745C113.914 19.9684 114.077 20.2404 114.401 20.5649C114.676 20.4663 114.799 20.2167 114.775 19.8174C114.775 19.2458 114.8 18.9226 114.849 18.8464C114.898 18.9975 115.035 19.2583 115.261 19.6302C115.409 19.5328 115.484 19.3444 115.484 19.0698C115.484 19.2446 115.535 19.3681 115.634 19.4442C115.683 19.3444 115.695 19.1584 115.672 18.8839C115.595 18.4858 115.558 18.2125 115.558 18.0627C115.856 17.9629 116.056 17.9117 116.156 17.9117C116.156 18.1613 116.12 18.336 116.042 18.4346C116.12 18.5607 116.256 18.7354 116.455 18.9575H116.977V18.2861C116.827 18.1613 116.616 17.9629 116.342 17.6883C116.541 17.6134 116.827 17.6758 117.2 17.8743C117.174 17.7258 117.349 17.415 117.722 16.9408C117.722 17.2653 117.859 17.4262 118.135 17.4262C118.207 17.2528 118.318 16.9782 118.471 16.6051C118.471 16.7299 118.518 16.8422 118.618 16.9408C118.744 16.7174 118.793 16.343 118.768 15.8213L119.105 16.157C119.155 15.9586 119.253 15.6479 119.403 15.2223L120.299 14.3637C120.822 13.867 121.083 13.3803 121.083 12.9073C121.083 12.5342 120.858 12.322 120.411 12.2733C119.839 12.1735 119.452 11.9875 119.253 11.713C119.055 11.9127 118.855 12.0113 118.657 12.0113C118.531 12.0113 118.375 11.9364 118.189 11.7866C118.003 11.6381 117.834 11.5632 117.686 11.5632C117.536 11.5632 117.394 11.582 117.255 11.6194C117.119 11.6568 117.037 11.6743 117.013 11.6743V10.9268C117.088 10.9018 117.188 10.8893 117.311 10.8893C117.636 10.8893 118.157 10.9704 118.88 11.1327C119.601 11.2949 119.998 11.3748 120.074 11.3748C120.152 11.3748 120.305 11.5121 120.541 11.7866C120.777 12.0612 120.958 12.1972 121.083 12.1972C121.233 12.1972 121.309 12.0861 121.309 11.8603C121.382 12.0113 121.457 12.1598 121.532 12.3083C121.657 12.5329 121.805 12.644 121.98 12.644C122.105 12.644 122.154 12.619 122.129 12.5704C122.102 12.5204 122.154 12.4955 122.278 12.4955C122.651 12.4955 122.856 12.614 122.894 12.8499C122.931 13.087 122.962 13.3229 122.987 13.56C123.012 13.7971 123.173 13.9157 123.473 13.9157C123.672 13.9144 123.871 13.8146 124.07 13.6162ZM126.152 27.8094C126.026 27.6609 125.826 27.3739 125.554 26.9508C125.528 26.7025 125.589 26.4903 125.739 26.3156C125.714 26.1409 125.577 25.5444 125.33 24.5223C125.055 24.7968 124.919 24.808 124.919 24.5597C124.818 24.4836 124.632 24.1616 124.36 23.5888C124.36 23.9132 124.273 24.0742 124.098 24.0742C123.972 23.8758 123.923 23.5513 123.948 23.1033C123.674 23.278 123.3 23.4902 122.829 23.7398C122.877 23.59 122.779 23.2293 122.53 22.6565C122.48 22.4831 121.386 22.06 119.244 21.3873C119.319 21.4872 119.43 21.7106 119.581 22.0587C119.68 22.3071 119.855 22.4955 120.104 22.6191C120.428 22.2946 120.564 22.1324 120.514 22.1324C120.69 22.357 121.038 22.6565 121.561 23.0297C122.655 23.7997 123.277 24.536 123.426 25.2336C123.576 25.9312 123.651 26.9895 123.651 28.4085C123.651 28.6331 123.483 29.2434 123.147 30.2393C122.811 31.2351 122.555 31.8454 122.382 32.0688C122.755 32.2198 122.942 32.4806 122.942 32.8538C122.942 32.9037 122.892 33.1907 122.794 33.7124C122.718 33.464 122.594 33.1396 122.419 32.7427C121.971 33.041 121.225 33.7111 120.179 34.7544L120.405 34.7183C120.529 34.6933 120.615 34.6933 120.665 34.7183C120.765 34.7669 120.814 34.8543 120.814 34.9791C120.814 35.054 120.677 35.2025 120.405 35.4246L120.031 35.1288C119.782 35.3011 119.083 35.8227 117.939 36.6913C117.093 37.3365 116.595 37.6585 116.447 37.6585C116.322 37.6585 116.272 37.6273 116.297 37.5649C116.322 37.5025 116.272 37.4725 116.147 37.4725C116.122 37.4725 115.736 37.6835 114.99 38.1065C114.243 38.5283 113.858 38.738 113.833 38.738C113.707 38.738 113.565 38.6893 113.403 38.5932C113.24 38.4959 113.097 38.4472 112.973 38.4472C112.351 38.4472 111.765 38.582 111.219 38.8566C111.118 39.0912 111.032 39.2072 110.958 39.2072C110.633 38.9327 110.421 38.7967 110.324 38.7967C110.298 38.6968 110.235 38.2114 110.135 37.339C110.084 36.7649 109.832 36.4654 109.375 36.4392C109.375 36.1659 109.473 35.8315 109.667 35.4321C109.692 35.4808 109.84 35.8552 110.108 36.5515C109.903 35.9787 109.619 35.1813 109.258 34.1617C109.258 34.2615 109.173 34.4225 109.004 34.6471C108.834 34.8718 108.749 35.0577 108.749 35.2062C108.749 35.4059 108.845 35.7179 109.04 36.141L108.749 36.4018C108.675 36.5016 108.542 36.7637 108.348 37.1855C107.974 36.3144 107.6 35.6792 107.226 35.2811C107.451 36.428 107.563 36.9509 107.563 36.8498C107.563 36.7512 107.677 36.7013 107.902 36.7013C108.126 36.7013 108.2 36.7387 108.126 36.8136C108.076 36.9634 108.051 37.1992 108.051 37.5225C108.051 37.8457 108.025 38.0953 107.975 38.27C108.051 38.27 108.125 38.2001 108.2 38.0641C108.276 37.9268 108.325 37.8469 108.35 37.822C108.502 38.1103 108.478 38.3374 108.276 38.5046C108.654 38.7817 108.932 39.171 109.11 39.6752C109.186 39.6752 110.648 39.6752 113.499 39.6752C113.499 39.2459 113.572 39.03 113.722 39.03V39.8487C113.747 39.8487 113.828 39.8 113.964 39.7039C114.103 39.6066 114.244 39.5567 114.394 39.5567C114.543 39.5567 114.586 39.6066 114.526 39.7039C114.462 39.8 114.505 39.8487 114.656 39.8487C114.782 39.8487 114.83 39.8287 114.805 39.7913C114.78 39.7514 114.83 39.7326 114.954 39.7326C115.077 39.7326 115.14 39.7801 115.14 39.8774C115.14 39.9747 115.215 40.0247 115.366 40.0247C115.513 40.0247 115.681 39.9548 115.869 39.8188C116.053 39.6827 116.173 39.6141 116.223 39.6141C116.123 39.5205 116.211 39.3445 116.485 39.0887C116.509 39.0887 116.528 39.1361 116.541 39.2347C116.553 39.3308 116.634 39.3807 116.783 39.3807C116.908 39.3807 116.994 39.3308 117.046 39.2322C117.093 39.1336 117.185 39.0849 117.324 39.0849C117.46 39.0849 117.556 38.9863 117.605 38.7879C117.655 38.592 117.691 38.4797 117.718 38.4547L117.979 38.6793C117.979 38.728 117.953 38.8154 117.903 38.9427C117.853 39.0687 117.828 39.1548 117.828 39.206C118.054 39.055 118.239 39.055 118.387 39.206C118.361 38.7018 118.563 38.2401 118.985 37.8207C119.035 37.8469 119.091 37.9256 119.155 38.0628C119.217 38.1989 119.284 38.2688 119.359 38.2688C119.409 38.1202 119.509 37.9143 119.658 37.6523C119.807 37.3914 119.907 37.1868 119.956 37.037C120.156 37.2354 120.329 37.3353 120.479 37.3353C120.479 37.0869 120.565 36.8748 120.74 36.7L121.114 37.037C121.488 36.9609 121.767 36.7063 121.954 36.2707C122.139 35.8352 122.26 35.6181 122.308 35.6181L122.645 35.7666C122.968 35.7666 123.229 35.5057 123.429 34.9828C123.605 35.0827 123.791 35.0452 123.989 34.8705C123.863 34.8218 123.746 34.6783 123.634 34.4412C123.524 34.2041 123.429 34.0369 123.355 33.937C123.429 33.8122 123.553 33.625 123.728 33.3767C123.777 33.4266 123.833 33.5077 123.896 33.6188C123.958 33.7311 124.014 33.8122 124.064 33.8609V33.2257C124.387 33.2257 124.573 33.202 124.625 33.1508C124.399 32.9511 124.325 32.8138 124.4 32.7402H125.221C125.245 32.2685 125.285 31.8067 125.333 31.3587C125.382 30.9107 125.558 30.6236 125.856 30.5001C125.981 30.2268 126.017 29.9535 125.967 29.6789C125.892 29.2546 125.856 29.0687 125.856 29.1186C125.806 29.1186 125.768 29.1448 125.743 29.1934C125.718 29.2446 125.632 29.2696 125.482 29.2696C125.234 29.2696 125.207 29.1934 125.407 29.0437C125.607 28.8453 125.707 28.7205 125.707 28.6705C125.457 28.4459 125.343 28.3099 125.37 28.26C125.395 28.21 125.35 28.1114 125.239 27.9604C125.126 27.8119 125.07 27.7121 125.07 27.6622L125.444 27.2154C125.468 27.44 125.531 27.7021 125.63 28.0004C125.754 27.8718 125.926 27.8094 126.152 27.8094ZM108.01 34.3102H107.786L107.598 33.7873L107.823 33.6749L108.01 34.3102ZM108.01 30.9855L107.823 30.3503L107.6 30.4626L107.787 30.9855H108.01ZM108.01 35.0939L107.823 34.6471L107.6 34.722L107.787 35.0951H108.01V35.0939ZM109.087 34.3002L108.937 34.1142L108.23 34.8231L108.378 35.009L109.087 34.3002ZM109.394 29.8262C109.318 29.9023 109.229 29.9023 109.132 29.8262C109.007 29.7513 108.919 29.7139 108.87 29.7139C108.87 29.9884 108.932 30.2118 109.057 30.3853C108.98 30.4364 108.83 30.399 108.603 30.2742C108.376 30.1494 108.262 29.9996 108.262 29.8262C108.262 29.6777 108.514 29.2296 109.02 28.4821C109.045 28.7317 108.957 29.0687 108.759 29.4917C108.909 29.5167 109.12 29.6277 109.394 29.8262ZM108.796 31.2838H108.572L108.387 30.9094L108.61 30.8358L108.796 31.2838ZM109.424 15.744L109.199 15.6329L109.014 16.0435L109.238 16.1546L109.424 15.744ZM109.433 32.246V31.6495H109.141V32.2473H109.433V32.246ZM109.838 33.8147C109.764 33.8147 109.64 33.7149 109.467 33.5165C109.365 33.5913 109.316 33.6787 109.316 33.7773C109.316 33.4303 109.44 33.2556 109.69 33.2556C109.69 33.5027 109.739 33.6912 109.838 33.8147ZM109.615 37.4738V36.876H109.316V37.4738H109.615ZM114.799 39.0288H114.538V38.4447H114.799V39.0288ZM115.21 20.8245C115.184 20.8757 115.024 21.099 114.724 21.4972C114.724 21.0242 114.76 20.6136 114.837 20.2641C114.837 20.2904 114.899 20.3652 115.023 20.49C115.146 20.6148 115.21 20.7259 115.21 20.8245ZM115.995 38.7942C115.995 38.8453 115.919 38.9664 115.769 39.1561C115.619 39.3458 115.521 39.4793 115.472 39.5542C115.396 39.4731 115.36 39.337 115.36 39.1461C115.333 38.9814 115.36 38.864 115.434 38.7942H115.995V38.7942ZM117.189 38.119L116.964 37.6323L116.741 37.7459L116.964 38.119H117.189ZM118.906 21.9801H118.645V21.2326H118.906V21.9801ZM120.363 15.744L120.175 15.2211H119.915L120.101 15.8188L120.363 15.744ZM120.175 38.109H119.915V37.661H120.175V38.109ZM120.812 36.2146H120.587L120.4 35.8402L120.625 35.7279L120.812 36.2146ZM121.445 34.1517V33.7036H121.183V34.1517H121.445V34.1517ZM121.782 34.6746H121.52L121.334 35.4221H121.594L121.782 34.6746ZM123.909 32.0975C123.685 32.0975 123.485 31.9115 123.312 31.5372C123.511 31.4124 123.661 31.35 123.76 31.35C123.76 31.4011 123.785 31.5259 123.836 31.7244C123.884 31.924 123.909 32.0476 123.909 32.0975ZM124.134 26.534V25.9749H123.872V26.534H124.134ZM124.469 29.6028H124.209L123.947 30.3116L124.17 30.3853L124.469 29.6028ZM124.918 25.271L124.768 25.12L124.21 25.6442L124.36 25.8301L124.918 25.271Z" fill="#015D5C"/>
<path d="M140.84 30.1931C140.614 30.1931 140.453 30.1569 140.353 30.082L140.241 30.5787C140.189 30.7921 140.102 30.897 139.978 30.897C139.852 30.897 139.746 30.8795 139.66 30.8445C139.573 30.8084 139.466 30.7896 139.341 30.7896C139.216 30.7896 139.116 30.8371 139.042 30.9319C138.968 31.0255 138.866 31.0729 138.743 31.0729C138.619 31.0729 138.593 31.0255 138.667 30.9319C138.743 30.8371 138.718 30.7896 138.593 30.7896C138.467 30.7896 138.33 30.8683 138.181 31.0205C138.03 31.174 137.907 31.2489 137.808 31.2489C137.681 31.2489 137.57 31.1902 137.47 31.0742C137.369 30.9556 137.257 30.897 137.133 30.897C137.006 30.897 136.868 30.9756 136.72 31.1316C136.57 31.2876 136.433 31.3662 136.308 31.3662C136.21 31.3662 136.06 31.3175 135.86 31.2189C135.66 31.1228 135.498 31.0742 135.373 31.0742C135.247 31.0742 135.148 31.1228 135.074 31.2189C134.999 31.3175 134.899 31.3662 134.777 31.3662C134.675 31.3662 134.656 31.3175 134.718 31.2189C134.782 31.1228 134.749 31.0742 134.626 31.0742C134.502 31.0742 134.251 31.199 133.877 31.4486C133.403 31.7992 133.092 31.9989 132.941 32.0488C133.066 32.6491 133.237 32.9374 133.46 32.9112C133.46 32.9861 133.49 33.1795 133.553 33.4915C133.614 33.8048 133.644 34.0494 133.644 34.2241C134.485 35.351 135.325 36.5004 136.166 37.676C136.191 37.8769 136.252 37.9755 136.352 37.9755C136.474 37.9755 136.751 37.9256 137.184 37.8232C137.617 37.7222 137.902 37.671 138.038 37.671C138.174 37.671 138.229 37.6198 138.204 37.5175V37.213C138.32 37.3652 138.47 37.379 138.653 37.2504C138.628 37.505 138.677 37.7471 138.79 37.9755C138.859 37.9755 138.963 37.8994 139.101 37.7484C139.05 37.7222 138.985 37.7159 138.906 37.7297C138.828 37.7421 138.789 37.671 138.789 37.5187C138.789 37.3939 138.918 37.2043 139.176 36.9497C139.161 37.9193 139.161 38.4061 139.176 38.4061C139.504 38.1814 139.668 37.9331 139.668 37.6585C139.668 37.5612 139.578 37.2242 139.402 36.6501C139.524 36.6501 139.807 36.8473 140.253 37.2417V37.7596C139.73 37.9318 139.383 38.2763 139.208 38.7929C139.06 38.7929 138.9 38.7018 138.723 38.5171C138.624 38.6107 138.437 38.8004 138.165 39.0862H137.643C137.692 38.8466 137.656 38.607 137.531 38.3674C137.383 38.5583 137.096 38.7992 136.673 39.0862L136.377 38.7929C136.424 38.9115 136.338 38.9701 136.115 38.9701C135.989 38.9701 135.939 38.9202 135.965 38.8241C135.99 38.7255 135.94 38.6781 135.816 38.6781C135.667 38.6781 135.604 38.7143 135.63 38.7867L135.707 38.9701C135.68 38.9701 135.63 38.8928 135.557 38.743C135.481 38.5933 135.371 38.5171 135.22 38.5171C135.095 38.5171 135.045 38.5433 135.07 38.5957C135.095 38.6494 135.045 38.6756 134.922 38.6756C134.845 38.6756 134.612 38.3249 134.213 37.6223L133.913 37.9568C133.765 37.5574 133.616 37.359 133.466 37.359C133.292 37.359 133.206 37.4464 133.206 37.6236C133.156 37.4289 132.932 37.1731 132.534 36.8561C132.632 36.76 132.684 36.614 132.684 36.418L132.31 36.0524C132.233 36.1522 132.196 36.252 132.196 36.3519C132.097 36.1772 131.91 35.965 131.637 35.7167C131.787 35.5432 131.862 35.3435 131.862 35.1189C131.862 34.7707 131.676 34.299 131.301 33.6999C130.703 32.7053 130.393 32.1824 130.368 32.1312C130.495 32.1312 130.604 32.1687 130.706 32.2435C130.755 32.0975 130.979 31.8379 131.377 31.4685L131.153 31.2451C131.103 31.2938 131.015 31.3425 130.891 31.3899C130.766 31.4386 130.705 31.486 130.705 31.5334C130.753 31.4348 130.73 31.2926 130.629 31.1054C130.53 30.9194 130.48 30.7634 130.48 30.6374C130.48 30.5375 130.559 30.3391 130.72 30.0396C130.881 29.7426 130.962 29.5042 130.962 29.3307L131.294 29.629C131.42 29.4805 131.478 29.332 131.478 29.181C131.478 29.0574 131.304 28.7954 130.952 28.396V27.7683C131.127 27.6198 131.288 27.314 131.437 26.8535C131.587 26.393 131.672 26.1559 131.697 26.1447C131.723 26.1322 131.746 26.076 131.772 25.9762C131.798 25.8776 131.884 25.8277 132.034 25.8277C132.059 25.8277 132.131 25.6467 132.258 25.286C132.381 24.9254 132.442 24.6695 132.442 24.5198L132.74 24.818C132.939 24.3925 133.298 23.8671 133.82 23.2406C134.565 22.3396 135.185 21.889 135.68 21.889C137.816 21.889 139.28 22.7164 140.076 24.3688C140.023 24.2939 139.948 24.2939 139.85 24.3688C139.725 24.4699 139.663 24.5809 139.663 24.7057C139.74 24.7819 139.812 24.7918 139.887 24.7432C139.962 24.667 140 24.5934 140 24.5185C140.224 24.7182 140.411 25.004 140.56 25.3771C140.186 25.3771 140 25.3272 140 25.2274L139.814 25.4895C139.966 25.4895 140.181 25.764 140.46 26.3094C140.511 26.3855 140.637 26.4217 140.841 26.4217V30.1931H140.84ZM131.712 28.2525L131.488 28.1764L131.301 28.5495L131.526 28.6256L131.712 28.2525ZM131.974 34.1517V33.7399H131.749V34.1517H131.974ZM133.318 34.5261L133.095 34.45L132.906 34.8231L133.131 34.8992L133.318 34.5261ZM138.206 29.5591C138.206 29.4593 138.158 29.1922 138.063 28.7554C137.964 28.3199 137.914 28.0016 137.914 27.802C137.864 26.0598 137.766 24.8405 137.616 24.1429C137.59 23.9944 137.466 23.8259 137.24 23.64C137.016 23.454 136.84 23.3592 136.717 23.3592C135.841 24.0568 135.205 24.7407 134.804 25.4133C134.754 25.3647 134.68 25.3135 134.58 25.2648C134.48 25.2149 134.404 25.165 134.355 25.1151C134.38 25.8127 134.193 26.5839 133.792 27.4301C133.792 27.4563 133.629 27.4663 133.304 27.4663C133.304 27.9143 133.242 28.4135 133.118 28.9601C133.118 29.0849 133.198 29.3083 133.358 29.6315C133.521 29.956 133.599 30.1919 133.599 30.3404C135.582 30.3404 137.066 30.2418 138.058 30.0421C138.058 30.0171 138.083 29.9672 138.131 29.8936C138.183 29.82 138.206 29.7076 138.206 29.5591ZM133.579 34.0019L133.188 33.816L133.117 34.0406L133.471 34.2253L133.579 34.0019ZM133.579 36.5041H133.394L133.207 36.9896L133.43 37.1019L133.579 36.5041Z" fill="#015D5C"/>
<path d="M155.997 30.1931C155.773 30.1931 155.611 30.1569 155.512 30.082L155.398 30.5787C155.349 30.7921 155.261 30.897 155.136 30.897C155.012 30.897 154.906 30.8795 154.818 30.8445C154.731 30.8084 154.625 30.7896 154.5 30.7896C154.375 30.7896 154.275 30.8371 154.202 30.9319C154.126 31.0255 154.027 31.0729 153.901 31.0729C153.779 31.0729 153.752 31.0255 153.826 30.9319C153.901 30.8371 153.876 30.7896 153.751 30.7896C153.625 30.7896 153.489 30.8683 153.339 31.0205C153.191 31.174 153.065 31.2489 152.965 31.2489C152.839 31.2489 152.728 31.1902 152.628 31.0742C152.528 30.9556 152.416 30.897 152.29 30.897C152.165 30.897 152.028 30.9756 151.878 31.1316C151.728 31.2876 151.592 31.3662 151.467 31.3662C151.367 31.3662 151.218 31.3175 151.019 31.2189C150.82 31.1228 150.657 31.0742 150.533 31.0742C150.408 31.0742 150.307 31.1228 150.233 31.2189C150.158 31.3175 150.057 31.3662 149.934 31.3662C149.834 31.3662 149.815 31.3175 149.877 31.2189C149.939 31.1228 149.909 31.0742 149.784 31.0742C149.66 31.0742 149.412 31.199 149.035 31.4486C148.563 31.7992 148.25 31.9989 148.1 32.0488C148.225 32.6491 148.397 32.9374 148.618 32.9112C148.618 32.9861 148.649 33.1795 148.711 33.4915C148.773 33.8048 148.803 34.0494 148.803 34.2241C149.644 35.351 150.483 36.5004 151.325 37.676C151.349 37.8769 151.41 37.9755 151.511 37.9755C151.632 37.9755 151.909 37.9256 152.345 37.8232C152.776 37.7222 153.06 37.671 153.197 37.671C153.332 37.671 153.387 37.6198 153.363 37.5175V37.213C153.479 37.3652 153.628 37.379 153.811 37.2504C153.787 37.505 153.835 37.7471 153.95 37.9755C154.018 37.9755 154.122 37.8994 154.259 37.7484C154.208 37.7222 154.143 37.7159 154.064 37.7297C153.986 37.7421 153.948 37.671 153.948 37.5187C153.948 37.3939 154.077 37.2043 154.335 36.9497C154.32 37.9193 154.32 38.4061 154.335 38.4061C154.662 38.1814 154.826 37.9331 154.826 37.6585C154.826 37.5612 154.737 37.2242 154.559 36.6501C154.682 36.6501 154.967 36.8473 155.411 37.2417V37.7596C154.889 37.9318 154.541 38.2763 154.369 38.7929C154.218 38.7929 154.057 38.7018 153.882 38.5171C153.782 38.6107 153.596 38.8004 153.323 39.0862H152.801C152.851 38.8466 152.814 38.607 152.69 38.3674C152.539 38.5583 152.254 38.7992 151.832 39.0862L151.535 38.7929C151.583 38.9115 151.496 38.9701 151.273 38.9701C151.148 38.9701 151.098 38.9202 151.124 38.8241C151.149 38.7255 151.098 38.6781 150.974 38.6781C150.826 38.6781 150.763 38.7143 150.79 38.7867L150.865 38.9701C150.84 38.9701 150.79 38.8928 150.715 38.743C150.64 38.5933 150.529 38.5171 150.379 38.5171C150.254 38.5171 150.204 38.5433 150.228 38.5957C150.254 38.6494 150.204 38.6756 150.081 38.6756C150.005 38.6756 149.769 38.3249 149.372 37.6223L149.074 37.9568C148.923 37.5574 148.774 37.359 148.624 37.359C148.45 37.359 148.364 37.4464 148.364 37.6236C148.315 37.4289 148.09 37.1731 147.692 36.8561C147.791 36.76 147.841 36.614 147.841 36.418L147.469 36.0524C147.393 36.1522 147.355 36.252 147.355 36.3519C147.255 36.1772 147.069 35.965 146.796 35.7167C146.945 35.5432 147.02 35.3435 147.02 35.1189C147.02 34.7707 146.834 34.299 146.46 33.6999C145.863 32.7053 145.551 32.1824 145.527 32.1312C145.652 32.1312 145.763 32.1687 145.864 32.2435C145.913 32.0975 146.137 31.8379 146.535 31.4685L146.312 31.2451C146.261 31.2938 146.175 31.3425 146.05 31.3899C145.925 31.4386 145.863 31.486 145.863 31.5334C145.913 31.4348 145.888 31.2926 145.788 31.1054C145.688 30.9194 145.638 30.7634 145.638 30.6374C145.638 30.5375 145.718 30.3391 145.88 30.0396C146.041 29.7426 146.121 29.5042 146.121 29.3307L146.453 29.629C146.576 29.4805 146.639 29.332 146.639 29.181C146.639 29.0574 146.463 28.7954 146.111 28.396V27.7683C146.286 27.6198 146.445 27.314 146.595 26.8535C146.744 26.393 146.83 26.1559 146.856 26.1447C146.882 26.1334 146.905 26.076 146.931 25.9762C146.957 25.8776 147.043 25.8277 147.192 25.8277C147.217 25.8277 147.29 25.6467 147.415 25.286C147.54 24.9254 147.601 24.6695 147.601 24.5198L147.898 24.818C148.097 24.3925 148.457 23.8671 148.98 23.2406C149.724 22.3396 150.344 21.889 150.841 21.889C152.974 21.889 154.439 22.7164 155.235 24.3688C155.184 24.2939 155.109 24.2939 155.009 24.3688C154.884 24.4699 154.823 24.5809 154.823 24.7057C154.898 24.7819 154.972 24.7918 155.048 24.7432C155.124 24.667 155.16 24.5934 155.16 24.5185C155.385 24.7182 155.571 25.004 155.719 25.3771C155.345 25.3771 155.16 25.3272 155.16 25.2274L154.974 25.4895C155.126 25.4895 155.341 25.764 155.619 26.3094C155.671 26.3855 155.799 26.4217 156 26.4217V30.1931H155.997ZM146.871 28.2525L146.646 28.1764L146.46 28.5495L146.684 28.6256L146.871 28.2525ZM147.132 34.1517V33.7399H146.906V34.1517H147.132ZM148.476 34.5261L148.253 34.45L148.067 34.8231L148.289 34.8992L148.476 34.5261ZM153.366 29.5591C153.366 29.4593 153.317 29.1922 153.219 28.7554C153.122 28.3199 153.073 28.0016 153.073 27.802C153.025 26.0598 152.924 24.8405 152.775 24.1429C152.749 23.9944 152.624 23.8259 152.4 23.64C152.174 23.454 151.999 23.3592 151.874 23.3592C151.002 24.0568 150.363 24.7407 149.964 25.4133C149.914 25.3647 149.837 25.3135 149.739 25.2648C149.638 25.2149 149.562 25.165 149.513 25.1151C149.538 25.8127 149.35 26.5839 148.951 27.4301C148.951 27.4563 148.788 27.4663 148.463 27.4663C148.463 27.9143 148.401 28.4135 148.276 28.9601C148.276 29.0849 148.356 29.3083 148.517 29.6315C148.678 29.956 148.758 30.1919 148.758 30.3404C150.74 30.3404 152.225 30.2418 153.216 30.0421C153.216 30.0171 153.241 29.9672 153.291 29.8936C153.339 29.82 153.366 29.7076 153.366 29.5591ZM148.739 34.0019L148.347 33.816L148.276 34.0406L148.631 34.2253L148.739 34.0019ZM148.739 36.5041H148.552L148.365 36.9896L148.589 37.1019L148.739 36.5041Z" fill="#015D5C"/>
<path d="M149.437 6.12577C149.437 6.12577 147.101 6.46272 145.893 8.40832C145.514 9.01609 144.551 11.7641 147.062 13.2155L147.375 14.0629L147.501 13.3029C147.501 13.3029 149.071 13.4839 151.728 9.7499C151.728 9.7499 152.234 9.95457 152.262 10.4238L152.089 10.6672L152.272 10.5374L152.28 10.7059C152.28 10.7059 152.159 10.8232 152.171 10.9367L152.266 10.9492C152.266 10.9492 152.315 11.215 152.371 11.235C152.427 11.255 152.484 11.1252 152.484 11.0353C152.484 11.0353 152.543 10.9729 152.599 11.0902C152.599 11.0902 152.625 10.9292 152.536 10.8943L152.531 10.7695C152.531 10.7695 152.668 10.7807 152.7 10.8831C152.7 10.8831 152.68 10.6722 152.543 10.6397C152.543 10.6397 152.668 9.46536 151.919 9.45788C151.919 9.45788 152.014 9.25945 152.068 9.20953C152.068 9.20953 152.433 9.14713 152.967 9.43666C152.967 9.43666 153.068 10.0681 153.056 10.3115L152.904 10.5736L153.081 10.46L153.088 10.6597L152.984 10.8594L153.131 10.7932L153.14 11.0728C153.14 11.0728 153.323 10.9904 153.352 10.8843C153.352 10.8843 153.364 10.8331 153.407 10.8843C153.407 10.8843 153.485 10.8731 153.36 10.7583L153.347 10.4999L153.555 10.6559L153.367 10.3452C153.367 10.3452 153.324 9.57269 153.214 9.36553C153.106 9.15711 152.689 8.88256 152.296 8.90627C152.296 8.90627 152.261 8.74653 152.608 8.27229C152.608 8.27229 154.129 8.99363 154.807 8.02519C155.486 7.05676 154.776 6.23933 154.46 6.02718C154.46 6.02718 154.471 5.03254 155.216 4.71555C155.471 4.60822 155.634 4.8391 155.712 4.57453C155.787 4.30996 155.465 4.36237 155.346 4.37984C155.229 4.39856 154.816 4.54458 154.592 4.84534C154.37 5.1461 154.252 5.59912 154.24 5.88116C154.24 5.88116 153.588 5.6403 153.239 5.7339C153.239 5.7339 152.927 4.75174 153.417 4.30497C153.905 3.85819 154.103 3.93556 153.993 3.65227C153.922 3.47007 153.534 3.78705 153.458 3.83448C153.38 3.8819 152.446 4.64067 153.011 5.77633C153.011 5.77633 152.528 5.8587 152.287 6.56381L152.074 6.27802L152.129 6.51389L151.807 6.21562L151.832 6.39658L151.565 6.11454L151.596 6.25556C151.596 6.25556 151.462 6.1969 151.407 6.18942L151.195 6.0122L151.22 6.15697C151.22 6.15697 150.808 6.07086 150.682 6.07086L150.416 5.85496L150.541 6.07959C150.541 6.07959 150.354 6.04465 150.325 6.03591C150.299 6.02843 150.016 5.85995 150.016 5.85995L150.199 6.06711C150.199 6.06711 149.993 6.04715 149.894 6.05588L149.734 5.96228L149.8 6.06462C149.8 6.06462 149.66 6.06836 149.617 6.06836L149.361 6.00222L149.437 6.12577Z" fill="#015D5C"/>
<path d="M150.511 5.57667C150.511 5.57667 148.787 2.26703 147.199 1.50201C146.686 1.25491 145.765 0.655884 144.847 1.93756C143.928 3.22048 148.661 5.07498 150.511 5.57667Z" fill="#015D5C"/>
<path d="M151.703 5.7963C151.703 5.7963 151.48 2.3032 150.28 0.538559C149.99 0.109254 149.162 -0.343763 148.435 0.385057C147.928 0.891737 148.81 2.29072 149.022 2.584C149.233 2.87977 151.057 5.40818 151.703 5.7963Z" fill="#015D5C"/>
<path d="M152.585 8.80769C152.585 8.80769 153.61 8.76026 153.645 9.37177L153.492 9.56022L153.618 9.49782C153.618 9.49782 153.598 9.64758 153.478 9.77238L153.595 9.75241L153.53 10.0232L153.665 9.93337L153.747 10.0706C153.747 10.0706 153.784 9.86348 153.784 9.84351C153.784 9.82354 153.845 9.82354 153.871 9.8822L153.865 9.71747H153.977C153.977 9.71747 153.918 9.61513 153.871 9.50905C153.825 9.40422 153.973 8.50193 152.685 8.69038C152.685 8.68913 152.539 8.70161 152.585 8.80769Z" fill="#015D5C"/>
</svg>
