<svg width="32" height="32" viewBox="0 0 32 32" fill="none" xmlns="http://www.w3.org/2000/svg">
<path d="M10.8054 27.7515C21.3715 27.7515 27.1507 18.9975 27.1507 11.4062C27.1507 11.1575 27.1507 10.91 27.1339 10.6636C28.2582 9.8504 29.2287 8.84348 30 7.69002C28.9515 8.15459 27.8393 8.45926 26.7005 8.59386C27.8997 7.87592 28.7973 6.74672 29.2261 5.41642C28.0984 6.08557 26.8647 6.55715 25.5782 6.81082C24.7121 5.88982 23.5666 5.27996 22.3189 5.07561C21.0712 4.87127 19.791 5.08382 18.6763 5.68038C17.5616 6.27694 16.6746 7.22425 16.1525 8.37572C15.6305 9.52719 15.5025 10.8186 15.7883 12.0502C13.5044 11.9357 11.27 11.3421 9.23032 10.3081C7.19062 9.27409 5.39118 7.82267 3.9488 6.0481C3.21418 7.31276 2.98918 8.80986 3.31962 10.2346C3.65005 11.6593 4.51107 12.9045 5.72736 13.7167C4.81315 13.6896 3.91887 13.443 3.12 12.9977C3.12 13.0212 3.12 13.0459 3.12 13.0705C3.12036 14.3968 3.57949 15.6822 4.41952 16.7086C5.25954 17.735 6.42874 18.4392 7.7288 18.7019C6.88305 18.9325 5.99569 18.9662 5.13488 18.8004C5.50197 19.9419 6.21665 20.9401 7.17896 21.6554C8.14127 22.3707 9.30309 22.7673 10.5019 22.7899C8.4677 24.3886 5.95479 25.2565 3.36752 25.2539C2.91045 25.253 2.45383 25.2253 2 25.171C4.62711 26.8569 7.6839 27.7511 10.8054 27.747" fill="#1DA1F2"/>
</svg>
